0
SECTION
2
HEADER
9
$ACADVER
1
AC1006
9
$INSBASE
10
0.0
20
0.0
30
0.0
9
$EXTMIN
10
0.0
20
0.0
9
$EXTMAX
10
0.0
20
0.0
0
ENDSEC
0
SECTION
2
TABLES
0
TABLE
2
LTYPE
70
1
0
LTYPE
2
CONTINUOUS
70
64
3
Solid line
72
65
73
0
40
0.0
0
ENDTAB
0
TABLE
2
LAYER
70
1
0
LAYER
2
PYDXF
70
64
62
7
6
continuous
0
ENDTAB
0
TABLE
2
STYLE
70
2
0
STYLE
2
STANDARD
70
0
40
0
41
40
50
50
71
0
42
1
3
ARIAL.TTF
4

0
STYLE
2
STANDARD
70
0
40
0
41
40
50
50
71
0
42
1
3
ARIAL.TTF
4

0
ENDTAB
0
TABLE
2
VIEW
70
1
0
VIEW
2
Normal
70
0
40
1
10
0.5
20
0.5
41
1
11
0
21
0
31
1
12
0
22
0
32
0
42
50
43
0
44
0
50
0
71
0
0
ENDTAB
0
ENDSEC
0
SECTION
2
BLOCKS
0
ENDSEC
0
SECTION
2
ENTITIES
0
LINE
8
0
10
0.125
20
0.0
30
0.0
11
0.124976554373
21
0.00242092068909
31
0.0
0
LINE
8
0
10
0.124976554373
20
0.00242092068909
30
0.0
11
0.124906226288
21
0.00484093321814
31
0.0
0
LINE
8
0
10
0.124906226288
20
0.00484093321814
30
0.0
11
0.124789042127
21
0.00725912976778
31
0.0
0
LINE
8
0
10
0.124789042127
20
0.00725912976778
30
0.0
11
0.124625045849
21
0.00967460319986
31
0.0
0
LINE
8
0
10
0.124625045849
20
0.00967460319986
30
0.0
11
0.124625045849
21
0.00967460319986
31
0.0
0
LINE
8
0
10
0.124625045849
20
0.00967460319986
30
0.0
11
0.124575618698
21
0.0106448364262
31
0.0
0
LINE
8
0
10
0.124575618698
20
0.0106448364262
30
0.0
11
0.124577749464
21
0.0116178141038
31
0.0
0
LINE
8
0
10
0.124577749464
20
0.0116178141038
30
0.0
11
0.124631497819
21
0.0125922833463
31
0.0
0
LINE
8
0
10
0.124631497819
20
0.0125922833463
30
0.0
11
0.12473689847
21
0.0135669902391
31
0.0
0
LINE
8
0
10
0.12473689847
20
0.0135669902391
30
0.0
11
0.124893961139
21
0.0145406802924
31
0.0
0
LINE
8
0
10
0.124893961139
20
0.0145406802924
30
0.0
11
0.125102670562
21
0.0155120988952
31
0.0
0
LINE
8
0
10
0.125102670562
20
0.0155120988952
30
0.0
11
0.125362986482
21
0.0164799917684
31
0.0
0
LINE
8
0
10
0.125362986482
20
0.0164799917684
30
0.0
11
0.125674843661
21
0.017443105419
31
0.0
0
LINE
8
0
10
0.125674843661
20
0.017443105419
30
0.0
11
0.126038151894
21
0.0184001875931
31
0.0
0
LINE
8
0
10
0.126038151894
20
0.0184001875931
30
0.0
11
0.126452796034
21
0.0193499877295
31
0.0
0
LINE
8
0
10
0.126452796034
20
0.0193499877295
30
0.0
11
0.126918636019
21
0.0202912574116
31
0.0
0
LINE
8
0
10
0.126918636019
20
0.0202912574116
30
0.0
11
0.127435506918
21
0.0212227508206
31
0.0
0
LINE
8
0
10
0.127435506918
20
0.0212227508206
30
0.0
11
0.12800321897
21
0.022143225186
31
0.0
0
LINE
8
0
10
0.12800321897
20
0.022143225186
30
0.0
11
0.128621557644
21
0.0230514412369
31
0.0
0
LINE
8
0
10
0.128621557644
20
0.0230514412369
30
0.0
11
0.129290283698
21
0.0239461636512
31
0.0
0
LINE
8
0
10
0.129290283698
20
0.0239461636512
30
0.0
11
0.130009133251
21
0.0248261615047
31
0.0
0
LINE
8
0
10
0.130009133251
20
0.0248261615047
30
0.0
11
0.13077781786
21
0.0256902087181
31
0.0
0
LINE
8
0
10
0.13077781786
20
0.0256902087181
30
0.0
11
0.131596024604
21
0.0265370845032
31
0.0
0
LINE
8
0
10
0.131596024604
20
0.0265370845032
30
0.0
11
0.132463416181
21
0.0273655738076
31
0.0
0
LINE
8
0
10
0.132463416181
20
0.0273655738076
30
0.0
11
0.133379631001
21
0.0281744677578
31
0.0
0
LINE
8
0
10
0.133379631001
20
0.0281744677578
30
0.0
11
0.134344283305
21
0.0289625641002
31
0.0
0
LINE
8
0
10
0.134344283305
20
0.0289625641002
30
0.0
11
0.13535696327
21
0.0297286676407
31
0.0
0
LINE
8
0
10
0.13535696327
20
0.0297286676407
30
0.0
11
0.136417237141
21
0.0304715906826
31
0.0
0
LINE
8
0
10
0.136417237141
20
0.0304715906826
30
0.0
11
0.137524647356
21
0.0311901534613
31
0.0
0
LINE
8
0
10
0.137524647356
20
0.0311901534613
30
0.0
11
0.138678712688
21
0.0318831845783
31
0.0
0
LINE
8
0
10
0.138678712688
20
0.0318831845783
30
0.0
11
0.139878928391
21
0.0325495214312
31
0.0
0
LINE
8
0
10
0.139878928391
20
0.0325495214312
30
0.0
11
0.141124766349
21
0.0331880106429
31
0.0
0
LINE
8
0
10
0.141124766349
20
0.0331880106429
30
0.0
11
0.142415675244
21
0.0337975084868
31
0.0
0
LINE
8
0
10
0.142415675244
20
0.0337975084868
30
0.0
11
0.143751080715
21
0.0343768813104
31
0.0
0
LINE
8
0
10
0.143751080715
20
0.0343768813104
30
0.0
11
0.145130385543
21
0.034925005955
31
0.0
0
LINE
8
0
10
0.145130385543
20
0.034925005955
30
0.0
11
0.146552969826
21
0.0354407701736
31
0.0
0
LINE
8
0
10
0.146552969826
20
0.0354407701736
30
0.0
11
0.148018191172
21
0.0359230730447
31
0.0
0
LINE
8
0
10
0.148018191172
20
0.0359230730447
30
0.0
11
0.149525384895
21
0.0363708253836
31
0.0
0
LINE
8
0
10
0.149525384895
20
0.0363708253836
30
0.0
11
0.151073864222
21
0.0367829501499
31
0.0
0
LINE
8
0
10
0.151073864222
20
0.0367829501499
30
0.0
11
0.152662920498
21
0.0371583828519
31
0.0
0
LINE
8
0
10
0.152662920498
20
0.0371583828519
30
0.0
11
0.154291823409
21
0.0374960719477
31
0.0
0
LINE
8
0
10
0.154291823409
20
0.0374960719477
30
0.0
11
0.155959821207
21
0.0377949792417
31
0.0
0
LINE
8
0
10
0.155959821207
20
0.0377949792417
30
0.0
11
0.157666140939
21
0.0380540802782
31
0.0
0
LINE
8
0
10
0.157666140939
20
0.0380540802782
30
0.0
11
0.159409988685
21
0.038272364731
31
0.0
0
LINE
8
0
10
0.159409988685
20
0.038272364731
30
0.0
11
0.161190549809
21
0.0384488367885
31
0.0
0
LINE
8
0
10
0.161190549809
20
0.0384488367885
30
0.0
11
0.163006989204
21
0.0385825155353
31
0.0
0
LINE
8
0
10
0.163006989204
20
0.0385825155353
30
0.0
11
0.164858451557
21
0.0386724353289
31
0.0
0
LINE
8
0
10
0.164858451557
20
0.0386724353289
30
0.0
11
0.166744061607
21
0.0387176461728
31
0.0
0
LINE
8
0
10
0.166744061607
20
0.0387176461728
30
0.0
11
0.168662924424
21
0.0387172140847
31
0.0
0
LINE
8
0
10
0.168662924424
20
0.0387172140847
30
0.0
11
0.170614125682
21
0.0386702214601
31
0.0
0
LINE
8
0
10
0.170614125682
20
0.0386702214601
30
0.0
11
0.172596731946
21
0.0385757674314
31
0.0
0
LINE
8
0
10
0.172596731946
20
0.0385757674314
30
0.0
11
0.174609790961
21
0.0384329682223
31
0.0
0
LINE
8
0
10
0.174609790961
20
0.0384329682223
30
0.0
11
0.176652331949
21
0.0382409574973
31
0.0
0
LINE
8
0
10
0.176652331949
20
0.0382409574973
30
0.0
11
0.178723365911
21
0.0379988867058
31
0.0
0
LINE
8
0
10
0.178723365911
20
0.0379988867058
30
0.0
11
0.178723136036
21
0.0379988378314
31
0.0
0
LINE
8
0
10
0.178723136036
20
0.0379988378314
30
0.0
11
0.178755501696
21
0.0380061501765
31
0.0
0
LINE
8
0
10
0.178755501696
20
0.0380061501765
30
0.0
11
0.178852212706
21
0.0380297287329
31
0.0
0
LINE
8
0
10
0.178852212706
20
0.0380297287329
30
0.0
11
0.179012637439
21
0.0380720228921
31
0.0
0
LINE
8
0
10
0.179012637439
20
0.0380720228921
30
0.0
11
0.179236074394
21
0.0381354634345
31
0.0
0
LINE
8
0
10
0.179236074394
20
0.0381354634345
30
0.0
11
0.179521752687
21
0.0382224607583
31
0.0
0
LINE
8
0
10
0.179521752687
20
0.0382224607583
30
0.0
11
0.17986883258
21
0.03833540312
31
0.0
0
LINE
8
0
10
0.17986883258
20
0.03833540312
30
0.0
11
0.180276406054
21
0.0384766548882
31
0.0
0
LINE
8
0
10
0.180276406054
20
0.0384766548882
30
0.0
11
0.180743497421
21
0.0386485548117
31
0.0
0
LINE
8
0
10
0.180743497421
20
0.0386485548117
30
0.0
11
0.181269063983
21
0.0388534143013
31
0.0
0
LINE
8
0
10
0.181269063983
20
0.0388534143013
30
0.0
11
0.181851996723
21
0.0390935157288
31
0.0
0
LINE
8
0
10
0.181851996723
20
0.0390935157288
30
0.0
11
0.182491121045
21
0.0393711107416
31
0.0
0
LINE
8
0
10
0.182491121045
20
0.0393711107416
30
0.0
11
0.183185197548
21
0.0396884185961
31
0.0
0
LINE
8
0
10
0.183185197548
20
0.0396884185961
30
0.0
11
0.183932922844
21
0.0400476245082
31
0.0
0
LINE
8
0
10
0.183932922844
20
0.0400476245082
30
0.0
11
0.18473293041
21
0.0404508780251
31
0.0
0
LINE
8
0
10
0.18473293041
20
0.0404508780251
30
0.0
11
0.185583791486
21
0.0409002914158
31
0.0
0
LINE
8
0
10
0.185583791486
20
0.0409002914158
30
0.0
11
0.186484016004
21
0.0413979380838
31
0.0
0
LINE
8
0
10
0.186484016004
20
0.0413979380838
30
0.0
11
0.18743205356
21
0.0419458510018
31
0.0
0
LINE
8
0
10
0.18743205356
20
0.0419458510018
30
0.0
11
0.188426294421
21
0.0425460211696
31
0.0
0
LINE
8
0
10
0.188426294421
20
0.0425460211696
30
0.0
11
0.189465070568
21
0.043200396095
31
0.0
0
LINE
8
0
10
0.189465070568
20
0.043200396095
30
0.0
11
0.190546656779
21
0.0439108783005
31
0.0
0
LINE
8
0
10
0.190546656779
20
0.0439108783005
30
0.0
11
0.191669271742
21
0.0446793238547
31
0.0
0
LINE
8
0
10
0.191669271742
20
0.0446793238547
30
0.0
11
0.192831079211
21
0.0455075409306
31
0.0
0
LINE
8
0
10
0.192831079211
20
0.0455075409306
30
0.0
11
0.194030189184
21
0.046397288391
31
0.0
0
LINE
8
0
10
0.194030189184
20
0.046397288391
30
0.0
11
0.195264659132
21
0.0473502744008
31
0.0
0
LINE
8
0
10
0.195264659132
20
0.0473502744008
30
0.0
11
0.196532495244
21
0.04836815507
31
0.0
0
LINE
8
0
10
0.196532495244
20
0.04836815507
30
0.0
11
0.197831653716
21
0.0494525331242
31
0.0
0
LINE
8
0
10
0.197831653716
20
0.0494525331242
30
0.0
11
0.19916004207
21
0.0506049566064
31
0.0
0
LINE
8
0
10
0.19916004207
20
0.0506049566064
30
0.0
11
0.200515520499
21
0.0518269176095
31
0.0
0
LINE
8
0
10
0.200515520499
20
0.0518269176095
30
0.0
11
0.201895903245
21
0.0531198510406
31
0.0
0
LINE
8
0
10
0.201895903245
20
0.0531198510406
30
0.0
11
0.203298960016
21
0.0544851334172
31
0.0
0
LINE
8
0
10
0.203298960016
20
0.0544851334172
30
0.0
11
0.204722417413
21
0.055924081697
31
0.0
0
LINE
8
0
10
0.204722417413
20
0.055924081697
30
0.0
11
0.206163960406
21
0.0574379521412
31
0.0
0
LINE
8
0
10
0.206163960406
20
0.0574379521412
30
0.0
11
0.207621233821
21
0.0590279392122
31
0.0
0
LINE
8
0
10
0.207621233821
20
0.0590279392122
30
0.0
11
0.209091843863
21
0.0606951745061
31
0.0
0
LINE
8
0
10
0.209091843863
20
0.0606951745061
30
0.0
11
0.210573359664
21
0.0624407257209
31
0.0
0
LINE
8
0
10
0.210573359664
20
0.0624407257209
30
0.0
11
0.212063314853
21
0.0642655956616
31
0.0
0
LINE
8
0
10
0.212063314853
20
0.0642655956616
30
0.0
11
0.213559209153
21
0.0661707212808
31
0.0
0
LINE
8
0
10
0.213559209153
20
0.0661707212808
30
0.0
11
0.215058509999
21
0.068156972758
31
0.0
0
LINE
8
0
10
0.215058509999
20
0.068156972758
30
0.0
11
0.216558654183
21
0.0702251526158
31
0.0
0
LINE
8
0
10
0.216558654183
20
0.0702251526158
30
0.0
11
0.218057049514
21
0.0723759948751
31
0.0
0
LINE
8
0
10
0.218057049514
20
0.0723759948751
30
0.0
11
0.21955107651
21
0.0746101642494
31
0.0
0
LINE
8
0
10
0.21955107651
20
0.0746101642494
30
0.0
11
0.221038090094
21
0.0769282553776
31
0.0
0
LINE
8
0
10
0.221038090094
20
0.0769282553776
30
0.0
11
0.222515421326
21
0.0793307920981
31
0.0
0
LINE
8
0
10
0.222515421326
20
0.0793307920981
30
0.0
11
0.223980379141
21
0.0818182267619
31
0.0
0
LINE
8
0
10
0.223980379141
20
0.0818182267619
30
0.0
11
0.225430252112
21
0.0843909395876
31
0.0
0
LINE
8
0
10
0.225430252112
20
0.0843909395876
30
0.0
11
0.226862310223
21
0.0870492380567
31
0.0
0
LINE
8
0
10
0.226862310223
20
0.0870492380567
30
0.0
11
0.228273806663
21
0.0897933563511
31
0.0
0
LINE
8
0
10
0.228273806663
20
0.0897933563511
30
0.0
11
0.229661979631
21
0.0926234548324
31
0.0
0
LINE
8
0
10
0.229661979631
20
0.0926234548324
30
0.0
11
0.231024054159
21
0.0955396195634
31
0.0
0
LINE
8
0
10
0.231024054159
20
0.0955396195634
30
0.0
11
0.2310241789
21
0.0955396711498
31
0.0
0
LINE
8
0
10
0.2310241789
20
0.0955396711498
30
0.0
11
0.229647535629
21
0.0988028814334
31
0.0
0
LINE
8
0
10
0.229647535629
20
0.0988028814334
30
0.0
11
0.228224802325
21
0.102046262077
31
0.0
0
LINE
8
0
10
0.228224802325
20
0.102046262077
30
0.0
11
0.226756264529
21
0.105269162136
31
0.0
0
LINE
8
0
10
0.226756264529
20
0.105269162136
30
0.0
11
0.225242216976
21
0.108470934779
31
0.0
0
LINE
8
0
10
0.225242216976
20
0.108470934779
30
0.0
11
0.225242216976
21
0.108470934779
31
0.0
0
LINE
8
0
10
0.225242216976
20
0.108470934779
30
0.0
11
0.223682963533
21
0.111650937413
31
0.0
0
LINE
8
0
10
0.223682963533
20
0.111650937413
30
0.0
11
0.22207881714
21
0.114808531815
31
0.0
0
LINE
8
0
10
0.22207881714
20
0.114808531815
30
0.0
11
0.22043009975
21
0.117943084258
31
0.0
0
LINE
8
0
10
0.22043009975
20
0.117943084258
30
0.0
11
0.218737142257
21
0.121053965641
31
0.0
0
LINE
8
0
10
0.218737142257
20
0.121053965641
30
0.0
11
0.21873702415
21
0.121053900278
31
0.0
0
LINE
8
0
10
0.21873702415
20
0.121053900278
30
0.0
11
0.215607835178
21
0.121807186501
31
0.0
0
LINE
8
0
10
0.215607835178
20
0.121807186501
30
0.0
11
0.212529663397
21
0.122486406712
31
0.0
0
LINE
8
0
10
0.212529663397
20
0.122486406712
30
0.0
11
0.209504171688
21
0.12309378413
31
0.0
0
LINE
8
0
10
0.209504171688
20
0.12309378413
30
0.0
11
0.206532956627
21
0.123631578
31
0.0
0
LINE
8
0
10
0.206532956627
20
0.123631578
30
0.0
11
0.203617547733
21
0.124102081876
31
0.0
0
LINE
8
0
10
0.203617547733
20
0.124102081876
30
0.0
11
0.200759406744
21
0.124507621881
31
0.0
0
LINE
8
0
10
0.200759406744
20
0.124507621881
30
0.0
11
0.197959926941
21
0.124850554957
31
0.0
0
LINE
8
0
10
0.197959926941
20
0.124850554957
30
0.0
11
0.195220432513
21
0.125133267101
31
0.0
0
LINE
8
0
10
0.195220432513
20
0.125133267101
30
0.0
11
0.192542177964
21
0.12535817158
31
0.0
0
LINE
8
0
10
0.192542177964
20
0.12535817158
30
0.0
11
0.189926347563
21
0.125527707151
31
0.0
0
LINE
8
0
10
0.189926347563
20
0.125527707151
30
0.0
11
0.187374054839
21
0.12564433625
31
0.0
0
LINE
8
0
10
0.187374054839
20
0.12564433625
30
0.0
11
0.184886342115
21
0.125710543187
31
0.0
0
LINE
8
0
10
0.184886342115
20
0.125710543187
30
0.0
11
0.182464180087
21
0.125728832324
31
0.0
0
LINE
8
0
10
0.182464180087
20
0.125728832324
30
0.0
11
0.180108467451
21
0.125701726247
31
0.0
0
LINE
8
0
10
0.180108467451
20
0.125701726247
30
0.0
11
0.177820030563
21
0.125631763933
31
0.0
0
LINE
8
0
10
0.177820030563
20
0.125631763933
30
0.0
11
0.175599623158
21
0.125521498906
31
0.0
0
LINE
8
0
10
0.175599623158
20
0.125521498906
30
0.0
11
0.173447926097
21
0.125373497396
31
0.0
0
LINE
8
0
10
0.173447926097
20
0.125373497396
30
0.0
11
0.171365547168
21
0.125190336484
31
0.0
0
LINE
8
0
10
0.171365547168
20
0.125190336484
30
0.0
11
0.16935302093
21
0.124974602255
31
0.0
0
LINE
8
0
10
0.16935302093
20
0.124974602255
30
0.0
11
0.167410808598
21
0.124728887938
31
0.0
0
LINE
8
0
10
0.167410808598
20
0.124728887938
30
0.0
11
0.165539297972
21
0.124455792058
31
0.0
0
LINE
8
0
10
0.165539297972
20
0.124455792058
30
0.0
11
0.163738803412
21
0.124157916573
31
0.0
0
LINE
8
0
10
0.163738803412
20
0.124157916573
30
0.0
11
0.162009565861
21
0.123837865025
31
0.0
0
LINE
8
0
10
0.162009565861
20
0.123837865025
30
0.0
11
0.160351752901
21
0.123498240689
31
0.0
0
LINE
8
0
10
0.160351752901
20
0.123498240689
30
0.0
11
0.158765458862
21
0.123141644719
31
0.0
0
LINE
8
0
10
0.158765458862
20
0.123141644719
30
0.0
11
0.157250704974
21
0.122770674308
31
0.0
0
LINE
8
0
10
0.157250704974
20
0.122770674308
30
0.0
11
0.155807439558
21
0.122387920847
31
0.0
0
LINE
8
0
10
0.155807439558
20
0.122387920847
30
0.0
11
0.154435538266
21
0.121995968093
31
0.0
0
LINE
8
0
10
0.154435538266
20
0.121995968093
30
0.0
11
0.153134804358
21
0.121597390338
31
0.0
0
LINE
8
0
10
0.153134804358
20
0.121597390338
30
0.0
11
0.15190496903
21
0.121194750596
31
0.0
0
LINE
8
0
10
0.15190496903
20
0.121194750596
30
0.0
11
0.150745691778
21
0.120790598794
31
0.0
0
LINE
8
0
10
0.150745691778
20
0.120790598794
30
0.0
11
0.149656560808
21
0.120387469967
31
0.0
0
LINE
8
0
10
0.149656560808
20
0.120387469967
30
0.0
11
0.148637093491
21
0.119987882476
31
0.0
0
LINE
8
0
10
0.148637093491
20
0.119987882476
30
0.0
11
0.147686736853
21
0.119594336229
31
0.0
0
LINE
8
0
10
0.147686736853
20
0.119594336229
30
0.0
11
0.146804868112
21
0.119209310918
31
0.0
0
LINE
8
0
10
0.146804868112
20
0.119209310918
30
0.0
11
0.145990795258
21
0.118835264272
31
0.0
0
LINE
8
0
10
0.145990795258
20
0.118835264272
30
0.0
11
0.14524375767
21
0.118474630319
31
0.0
0
LINE
8
0
10
0.14524375767
20
0.118474630319
30
0.0
11
0.144562926779
21
0.118129817668
31
0.0
0
LINE
8
0
10
0.144562926779
20
0.118129817668
30
0.0
11
0.143947406761
21
0.117803207812
31
0.0
0
LINE
8
0
10
0.143947406761
20
0.117803207812
30
0.0
11
0.143396235288
21
0.117497153435
31
0.0
0
LINE
8
0
10
0.143396235288
20
0.117497153435
30
0.0
11
0.142908384298
21
0.117213976753
31
0.0
0
LINE
8
0
10
0.142908384298
20
0.117213976753
30
0.0
11
0.142482760822
21
0.116955967867
31
0.0
0
LINE
8
0
10
0.142482760822
20
0.116955967867
30
0.0
11
0.142118207838
21
0.116725383131
31
0.0
0
LINE
8
0
10
0.142118207838
20
0.116725383131
30
0.0
11
0.141813505171
21
0.116524443554
31
0.0
0
LINE
8
0
10
0.141813505171
20
0.116524443554
30
0.0
11
0.141567370422
21
0.116355333215
31
0.0
0
LINE
8
0
10
0.141567370422
20
0.116355333215
30
0.0
11
0.141378459945
21
0.1162201977
31
0.0
0
LINE
8
0
10
0.141378459945
20
0.1162201977
30
0.0
11
0.141245369855
21
0.11612114257
31
0.0
0
LINE
8
0
10
0.141245369855
20
0.11612114257
30
0.0
11
0.141166637069
21
0.116060231847
31
0.0
0
LINE
8
0
10
0.141166637069
20
0.116060231847
30
0.0
11
0.141140740389
21
0.116039486528
31
0.0
0
LINE
8
0
10
0.141140740389
20
0.116039486528
30
0.0
11
0.141140921925
21
0.116039635779
31
0.0
0
LINE
8
0
10
0.141140921925
20
0.116039635779
30
0.0
11
0.140038911936
21
0.114269507556
31
0.0
0
LINE
8
0
10
0.140038911936
20
0.114269507556
30
0.0
11
0.13891552849
21
0.112552867979
31
0.0
0
LINE
8
0
10
0.13891552849
20
0.112552867979
30
0.0
11
0.137772051641
21
0.110889961214
31
0.0
0
LINE
8
0
10
0.137772051641
20
0.110889961214
30
0.0
11
0.136609763987
21
0.109281006096
31
0.0
0
LINE
8
0
10
0.136609763987
20
0.109281006096
30
0.0
11
0.135429950215
21
0.107726196101
31
0.0
0
LINE
8
0
10
0.135429950215
20
0.107726196101
30
0.0
11
0.134233896637
21
0.106225699338
31
0.0
0
LINE
8
0
10
0.134233896637
20
0.106225699338
30
0.0
11
0.13302289074
21
0.104779658537
31
0.0
0
LINE
8
0
10
0.13302289074
20
0.104779658537
30
0.0
11
0.131798220719
21
0.103388191056
31
0.0
0
LINE
8
0
10
0.131798220719
20
0.103388191056
30
0.0
11
0.130561175027
21
0.102051388886
31
0.0
0
LINE
8
0
10
0.130561175027
20
0.102051388886
30
0.0
11
0.129313041915
21
0.100769318671
31
0.0
0
LINE
8
0
10
0.129313041915
20
0.100769318671
30
0.0
11
0.128055108971
21
0.0995420217324
31
0.0
0
LINE
8
0
10
0.128055108971
20
0.0995420217324
30
0.0
11
0.126788662673
21
0.0983695141012
31
0.0
0
LINE
8
0
10
0.126788662673
20
0.0983695141012
30
0.0
11
0.125514987923
21
0.0972517865595
31
0.0
0
LINE
8
0
10
0.125514987923
20
0.0972517865595
30
0.0
11
0.124235367603
21
0.0961888046888
31
0.0
0
LINE
8
0
10
0.124235367603
20
0.0961888046888
30
0.0
11
0.122951082115
21
0.0951805089259
31
0.0
0
LINE
8
0
10
0.122951082115
20
0.0951805089259
30
0.0
11
0.121663408929
21
0.0942268146275
31
0.0
0
LINE
8
0
10
0.121663408929
20
0.0942268146275
30
0.0
11
0.120373622139
21
0.0933276121413
31
0.0
0
LINE
8
0
10
0.120373622139
20
0.0933276121413
30
0.0
11
0.119082992003
21
0.0924827668859
31
0.0
0
LINE
8
0
10
0.119082992003
20
0.0924827668859
30
0.0
11
0.117792784507
21
0.0916921194377
31
0.0
0
LINE
8
0
10
0.117792784507
20
0.0916921194377
30
0.0
11
0.11650426091
21
0.0909554856254
31
0.0
0
LINE
8
0
10
0.11650426091
20
0.0909554856254
30
0.0
11
0.115218677303
21
0.0902726566328
31
0.0
0
LINE
8
0
10
0.115218677303
20
0.0902726566328
30
0.0
11
0.11393728417
21
0.0896433991082
31
0.0
0
LINE
8
0
10
0.11393728417
20
0.0896433991082
30
0.0
11
0.112661325941
21
0.0890674552822
31
0.0
0
LINE
8
0
10
0.112661325941
20
0.0890674552822
30
0.0
11
0.111392040561
21
0.0885445430926
31
0.0
0
LINE
8
0
10
0.111392040561
20
0.0885445430926
30
0.0
11
0.11013065905
21
0.0880743563166
31
0.0
0
LINE
8
0
10
0.11013065905
20
0.0880743563166
30
0.0
11
0.108878405072
21
0.087656564711
31
0.0
0
LINE
8
0
10
0.108878405072
20
0.087656564711
30
0.0
11
0.107636494503
21
0.0872908141591
31
0.0
0
LINE
8
0
10
0.107636494503
20
0.0872908141591
30
0.0
11
0.106406135005
21
0.0869767268253
31
0.0
0
LINE
8
0
10
0.106406135005
20
0.0869767268253
30
0.0
11
0.1051885256
21
0.0867139013171
31
0.0
0
LINE
8
0
10
0.1051885256
20
0.0867139013171
30
0.0
11
0.103984856247
21
0.0865019128542
31
0.0
0
LINE
8
0
10
0.103984856247
20
0.0865019128542
30
0.0
11
0.102796307423
21
0.0863403134445
31
0.0
0
LINE
8
0
10
0.102796307423
20
0.0863403134445
30
0.0
11
0.101624049712
21
0.0862286320679
31
0.0
0
LINE
8
0
10
0.101624049712
20
0.0862286320679
30
0.0
11
0.100469243384
21
0.0861663748664
31
0.0
0
LINE
8
0
10
0.100469243384
20
0.0861663748664
30
0.0
11
0.0993330379918
21
0.0861530253419
31
0.0
0
LINE
8
0
10
0.0993330379918
20
0.0861530253419
30
0.0
11
0.0982165719652
21
0.0861880445605
31
0.0
0
LINE
8
0
10
0.0982165719652
20
0.0861880445605
30
0.0
11
0.0971209722066
21
0.0862708713642
31
0.0
0
LINE
8
0
10
0.0971209722066
20
0.0862708713642
30
0.0
11
0.0960473536942
21
0.0864009225887
31
0.0
0
LINE
8
0
10
0.0960473536942
20
0.0864009225887
30
0.0
11
0.0949968190872
21
0.0865775932888
31
0.0
0
LINE
8
0
10
0.0949968190872
20
0.0865775932888
30
0.0
11
0.0939704583358
21
0.0868002569699
31
0.0
0
LINE
8
0
10
0.0939704583358
20
0.0868002569699
30
0.0
11
0.0929693482949
21
0.0870682658265
31
0.0
0
LINE
8
0
10
0.0929693482949
20
0.0870682658265
30
0.0
11
0.0919945523415
21
0.0873809509871
31
0.0
0
LINE
8
0
10
0.0919945523415
20
0.0873809509871
30
0.0
11
0.0910471199976
21
0.0877376227658
31
0.0
0
LINE
8
0
10
0.0910471199976
20
0.0877376227658
30
0.0
11
0.0901280865563
21
0.0881375709199
31
0.0
0
LINE
8
0
10
0.0901280865563
20
0.0881375709199
30
0.0
11
0.0892384727133
21
0.0885800649145
31
0.0
0
LINE
8
0
10
0.0892384727133
20
0.0885800649145
30
0.0
11
0.0883792842026
21
0.089064354193
31
0.0
0
LINE
8
0
10
0.0883792842026
20
0.089064354193
30
0.0
11
0.0875515114369
21
0.0895896684535
31
0.0
0
LINE
8
0
10
0.0875515114369
20
0.0895896684535
30
0.0
11
0.0867561291529
21
0.0901552179322
31
0.0
0
LINE
8
0
10
0.0867561291529
20
0.0901552179322
30
0.0
11
0.0859940960621
21
0.0907601936918
31
0.0
0
LINE
8
0
10
0.0859940960621
20
0.0907601936918
30
0.0
11
0.0852663545052
21
0.0914037679168
31
0.0
0
LINE
8
0
10
0.0852663545052
20
0.0914037679168
30
0.0
11
0.0852663545052
21
0.0914037679168
31
0.0
0
LINE
8
0
10
0.0852663545052
20
0.0914037679168
30
0.0
11
0.0834801113378
21
0.0930380084215
31
0.0
0
LINE
8
0
10
0.0834801113378
20
0.0930380084215
30
0.0
11
0.0816625522739
21
0.0946373475755
31
0.0
0
LINE
8
0
10
0.0816625522739
20
0.0946373475755
30
0.0
11
0.0798143591345
21
0.0962011854186
31
0.0
0
LINE
8
0
10
0.0798143591345
20
0.0962011854186
30
0.0
11
0.0779362252323
21
0.0977289353085
31
0.0
0
LINE
8
0
10
0.0779362252323
20
0.0977289353085
30
0.0
11
0.0779362252323
21
0.0977289353085
31
0.0
0
LINE
8
0
10
0.0779362252323
20
0.0977289353085
30
0.0
11
0.0760288551119
21
0.0992200241402
31
0.0
0
LINE
8
0
10
0.0760288551119
20
0.0992200241402
30
0.0
11
0.0740929642849
21
0.100673892561
31
0.0
0
LINE
8
0
10
0.0740929642849
20
0.100673892561
30
0.0
11
0.0721292789622
21
0.102089995183
31
0.0
0
LINE
8
0
10
0.0721292789622
20
0.102089995183
30
0.0
11
0.0701385357811
21
0.103467800781
31
0.0
0
LINE
8
0
10
0.0701385357811
20
0.103467800781
30
0.0
11
0.0701385357811
21
0.103467800781
31
0.0
0
LINE
8
0
10
0.0701385357811
20
0.103467800781
30
0.0
11
0.0693491595747
21
0.1040340876
31
0.0
0
LINE
8
0
10
0.0693491595747
20
0.1040340876
30
0.0
11
0.0685897835054
21
0.104642395159
31
0.0
0
LINE
8
0
10
0.0685897835054
20
0.104642395159
30
0.0
11
0.0678614243242
21
0.105291988951
31
0.0
0
LINE
8
0
10
0.0678614243242
20
0.105291988951
30
0.0
11
0.0671650840201
21
0.105982114305
31
0.0
0
LINE
8
0
10
0.0671650840201
20
0.105982114305
30
0.0
11
0.0665017494551
21
0.106711996663
31
0.0
0
LINE
8
0
10
0.0665017494551
20
0.106711996663
30
0.0
11
0.0658723920055
21
0.107480841853
31
0.0
0
LINE
8
0
10
0.0658723920055
20
0.107480841853
30
0.0
11
0.0652779672069
21
0.10828783637
31
0.0
0
LINE
8
0
10
0.0652779672069
20
0.10828783637
30
0.0
11
0.0647194144044
21
0.10913214767
31
0.0
0
LINE
8
0
10
0.0647194144044
20
0.10913214767
30
0.0
11
0.0641976564076
21
0.11001292446
31
0.0
0
LINE
8
0
10
0.0641976564076
20
0.11001292446
30
0.0
11
0.0637135991513
21
0.110929297001
31
0.0
0
LINE
8
0
10
0.0637135991513
20
0.110929297001
30
0.0
11
0.0632681313606
21
0.111880377415
31
0.0
0
LINE
8
0
10
0.0632681313606
20
0.111880377415
30
0.0
11
0.0628621242219
21
0.112865259997
31
0.0
0
LINE
8
0
10
0.0628621242219
20
0.112865259997
30
0.0
11
0.062496431059
21
0.113883021532
31
0.0
0
LINE
8
0
10
0.062496431059
20
0.113883021532
30
0.0
11
0.0621718870147
21
0.114932721619
31
0.0
0
LINE
8
0
10
0.0621718870147
20
0.114932721619
30
0.0
11
0.061889308738
21
0.116013403002
31
0.0
0
LINE
8
0
10
0.061889308738
20
0.116013403002
30
0.0
11
0.0616494940772
21
0.117124091901
31
0.0
0
LINE
8
0
10
0.0616494940772
20
0.117124091901
30
0.0
11
0.061453221778
21
0.118263798355
31
0.0
0
LINE
8
0
10
0.061453221778
20
0.118263798355
30
0.0
11
0.0613012511885
21
0.119431516562
31
0.0
0
LINE
8
0
10
0.0613012511885
20
0.119431516562
30
0.0
11
0.0611943219694
21
0.120626225236
31
0.0
0
LINE
8
0
10
0.0611943219694
20
0.120626225236
30
0.0
11
0.0611331538102
21
0.121846887957
31
0.0
0
LINE
8
0
10
0.0611331538102
20
0.121846887957
30
0.0
11
0.0611184461521
21
0.12309245353
31
0.0
0
LINE
8
0
10
0.0611184461521
20
0.12309245353
30
0.0
11
0.0611508779162
21
0.124361856353
31
0.0
0
LINE
8
0
10
0.0611508779162
20
0.124361856353
30
0.0
11
0.0612311072385
21
0.125654016785
31
0.0
0
LINE
8
0
10
0.0612311072385
20
0.125654016785
30
0.0
11
0.0613597712115
21
0.12696784152
31
0.0
0
LINE
8
0
10
0.0613597712115
20
0.12696784152
30
0.0
11
0.0615374856315
21
0.128302223963
31
0.0
0
LINE
8
0
10
0.0615374856315
20
0.128302223963
30
0.0
11
0.0617648447525
21
0.129656044618
31
0.0
0
LINE
8
0
10
0.0617648447525
20
0.129656044618
30
0.0
11
0.0620424210475
21
0.131028171468
31
0.0
0
LINE
8
0
10
0.0620424210475
20
0.131028171468
30
0.0
11
0.0623707649754
21
0.132417460372
31
0.0
0
LINE
8
0
10
0.0623707649754
20
0.132417460372
30
0.0
11
0.0627504047547
21
0.133822755459
31
0.0
0
LINE
8
0
10
0.0627504047547
20
0.133822755459
30
0.0
11
0.0631818461451
21
0.135242889523
31
0.0
0
LINE
8
0
10
0.0631818461451
20
0.135242889523
30
0.0
11
0.063665572234
21
0.136676684432
31
0.0
0
LINE
8
0
10
0.063665572234
20
0.136676684432
30
0.0
11
0.0642020432318
21
0.138122951531
31
0.0
0
LINE
8
0
10
0.0642020432318
20
0.138122951531
30
0.0
11
0.064791696273
21
0.139580492051
31
0.0
0
LINE
8
0
10
0.064791696273
20
0.139580492051
30
0.0
11
0.0654349452244
21
0.141048097527
31
0.0
0
LINE
8
0
10
0.0654349452244
20
0.141048097527
30
0.0
11
0.066132180501
21
0.142524550212
31
0.0
0
LINE
8
0
10
0.066132180501
20
0.142524550212
30
0.0
11
0.0668837688882
21
0.144008623498
31
0.0
0
LINE
8
0
10
0.0668837688882
20
0.144008623498
30
0.0
11
0.067690053372
21
0.145499082338
31
0.0
0
LINE
8
0
10
0.067690053372
20
0.145499082338
30
0.0
11
0.0685513529757
21
0.146994683678
31
0.0
0
LINE
8
0
10
0.0685513529757
20
0.146994683678
30
0.0
11
0.0694679626044
21
0.148494176877
31
0.0
0
LINE
8
0
10
0.0694679626044
20
0.148494176877
30
0.0
11
0.0704401528963
21
0.149996304148
31
0.0
0
LINE
8
0
10
0.0704401528963
20
0.149996304148
30
0.0
11
0.0714681700823
21
0.151499800989
31
0.0
0
LINE
8
0
10
0.0714681700823
20
0.151499800989
30
0.0
11
0.0725522358519
21
0.153003396618
31
0.0
0
LINE
8
0
10
0.0725522358519
20
0.153003396618
30
0.0
11
0.0736925472273
21
0.154505814419
31
0.0
0
LINE
8
0
10
0.0736925472273
20
0.154505814419
30
0.0
11
0.074889276445
21
0.156005772378
31
0.0
0
LINE
8
0
10
0.074889276445
20
0.156005772378
30
0.0
11
0.0761425708443
21
0.157501983528
31
0.0
0
LINE
8
0
10
0.0761425708443
20
0.157501983528
30
0.0
11
0.0774525527644
21
0.158993156399
31
0.0
0
LINE
8
0
10
0.0774525527644
20
0.158993156399
30
0.0
11
0.078819319448
21
0.160477995462
31
0.0
0
LINE
8
0
10
0.078819319448
20
0.160477995462
30
0.0
11
0.0802429429535
21
0.161955201582
31
0.0
0
LINE
8
0
10
0.0802429429535
20
0.161955201582
30
0.0
11
0.0817234700743
21
0.163423472465
31
0.0
0
LINE
8
0
10
0.0817234700743
20
0.163423472465
30
0.0
11
0.0817233649611
21
0.163423262269
31
0.0
0
LINE
8
0
10
0.0817233649611
20
0.163423262269
30
0.0
11
0.081737827598
21
0.163453125933
31
0.0
0
LINE
8
0
10
0.081737827598
20
0.163453125933
30
0.0
11
0.0817796914689
21
0.163543438635
31
0.0
0
LINE
8
0
10
0.0817796914689
20
0.163543438635
30
0.0
11
0.0818466477487
21
0.163695233719
31
0.0
0
LINE
8
0
10
0.0818466477487
20
0.163695233719
30
0.0
11
0.0819363585984
21
0.163909478296
31
0.0
0
LINE
8
0
10
0.0819363585984
20
0.163909478296
30
0.0
11
0.0820464588542
21
0.164187072524
31
0.0
0
LINE
8
0
10
0.0820464588542
20
0.164187072524
30
0.0
11
0.0821745577338
21
0.164528848922
31
0.0
0
LINE
8
0
10
0.0821745577338
20
0.164528848922
30
0.0
11
0.0823182405587
21
0.164935571732
31
0.0
0
LINE
8
0
10
0.0823182405587
20
0.164935571732
30
0.0
11
0.0824750704906
21
0.165407936317
31
0.0
0
LINE
8
0
10
0.0824750704906
20
0.165407936317
30
0.0
11
0.0826425902835
21
0.165946568603
31
0.0
0
LINE
8
0
10
0.0826425902835
20
0.165946568603
30
0.0
11
0.0828183240471
21
0.166552024563
31
0.0
0
LINE
8
0
10
0.0828183240471
20
0.166552024563
30
0.0
11
0.0829997790236
21
0.167224789739
31
0.0
0
LINE
8
0
10
0.0829997790236
20
0.167224789739
30
0.0
11
0.0831844473748
21
0.167965278812
31
0.0
0
LINE
8
0
10
0.0831844473748
20
0.167965278812
30
0.0
11
0.0833698079804
21
0.168773835211
31
0.0
0
LINE
8
0
10
0.0833698079804
20
0.168773835211
30
0.0
11
0.0835533282445
21
0.169650730768
31
0.0
0
LINE
8
0
10
0.0835533282445
20
0.169650730768
30
0.0
11
0.0837324659107
21
0.17059616541
31
0.0
0
LINE
8
0
10
0.0837324659107
20
0.17059616541
30
0.0
11
0.0839046708849
21
0.171610266902
31
0.0
0
LINE
8
0
10
0.0839046708849
20
0.171610266902
30
0.0
11
0.0840673870639
21
0.172693090627
31
0.0
0
LINE
8
0
10
0.0840673870639
20
0.172693090627
30
0.0
11
0.0842180541692
21
0.173844619412
31
0.0
0
LINE
8
0
10
0.0842180541692
20
0.173844619412
30
0.0
11
0.0843541095853
21
0.175064763399
31
0.0
0
LINE
8
0
10
0.0843541095853
20
0.175064763399
30
0.0
11
0.0844729902017
21
0.17635335996
31
0.0
0
LINE
8
0
10
0.0844729902017
20
0.17635335996
30
0.0
11
0.0845721342561
21
0.177710173647
31
0.0
0
LINE
8
0
10
0.0845721342561
20
0.177710173647
30
0.0
11
0.0846489831799
21
0.179134896203
31
0.0
0
LINE
8
0
10
0.0846489831799
20
0.179134896203
30
0.0
11
0.0847009834438
21
0.180627146599
31
0.0
0
LINE
8
0
10
0.0847009834438
20
0.180627146599
30
0.0
11
0.0847255884021
21
0.182186471127
31
0.0
0
LINE
8
0
10
0.0847255884021
20
0.182186471127
30
0.0
11
0.0847202601357
21
0.18381234353
31
0.0
0
LINE
8
0
10
0.0847202601357
20
0.18381234353
30
0.0
11
0.0846824712928
21
0.185504165183
31
0.0
0
LINE
8
0
10
0.0846824712928
20
0.185504165183
30
0.0
11
0.0846097069248
21
0.187261265308
31
0.0
0
LINE
8
0
10
0.0846097069248
20
0.187261265308
30
0.0
11
0.0844994663188
21
0.189082901241
31
0.0
0
LINE
8
0
10
0.0844994663188
20
0.189082901241
30
0.0
11
0.084349264823
21
0.190968258739
31
0.0
0
LINE
8
0
10
0.084349264823
20
0.190968258739
30
0.0
11
0.0841566356664
21
0.192916452332
31
0.0
0
LINE
8
0
10
0.0841566356664
20
0.192916452332
30
0.0
11
0.0839191317704
21
0.194926525717
31
0.0
0
LINE
8
0
10
0.0839191317704
20
0.194926525717
30
0.0
11
0.0836343275516
21
0.196997452196
31
0.0
0
LINE
8
0
10
0.0836343275516
20
0.196997452196
30
0.0
11
0.0832998207153
21
0.199128135154
31
0.0
0
LINE
8
0
10
0.0832998207153
20
0.199128135154
30
0.0
11
0.0829132340377
21
0.201317408586
31
0.0
0
LINE
8
0
10
0.0829132340377
20
0.201317408586
30
0.0
11
0.0824722171371
21
0.203564037662
31
0.0
0
LINE
8
0
10
0.0824722171371
20
0.203564037662
30
0.0
11
0.0819744482317
21
0.205866719334
31
0.0
0
LINE
8
0
10
0.0819744482317
20
0.205866719334
30
0.0
11
0.0814176358851
21
0.208224082987
31
0.0
0
LINE
8
0
10
0.0814176358851
20
0.208224082987
30
0.0
11
0.0807995207356
21
0.21063469113
31
0.0
0
LINE
8
0
10
0.0807995207356
20
0.21063469113
30
0.0
11
0.0801178772111
21
0.213097040131
31
0.0
0
LINE
8
0
10
0.0801178772111
20
0.213097040131
30
0.0
11
0.0793705152273
21
0.215609560989
31
0.0
0
LINE
8
0
10
0.0793705152273
20
0.215609560989
30
0.0
11
0.0785552818687
21
0.21817062015
31
0.0
0
LINE
8
0
10
0.0785552818687
20
0.21817062015
30
0.0
11
0.0776700630503
21
0.220778520363
31
0.0
0
LINE
8
0
10
0.0776700630503
20
0.220778520363
30
0.0
11
0.0767127851616
21
0.223431501574
31
0.0
0
LINE
8
0
10
0.0767127851616
20
0.223431501574
30
0.0
11
0.0756814166889
21
0.22612774186
31
0.0
0
LINE
8
0
10
0.0756814166889
20
0.22612774186
30
0.0
11
0.0745739698177
21
0.228865358404
31
0.0
0
LINE
8
0
10
0.0745739698177
20
0.228865358404
30
0.0
11
0.0733885020125
21
0.231642408506
31
0.0
0
LINE
8
0
10
0.0733885020125
20
0.231642408506
30
0.0
11
0.0721231175739
21
0.234456890631
31
0.0
0
LINE
8
0
10
0.0721231175739
20
0.234456890631
30
0.0
11
0.0707759691719
21
0.237306745503
31
0.0
0
LINE
8
0
10
0.0707759691719
20
0.237306745503
30
0.0
11
0.0693452593548
21
0.240189857221
31
0.0
0
LINE
8
0
10
0.0693452593548
20
0.240189857221
30
0.0
11
0.0693452967976
21
0.24018998691
31
0.0
0
LINE
8
0
10
0.0693452967976
20
0.24018998691
30
0.0
11
0.0659356932234
21
0.241148262194
31
0.0
0
LINE
8
0
10
0.0659356932234
20
0.241148262194
30
0.0
11
0.062512856421
21
0.24205813926
31
0.0
0
LINE
8
0
10
0.062512856421
20
0.24205813926
30
0.0
11
0.0590774733502
21
0.242919435498
31
0.0
0
LINE
8
0
10
0.0590774733502
20
0.242919435498
30
0.0
11
0.0556302334891
21
0.243731978045
31
0.0
0
LINE
8
0
10
0.0556302334891
20
0.243731978045
30
0.0
11
0.0556302334891
21
0.243731978045
31
0.0
0
LINE
8
0
10
0.0556302334891
20
0.243731978045
30
0.0
11
0.0521718286952
21
0.244495603827
31
0.0
0
LINE
8
0
10
0.0521718286952
20
0.244495603827
30
0.0
11
0.0487029530671
21
0.245210159583
31
0.0
0
LINE
8
0
10
0.0487029530671
20
0.245210159583
30
0.0
11
0.0452243028045
21
0.245875501903
31
0.0
0
LINE
8
0
10
0.0452243028045
20
0.245875501903
30
0.0
11
0.0417365760692
21
0.246491497253
31
0.0
0
LINE
8
0
10
0.0417365760692
20
0.246491497253
30
0.0
11
0.0417365535337
21
0.246491364161
31
0.0
0
LINE
8
0
10
0.0417365535337
20
0.246491364161
30
0.0
11
0.039196593237
21
0.244514531985
31
0.0
0
LINE
8
0
10
0.039196593237
20
0.244514531985
30
0.0
11
0.0367463487788
21
0.242531407254
31
0.0
0
LINE
8
0
10
0.0367463487788
20
0.242531407254
30
0.0
11
0.0343851187653
21
0.240544676211
31
0.0
0
LINE
8
0
10
0.0343851187653
20
0.240544676211
30
0.0
11
0.0321121322972
21
0.238556995729
31
0.0
0
LINE
8
0
10
0.0321121322972
20
0.238556995729
30
0.0
11
0.029926549841
21
0.23657099164
31
0.0
0
LINE
8
0
10
0.029926549841
20
0.23657099164
30
0.0
11
0.0278274641388
21
0.234589257091
31
0.0
0
LINE
8
0
10
0.0278274641388
20
0.234589257091
30
0.0
11
0.0258139011555
21
0.232614350922
31
0.0
0
LINE
8
0
10
0.0258139011555
20
0.232614350922
30
0.0
11
0.0238848210631
21
0.23064879607
31
0.0
0
LINE
8
0
10
0.0238848210631
20
0.23064879607
30
0.0
11
0.022039119262
21
0.228695077995
31
0.0
0
LINE
8
0
10
0.022039119262
20
0.228695077995
30
0.0
11
0.0202756274373
21
0.226755643135
31
0.0
0
LINE
8
0
10
0.0202756274373
20
0.226755643135
30
0.0
11
0.0185931146513
21
0.224832897384
31
0.0
0
LINE
8
0
10
0.0185931146513
20
0.224832897384
30
0.0
11
0.0169902884701
21
0.222929204607
31
0.0
0
LINE
8
0
10
0.0169902884701
20
0.222929204607
30
0.0
11
0.0154657961244
21
0.221046885168
31
0.0
0
LINE
8
0
10
0.0154657961244
20
0.221046885168
30
0.0
11
0.0140182257034
21
0.219188214503
31
0.0
0
LINE
8
0
10
0.0140182257034
20
0.219188214503
30
0.0
11
0.0126461073816
21
0.217355421709
31
0.0
0
LINE
8
0
10
0.0126461073816
20
0.217355421709
30
0.0
11
0.0113479146776
21
0.215550688177
31
0.0
0
LINE
8
0
10
0.0113479146776
20
0.215550688177
30
0.0
11
0.0101220657433
21
0.213776146241
31
0.0
0
LINE
8
0
10
0.0101220657433
20
0.213776146241
30
0.0
11
0.00896692468488
21
0.212033877876
31
0.0
0
LINE
8
0
10
0.00896692468488
20
0.212033877876
30
0.0
11
0.00788080291226
21
0.210325913412
31
0.0
0
LINE
8
0
10
0.00788080291226
20
0.210325913412
30
0.0
11
0.0068619605183
21
0.208654230294
31
0.0
0
LINE
8
0
10
0.0068619605183
20
0.208654230294
30
0.0
11
0.0059086076858
21
0.20702075187
31
0.0
0
LINE
8
0
10
0.0059086076858
20
0.20702075187
30
0.0
11
0.00501890612204
21
0.205427346213
31
0.0
0
LINE
8
0
10
0.00501890612204
20
0.205427346213
30
0.0
11
0.00419097051978
21
0.203875824979
31
0.0
0
LINE
8
0
10
0.00419097051978
20
0.203875824979
30
0.0
11
0.00342287004411
21
0.202367942304
31
0.0
0
LINE
8
0
10
0.00342287004411
20
0.202367942304
30
0.0
11
0.00271262984415
21
0.200905393733
31
0.0
0
LINE
8
0
10
0.00271262984415
20
0.200905393733
30
0.0
11
0.00205823258891
21
0.199489815187
31
0.0
0
LINE
8
0
10
0.00205823258891
20
0.199489815187
30
0.0
11
0.00145762002629
21
0.198122781968
31
0.0
0
LINE
8
0
10
0.00145762002629
20
0.198122781968
30
0.0
11
0.000908694564491
21
0.196805807802
31
0.0
0
LINE
8
0
10
0.000908694564491
20
0.196805807802
30
0.0
11
0.00040932087488
21
0.195540343917
31
0.0
0
LINE
8
0
10
0.00040932087488
20
0.195540343917
30
0.0
11
-4.26724845208e-05
21
0.194327778166
31
0.0
0
LINE
8
0
10
-4.26724845208e-05
20
0.194327778166
30
0.0
11
-0.000449491425879
21
0.193169434187
31
0.0
0
LINE
8
0
10
-0.000449491425879
20
0.193169434187
30
0.0
11
-0.000813374669595
21
0.192066570594
31
0.0
0
LINE
8
0
10
-0.000813374669595
20
0.192066570594
30
0.0
11
-0.00113659206448
21
0.191020380224
31
0.0
0
LINE
8
0
10
-0.00113659206448
20
0.191020380224
30
0.0
11
-0.00142144289096
21
0.190031989413
31
0.0
0
LINE
8
0
10
-0.00142144289096
20
0.190031989413
30
0.0
11
-0.00167025414831
21
0.189102457313
31
0.0
0
LINE
8
0
10
-0.00167025414831
20
0.189102457313
30
0.0
11
-0.0018853788268
21
0.188232775258
31
0.0
0
LINE
8
0
10
-0.0018853788268
20
0.188232775258
30
0.0
11
-0.00206919416566
21
0.187423866161
31
0.0
0
LINE
8
0
10
-0.00206919416566
20
0.187423866161
30
0.0
11
-0.00222409989796
21
0.186676583965
31
0.0
0
LINE
8
0
10
-0.00222409989796
20
0.186676583965
30
0.0
11
-0.00235251648324
21
0.185991713123
31
0.0
0
LINE
8
0
10
-0.00235251648324
20
0.185991713123
30
0.0
11
-0.00245688332889
21
0.185369968129
31
0.0
0
LINE
8
0
10
-0.00245688332889
20
0.185369968129
30
0.0
11
-0.00253965700124
21
0.184811993094
31
0.0
0
LINE
8
0
10
-0.00253965700124
20
0.184811993094
30
0.0
11
-0.00260330942747
21
0.184318361351
31
0.0
0
LINE
8
0
10
-0.00260330942747
20
0.184318361351
30
0.0
11
-0.00265032608904
21
0.18388957512
31
0.0
0
LINE
8
0
10
-0.00265032608904
20
0.18388957512
30
0.0
11
-0.00268320420794
21
0.183526065205
31
0.0
0
LINE
8
0
10
-0.00268320420794
20
0.183526065205
30
0.0
11
-0.00270445092655
21
0.183228190737
31
0.0
0
LINE
8
0
10
-0.00270445092655
20
0.183228190737
30
0.0
11
-0.00271658148213
21
0.182996238964
31
0.0
0
LINE
8
0
10
-0.00271658148213
20
0.182996238964
30
0.0
11
-0.00272211737702
21
0.182830425078
31
0.0
0
LINE
8
0
10
-0.00272211737702
20
0.182830425078
30
0.0
11
-0.00272358454547
21
0.182730892093
31
0.0
0
LINE
8
0
10
-0.00272358454547
20
0.182730892093
30
0.0
11
-0.0027235115181
21
0.182697710758
31
0.0
0
LINE
8
0
10
-0.0027235115181
20
0.182697710758
30
0.0
11
-0.0027235150211
21
0.182697945745
31
0.0
0
LINE
8
0
10
-0.0027235150211
20
0.182697945745
30
0.0
11
-0.00202666503813
21
0.180732702746
31
0.0
0
LINE
8
0
10
-0.00202666503813
20
0.180732702746
30
0.0
11
-0.00138496029463
21
0.178784098932
31
0.0
0
LINE
8
0
10
-0.00138496029463
20
0.178784098932
30
0.0
11
-0.000797793587781
21
0.176853287323
31
0.0
0
LINE
8
0
10
-0.000797793587781
20
0.176853287323
30
0.0
11
-0.000264536321221
21
0.174941407136
31
0.0
0
LINE
8
0
10
-0.000264536321221
20
0.174941407136
30
0.0
11
0.000215461226542
21
0.173049583409
31
0.0
0
LINE
8
0
10
0.000215461226542
20
0.173049583409
30
0.0
11
0.000642869627468
21
0.171178926638
31
0.0
0
LINE
8
0
10
0.000642869627468
20
0.171178926638
30
0.0
11
0.00101838002322
21
0.169330532409
31
0.0
0
LINE
8
0
10
0.00101838002322
20
0.169330532409
30
0.0
11
0.00134270383837
21
0.167505481047
31
0.0
0
LINE
8
0
10
0.00134270383837
20
0.167505481047
30
0.0
11
0.00161657248763
21
0.16570483726
31
0.0
0
LINE
8
0
10
0.00161657248763
20
0.16570483726
30
0.0
11
0.00184073707726
21
0.163929649794
31
0.0
0
LINE
8
0
10
0.00184073707726
20
0.163929649794
30
0.0
11
0.00201596810067
21
0.162180951091
31
0.0
0
LINE
8
0
10
0.00201596810067
20
0.162180951091
30
0.0
11
0.00214305512834
21
0.160459756953
31
0.0
0
LINE
8
0
10
0.00214305512834
20
0.160459756953
30
0.0
11
0.00222280649215
21
0.158767066213
31
0.0
0
LINE
8
0
10
0.00222280649215
20
0.158767066213
30
0.0
11
0.00225604896426
21
0.157103860405
31
0.0
0
LINE
8
0
10
0.00225604896426
20
0.157103860405
30
0.0
11
0.00224362743048
21
0.155471103452
31
0.0
0
LINE
8
0
10
0.00224362743048
20
0.155471103452
30
0.0
11
0.00218640455847
21
0.153869741347
31
0.0
0
LINE
8
0
10
0.00218640455847
20
0.153869741347
30
0.0
11
0.00208526046058
21
0.152300701849
31
0.0
0
LINE
8
0
10
0.00208526046058
20
0.152300701849
30
0.0
11
0.00194109235172
21
0.150764894176
31
0.0
0
LINE
8
0
10
0.00194109235172
20
0.150764894176
30
0.0
11
0.00175481420212
21
0.149263208715
31
0.0
0
LINE
8
0
10
0.00175481420212
20
0.149263208715
30
0.0
11
0.00152735638521
21
0.147796516731
31
0.0
0
LINE
8
0
10
0.00152735638521
20
0.147796516731
30
0.0
11
0.00125966532072
21
0.146365670081
31
0.0
0
LINE
8
0
10
0.00125966532072
20
0.146365670081
30
0.0
11
0.000952703113061
21
0.144971500939
31
0.0
0
LINE
8
0
10
0.000952703113061
20
0.144971500939
30
0.0
11
0.00060744718507
21
0.143614821523
31
0.0
0
LINE
8
0
10
0.00060744718507
20
0.143614821523
30
0.0
11
0.000224889907325
21
0.142296423835
31
0.0
0
LINE
8
0
10
0.000224889907325
20
0.142296423835
30
0.0
11
-0.000193961776958
21
0.141017079399
31
0.0
0
LINE
8
0
10
-0.000193961776958
20
0.141017079399
30
0.0
11
-0.000648086731294
21
0.139777539009
31
0.0
0
LINE
8
0
10
-0.000648086731294
20
0.139777539009
30
0.0
11
-0.00113645000946
21
0.138578532489
31
0.0
0
LINE
8
0
10
-0.00113645000946
20
0.138578532489
30
0.0
11
-0.00165800324311
21
0.137420768449
31
0.0
0
LINE
8
0
10
-0.00165800324311
20
0.137420768449
30
0.0
11
-0.00221168503324
21
0.136304934059
31
0.0
0
LINE
8
0
10
-0.00221168503324
20
0.136304934059
30
0.0
11
-0.00279642134562
21
0.135231694819
31
0.0
0
LINE
8
0
10
-0.00279642134562
20
0.135231694819
30
0.0
11
-0.00341112590982
21
0.134201694347
31
0.0
0
LINE
8
0
10
-0.00341112590982
20
0.134201694347
30
0.0
11
-0.0040547006219
21
0.133215554163
31
0.0
0
LINE
8
0
10
-0.0040547006219
20
0.133215554163
30
0.0
11
-0.00472603595055
21
0.132273873489
31
0.0
0
LINE
8
0
10
-0.00472603595055
20
0.132273873489
30
0.0
11
-0.00542401134663
21
0.131377229051
31
0.0
0
LINE
8
0
10
-0.00542401134663
20
0.131377229051
30
0.0
11
-0.00614749565591
21
0.130526174888
31
0.0
0
LINE
8
0
10
-0.00614749565591
20
0.130526174888
30
0.0
11
-0.00689534753501
21
0.129721242172
31
0.0
0
LINE
8
0
10
-0.00689534753501
20
0.129721242172
30
0.0
11
-0.00766641587028
21
0.128962939031
31
0.0
0
LINE
8
0
10
-0.00766641587028
20
0.128962939031
30
0.0
11
-0.0084595401996
21
0.128251750382
31
0.0
0
LINE
8
0
10
-0.0084595401996
20
0.128251750382
30
0.0
11
-0.00927355113697
21
0.127588137768
31
0.0
0
LINE
8
0
10
-0.00927355113697
20
0.127588137768
30
0.0
11
-0.0101072707997
21
0.12697253921
31
0.0
0
LINE
8
0
10
-0.0101072707997
20
0.12697253921
30
0.0
11
-0.0109595132382
21
0.126405369053
31
0.0
0
LINE
8
0
10
-0.0109595132382
20
0.126405369053
30
0.0
11
-0.0118290848681
21
0.125887017836
31
0.0
0
LINE
8
0
10
-0.0118290848681
20
0.125887017836
30
0.0
11
-0.0127147849045
21
0.125417852153
31
0.0
0
LINE
8
0
10
-0.0127147849045
20
0.125417852153
30
0.0
11
-0.013615405799
21
0.124998214537
31
0.0
0
LINE
8
0
10
-0.013615405799
20
0.124998214537
30
0.0
11
-0.0145297336779
21
0.124628423336
31
0.0
0
LINE
8
0
10
-0.0145297336779
20
0.124628423336
30
0.0
11
-0.0154565487826
21
0.124308772612
31
0.0
0
LINE
8
0
10
-0.0154565487826
20
0.124308772612
30
0.0
11
-0.0163946259125
21
0.124039532034
31
0.0
0
LINE
8
0
10
-0.0163946259125
20
0.124039532034
30
0.0
11
-0.0173427348684
21
0.123820946789
31
0.0
0
LINE
8
0
10
-0.0173427348684
20
0.123820946789
30
0.0
11
-0.0182996408979
21
0.123653237495
31
0.0
0
LINE
8
0
10
-0.0182996408979
20
0.123653237495
30
0.0
11
-0.0182996408979
21
0.123653237495
31
0.0
0
LINE
8
0
10
-0.0182996408979
20
0.123653237495
30
0.0
11
-0.0206910459729
21
0.12327562864
31
0.0
0
LINE
8
0
10
-0.0206910459729
20
0.12327562864
30
0.0
11
-0.0230746892153
21
0.122851775395
31
0.0
0
LINE
8
0
10
-0.0230746892153
20
0.122851775395
30
0.0
11
-0.0254496764488
21
0.12238183676
31
0.0
0
LINE
8
0
10
-0.0254496764488
20
0.12238183676
30
0.0
11
-0.0278151167445
21
0.121865989023
31
0.0
0
LINE
8
0
10
-0.0278151167445
20
0.121865989023
30
0.0
11
-0.0278151167445
21
0.121865989023
31
0.0
0
LINE
8
0
10
-0.0278151167445
20
0.121865989023
30
0.0
11
-0.0301701227548
21
0.121304425694
31
0.0
0
LINE
8
0
10
-0.0301701227548
20
0.121304425694
30
0.0
11
-0.032513811046
21
0.120697357433
31
0.0
0
LINE
8
0
10
-0.032513811046
20
0.120697357433
30
0.0
11
-0.0348453024304
21
0.120045011969
31
0.0
0
LINE
8
0
10
-0.0348453024304
20
0.120045011969
30
0.0
11
-0.0371637222956
21
0.119347634016
31
0.0
0
LINE
8
0
10
-0.0371637222956
20
0.119347634016
30
0.0
11
-0.0371637222956
21
0.119347634016
31
0.0
0
LINE
8
0
10
-0.0371637222956
20
0.119347634016
30
0.0
11
-0.0380986311733
21
0.119083548903
31
0.0
0
LINE
8
0
10
-0.0380986311733
20
0.119083548903
30
0.0
11
-0.0390476884092
21
0.118869118344
31
0.0
0
LINE
8
0
10
-0.0390476884092
20
0.118869118344
30
0.0
11
-0.0400096858075
21
0.11870467931
31
0.0
0
LINE
8
0
10
-0.0400096858075
20
0.11870467931
30
0.0
11
-0.0409834086147
21
0.118590544658
31
0.0
0
LINE
8
0
10
-0.0409834086147
20
0.118590544658
30
0.0
11
-0.0419676359575
21
0.118527003019
31
0.0
0
LINE
8
0
10
-0.0419676359575
20
0.118527003019
30
0.0
11
-0.0429611412834
21
0.118514318686
31
0.0
0
LINE
8
0
10
-0.0429611412834
20
0.118514318686
30
0.0
11
-0.0439626928031
21
0.118552731516
31
0.0
0
LINE
8
0
10
-0.0439626928031
20
0.118552731516
30
0.0
11
-0.0449710539344
21
0.118642456835
31
0.0
0
LINE
8
0
10
-0.0449710539344
20
0.118642456835
30
0.0
11
-0.0459849837476
21
0.118783685353
31
0.0
0
LINE
8
0
10
-0.0459849837476
20
0.118783685353
30
0.0
11
-0.0470032374127
21
0.118976583085
31
0.0
0
LINE
8
0
10
-0.0470032374127
20
0.118976583085
30
0.0
11
-0.0480245666474
21
0.119221291281
31
0.0
0
LINE
8
0
10
-0.0480245666474
20
0.119221291281
30
0.0
11
-0.0490477201669
21
0.119517926364
31
0.0
0
LINE
8
0
10
-0.0490477201669
20
0.119517926364
30
0.0
11
-0.0500714441342
21
0.119866579874
31
0.0
0
LINE
8
0
10
-0.0500714441342
20
0.119866579874
30
0.0
11
-0.0510944826116
21
0.120267318422
31
0.0
0
LINE
8
0
10
-0.0510944826116
20
0.120267318422
30
0.0
11
-0.0521155780131
21
0.12072018365
31
0.0
0
LINE
8
0
10
-0.0521155780131
20
0.12072018365
30
0.0
11
-0.0531334715571
21
0.1212251922
31
0.0
0
LINE
8
0
10
-0.0531334715571
20
0.1212251922
30
0.0
11
-0.05414690372
21
0.121782335688
31
0.0
0
LINE
8
0
10
-0.05414690372
20
0.121782335688
30
0.0
11
-0.05515461469
21
0.122391580691
31
0.0
0
LINE
8
0
10
-0.05515461469
20
0.122391580691
30
0.0
11
-0.0561553448215
21
0.123052868736
31
0.0
0
LINE
8
0
10
-0.0561553448215
20
0.123052868736
30
0.0
11
-0.0571478350891
21
0.123766116301
31
0.0
0
LINE
8
0
10
-0.0571478350891
20
0.123766116301
30
0.0
11
-0.0581308275423
21
0.124531214823
31
0.0
0
LINE
8
0
10
-0.0581308275423
20
0.124531214823
30
0.0
11
-0.0591030657593
21
0.125348030712
31
0.0
0
LINE
8
0
10
-0.0591030657593
20
0.125348030712
30
0.0
11
-0.0600632953013
21
0.126216405373
31
0.0
0
LINE
8
0
10
-0.0600632953013
20
0.126216405373
30
0.0
11
-0.0610102641663
21
0.127136155242
31
0.0
0
LINE
8
0
10
-0.0610102641663
20
0.127136155242
30
0.0
11
-0.0619427232419
21
0.128107071815
31
0.0
0
LINE
8
0
10
-0.0619427232419
20
0.128107071815
30
0.0
11
-0.0628594267578
21
0.129128921706
31
0.0
0
LINE
8
0
10
-0.0628594267578
20
0.129128921706
30
0.0
11
-0.063759132738
21
0.13020144669
31
0.0
0
LINE
8
0
10
-0.063759132738
20
0.13020144669
30
0.0
11
-0.0646406034512
21
0.131324363773
31
0.0
0
LINE
8
0
10
-0.0646406034512
20
0.131324363773
30
0.0
11
-0.0655026058613
21
0.13249736526
31
0.0
0
LINE
8
0
10
-0.0655026058613
20
0.13249736526
30
0.0
11
-0.0663439120752
21
0.133720118828
31
0.0
0
LINE
8
0
10
-0.0663439120752
20
0.133720118828
30
0.0
11
-0.0671632997913
21
0.134992267617
31
0.0
0
LINE
8
0
10
-0.0671632997913
20
0.134992267617
30
0.0
11
-0.0679595527448
21
0.13631343032
31
0.0
0
LINE
8
0
10
-0.0679595527448
20
0.13631343032
30
0.0
11
-0.0687314611527
21
0.137683201281
31
0.0
0
LINE
8
0
10
-0.0687314611527
20
0.137683201281
30
0.0
11
-0.0694778221565
21
0.13910115061
31
0.0
0
LINE
8
0
10
-0.0694778221565
20
0.13910115061
30
0.0
11
-0.0701974402635
21
0.140566824292
31
0.0
0
LINE
8
0
10
-0.0701974402635
20
0.140566824292
30
0.0
11
-0.0708891277858
21
0.142079744314
31
0.0
0
LINE
8
0
10
-0.0708891277858
20
0.142079744314
30
0.0
11
-0.0715517052777
21
0.143639408794
31
0.0
0
LINE
8
0
10
-0.0715517052777
20
0.143639408794
30
0.0
11
-0.0721840019705
21
0.145245292123
31
0.0
0
LINE
8
0
10
-0.0721840019705
20
0.145245292123
30
0.0
11
-0.0727848562056
21
0.146896845105
31
0.0
0
LINE
8
0
10
-0.0727848562056
20
0.146896845105
30
0.0
11
-0.0733531158644
21
0.148593495117
31
0.0
0
LINE
8
0
10
-0.0733531158644
20
0.148593495117
30
0.0
11
-0.0738876387967
21
0.150334646265
31
0.0
0
LINE
8
0
10
-0.0738876387967
20
0.150334646265
30
0.0
11
-0.0743872932451
21
0.152119679554
31
0.0
0
LINE
8
0
10
-0.0743872932451
20
0.152119679554
30
0.0
11
-0.0748509582683
21
0.153947953064
31
0.0
0
LINE
8
0
10
-0.0748509582683
20
0.153947953064
30
0.0
11
-0.0752775241597
21
0.155818802133
31
0.0
0
LINE
8
0
10
-0.0752775241597
20
0.155818802133
30
0.0
11
-0.0756658928646
21
0.157731539544
31
0.0
0
LINE
8
0
10
-0.0756658928646
20
0.157731539544
30
0.0
11
-0.0760149783932
21
0.159685455729
31
0.0
0
LINE
8
0
10
-0.0760149783932
20
0.159685455729
30
0.0
11
-0.0763237072305
21
0.161679818965
31
0.0
0
LINE
8
0
10
-0.0763237072305
20
0.161679818965
30
0.0
11
-0.0765910187434
21
0.163713875591
31
0.0
0
LINE
8
0
10
-0.0765910187434
20
0.163713875591
30
0.0
11
-0.0768158655838
21
0.165786850227
31
0.0
0
LINE
8
0
10
-0.0768158655838
20
0.165786850227
30
0.0
11
-0.0768157667827
21
0.165786636991
31
0.0
0
LINE
8
0
10
-0.0768157667827
20
0.165786636991
30
0.0
11
-0.0768300978288
21
0.165816564026
31
0.0
0
LINE
8
0
10
-0.0768300978288
20
0.165816564026
30
0.0
11
-0.0768746054459
21
0.165905603567
31
0.0
0
LINE
8
0
10
-0.0768746054459
20
0.165905603567
30
0.0
11
-0.0769515370637
21
0.166052594781
31
0.0
0
LINE
8
0
10
-0.0769515370637
20
0.166052594781
30
0.0
11
-0.0770631064192
21
0.166256312857
31
0.0
0
LINE
8
0
10
-0.0770631064192
20
0.166256312857
30
0.0
11
-0.077211491939
21
0.166515469873
31
0.0
0
LINE
8
0
10
-0.077211491939
20
0.166515469873
30
0.0
11
-0.0773988351418
21
0.166828715708
31
0.0
0
LINE
8
0
10
-0.0773988351418
20
0.166828715708
30
0.0
11
-0.0776272390633
21
0.167194638989
31
0.0
0
LINE
8
0
10
-0.0776272390633
20
0.167194638989
30
0.0
11
-0.0778987667041
21
0.167611768068
31
0.0
0
LINE
8
0
10
-0.0778987667041
20
0.167611768068
30
0.0
11
-0.0782154395007
21
0.168078572054
31
0.0
0
LINE
8
0
10
-0.0782154395007
20
0.168078572054
30
0.0
11
-0.0785792358219
21
0.168593461859
31
0.0
0
LINE
8
0
10
-0.0785792358219
20
0.168593461859
30
0.0
11
-0.0789920894892
21
0.169154791299
31
0.0
0
LINE
8
0
10
-0.0789920894892
20
0.169154791299
30
0.0
11
-0.079455888325
21
0.169760858215
31
0.0
0
LINE
8
0
10
-0.079455888325
20
0.169760858215
30
0.0
11
-0.0799724727261
21
0.170409905641
31
0.0
0
LINE
8
0
10
-0.0799724727261
20
0.170409905641
30
0.0
11
-0.0805436342663
21
0.171100122998
31
0.0
0
LINE
8
0
10
-0.0805436342663
20
0.171100122998
30
0.0
11
-0.0811711143262
21
0.171829647323
31
0.0
0
LINE
8
0
10
-0.0811711143262
20
0.171829647323
30
0.0
11
-0.0818566027538
21
0.172596564532
31
0.0
0
LINE
8
0
10
-0.0818566027538
20
0.172596564532
30
0.0
11
-0.0826017365534
21
0.173398910713
31
0.0
0
LINE
8
0
10
-0.0826017365534
20
0.173398910713
30
0.0
11
-0.083408098607
21
0.174234673453
31
0.0
0
LINE
8
0
10
-0.083408098607
20
0.174234673453
30
0.0
11
-0.0842772164252
21
0.175101793194
31
0.0
0
LINE
8
0
10
-0.0842772164252
20
0.175101793194
30
0.0
11
-0.0852105609322
21
0.175998164616
31
0.0
0
LINE
8
0
10
-0.0852105609322
20
0.175998164616
30
0.0
11
-0.0862095452821
21
0.176921638056
31
0.0
0
LINE
8
0
10
-0.0862095452821
20
0.176921638056
30
0.0
11
-0.0872755237098
21
0.177870020949
31
0.0
0
LINE
8
0
10
-0.0872755237098
20
0.177870020949
30
0.0
11
-0.0884097904149
21
0.178841079296
31
0.0
0
LINE
8
0
10
-0.0884097904149
20
0.178841079296
30
0.0
11
-0.0896135784815
21
0.179832539168
31
0.0
0
LINE
8
0
10
-0.0896135784815
20
0.179832539168
30
0.0
11
-0.0908880588329
21
0.180842088224
31
0.0
0
LINE
8
0
10
-0.0908880588329
20
0.180842088224
30
0.0
11
-0.092234339222
21
0.181867377264
31
0.0
0
LINE
8
0
10
-0.092234339222
20
0.181867377264
30
0.0
11
-0.0936534632586
21
0.182906021799
31
0.0
0
LINE
8
0
10
-0.0936534632586
20
0.182906021799
30
0.0
11
-0.0951464094739
21
0.183955603649
31
0.0
0
LINE
8
0
10
-0.0951464094739
20
0.183955603649
30
0.0
11
-0.0967140904225
21
0.185013672564
31
0.0
0
LINE
8
0
10
-0.0967140904225
20
0.185013672564
30
0.0
11
-0.0983573518224
21
0.186077747862
31
0.0
0
LINE
8
0
10
-0.0983573518224
20
0.186077747862
30
0.0
11
-0.100076971734
21
0.187145320096
31
0.0
0
LINE
8
0
10
-0.100076971734
20
0.187145320096
30
0.0
11
-0.101873659779
21
0.188213852731
31
0.0
0
LINE
8
0
10
-0.101873659779
20
0.188213852731
30
0.0
11
-0.103748056396
21
0.189280783851
31
0.0
0
LINE
8
0
10
-0.103748056396
20
0.189280783851
30
0.0
11
-0.10570073214
21
0.190343527874
31
0.0
0
LINE
8
0
10
-0.10570073214
20
0.190343527874
30
0.0
11
-0.107732187021
21
0.191399477294
31
0.0
0
LINE
8
0
10
-0.107732187021
20
0.191399477294
30
0.0
11
-0.109842849883
21
0.192446004433
31
0.0
0
LINE
8
0
10
-0.109842849883
20
0.192446004433
30
0.0
11
-0.112033077822
21
0.193480463207
31
0.0
0
LINE
8
0
10
-0.112033077822
20
0.193480463207
30
0.0
11
-0.114303155652
21
0.194500190917
31
0.0
0
LINE
8
0
10
-0.114303155652
20
0.194500190917
30
0.0
11
-0.116653295407
21
0.19550251004
31
0.0
0
LINE
8
0
10
-0.116653295407
20
0.19550251004
30
0.0
11
-0.119083635889
21
0.196484730044
31
0.0
0
LINE
8
0
10
-0.119083635889
20
0.196484730044
30
0.0
11
-0.121594242255
21
0.197444149208
31
0.0
0
LINE
8
0
10
-0.121594242255
20
0.197444149208
30
0.0
11
-0.124185105651
21
0.198378056454
31
0.0
0
LINE
8
0
10
-0.124185105651
20
0.198378056454
30
0.0
11
-0.126856142885
21
0.199283733192
31
0.0
0
LINE
8
0
10
-0.126856142885
20
0.199283733192
30
0.0
11
-0.12960719615
21
0.200158455172
31
0.0
0
LINE
8
0
10
-0.12960719615
20
0.200158455172
30
0.0
11
-0.132438032781
21
0.20099949434
31
0.0
0
LINE
8
0
10
-0.132438032781
20
0.20099949434
30
0.0
11
-0.135348345066
21
0.201804120706
31
0.0
0
LINE
8
0
10
-0.135348345066
20
0.201804120706
30
0.0
11
-0.138337750092
21
0.202569604217
31
0.0
0
LINE
8
0
10
-0.138337750092
20
0.202569604217
30
0.0
11
-0.141405789641
21
0.203293216634
31
0.0
0
LINE
8
0
10
-0.141405789641
20
0.203293216634
30
0.0
11
-0.14455193013
21
0.20397223341
31
0.0
0
LINE
8
0
10
-0.14455193013
20
0.20397223341
30
0.0
11
-0.14455200818
21
0.203972343545
31
0.0
0
LINE
8
0
10
-0.14455200818
20
0.203972343545
30
0.0
11
-0.147427071022
21
0.201904082994
31
0.0
0
LINE
8
0
10
-0.147427071022
20
0.201904082994
30
0.0
11
-0.150272545398
21
0.199795300495
31
0.0
0
LINE
8
0
10
-0.150272545398
20
0.199795300495
30
0.0
11
-0.153087860222
21
0.197646419276
31
0.0
0
LINE
8
0
10
-0.153087860222
20
0.197646419276
30
0.0
11
-0.155872450465
21
0.195457870617
31
0.0
0
LINE
8
0
10
-0.155872450465
20
0.195457870617
30
0.0
11
-0.155872450465
21
0.195457870617
31
0.0
0
LINE
8
0
10
-0.155872450465
20
0.195457870617
30
0.0
11
-0.158625757261
21
0.193230093757
31
0.0
0
LINE
8
0
10
-0.158625757261
20
0.193230093757
30
0.0
11
-0.161347228025
21
0.190963535809
31
0.0
0
LINE
8
0
10
-0.161347228025
20
0.190963535809
30
0.0
11
-0.16403631656
21
0.188658651668
31
0.0
0
LINE
8
0
10
-0.16403631656
20
0.188658651668
30
0.0
11
-0.166692483169
21
0.186315903923
31
0.0
0
LINE
8
0
10
-0.166692483169
20
0.186315903923
30
0.0
11
-0.166692393164
21
0.186315803323
31
0.0
0
LINE
8
0
10
-0.166692393164
20
0.186315803323
30
0.0
11
-0.166730482876
21
0.183097447697
31
0.0
0
LINE
8
0
10
-0.166730482876
20
0.183097447697
30
0.0
11
-0.166707715959
21
0.179945311394
31
0.0
0
LINE
8
0
10
-0.166707715959
20
0.179945311394
30
0.0
11
-0.166626629916
21
0.176860520888
31
0.0
0
LINE
8
0
10
-0.166626629916
20
0.176860520888
30
0.0
11
-0.16648978262
21
0.173844129998
31
0.0
0
LINE
8
0
10
-0.16648978262
20
0.173844129998
30
0.0
11
-0.166299750472
21
0.17089711953
31
0.0
0
LINE
8
0
10
-0.166299750472
20
0.17089711953
30
0.0
11
-0.16605912654
21
0.168020396963
31
0.0
0
LINE
8
0
10
-0.16605912654
20
0.168020396963
30
0.0
11
-0.165770518708
21
0.165214796175
31
0.0
0
LINE
8
0
10
-0.165770518708
20
0.165214796175
30
0.0
11
-0.165436547809
21
0.162481077221
31
0.0
0
LINE
8
0
10
-0.165436547809
20
0.162481077221
30
0.0
11
-0.16505984576
21
0.15981992615
31
0.0
0
LINE
8
0
10
-0.16505984576
20
0.15981992615
30
0.0
11
-0.164643053696
21
0.157231954866
31
0.0
0
LINE
8
0
10
-0.164643053696
20
0.157231954866
30
0.0
11
-0.1641888201
21
0.154717701033
31
0.0
0
LINE
8
0
10
-0.1641888201
20
0.154717701033
30
0.0
11
-0.163699798932
21
0.152277628031
31
0.0
0
LINE
8
0
10
-0.163699798932
20
0.152277628031
30
0.0
11
-0.163178647765
21
0.149912124947
31
0.0
0
LINE
8
0
10
-0.163178647765
20
0.149912124947
30
0.0
11
-0.162628025918
21
0.147621506613
31
0.0
0
LINE
8
0
10
-0.162628025918
20
0.147621506613
30
0.0
11
-0.162050592592
21
0.145406013696
31
0.0
0
LINE
8
0
10
-0.162050592592
20
0.145406013696
30
0.0
11
-0.16144900501
21
0.143265812817
31
0.0
0
LINE
8
0
10
-0.16144900501
20
0.143265812817
30
0.0
11
-0.160825916567
21
0.141200996728
31
0.0
0
LINE
8
0
10
-0.160825916567
20
0.141200996728
30
0.0
11
-0.160183974978
21
0.139211584524
31
0.0
0
LINE
8
0
10
-0.160183974978
20
0.139211584524
30
0.0
11
-0.159525820438
21
0.137297521903
31
0.0
0
LINE
8
0
10
-0.159525820438
20
0.137297521903
30
0.0
11
-0.15885408379
21
0.135458681468
31
0.0
0
LINE
8
0
10
-0.15885408379
20
0.135458681468
30
0.0
11
-0.158171384701
21
0.133694863071
31
0.0
0
LINE
8
0
10
-0.158171384701
20
0.133694863071
30
0.0
11
-0.157480329845
21
0.1320057942
31
0.0
0
LINE
8
0
10
-0.157480329845
20
0.1320057942
30
0.0
11
-0.156783511103
21
0.130391130414
31
0.0
0
LINE
8
0
10
-0.156783511103
20
0.130391130414
30
0.0
11
-0.15608350377
21
0.12885045581
31
0.0
0
LINE
8
0
10
-0.15608350377
20
0.12885045581
30
0.0
11
-0.155382864774
21
0.127383283543
31
0.0
0
LINE
8
0
10
-0.155382864774
20
0.127383283543
30
0.0
11
-0.154684130916
21
0.12598905638
31
0.0
0
LINE
8
0
10
-0.154684130916
20
0.12598905638
30
0.0
11
-0.153989817116
21
0.124667147299
31
0.0
0
LINE
8
0
10
-0.153989817116
20
0.124667147299
30
0.0
11
-0.153302414678
21
0.123416860129
31
0.0
0
LINE
8
0
10
-0.153302414678
20
0.123416860129
30
0.0
11
-0.152624389576
21
0.12223743023
31
0.0
0
LINE
8
0
10
-0.152624389576
20
0.12223743023
30
0.0
11
-0.151958180748
21
0.121128025213
31
0.0
0
LINE
8
0
10
-0.151958180748
20
0.121128025213
30
0.0
11
-0.151306198418
21
0.120087745698
31
0.0
0
LINE
8
0
10
-0.151306198418
20
0.120087745698
30
0.0
11
-0.150670822431
21
0.119115626119
31
0.0
0
LINE
8
0
10
-0.150670822431
20
0.119115626119
30
0.0
11
-0.150054400613
21
0.118210635558
31
0.0
0
LINE
8
0
10
-0.150054400613
20
0.118210635558
30
0.0
11
-0.149459247146
21
0.117371678623
31
0.0
0
LINE
8
0
10
-0.149459247146
20
0.117371678623
30
0.0
11
-0.148887640968
21
0.116597596364
31
0.0
0
LINE
8
0
10
-0.148887640968
20
0.116597596364
30
0.0
11
-0.1483418242
21
0.115887167226
31
0.0
0
LINE
8
0
10
-0.1483418242
20
0.115887167226
30
0.0
11
-0.147824000591
21
0.115239108034
31
0.0
0
LINE
8
0
10
-0.147824000591
20
0.115239108034
30
0.0
11
-0.147336333988
21
0.114652075028
31
0.0
0
LINE
8
0
10
-0.147336333988
20
0.114652075028
30
0.0
11
-0.146880946833
21
0.114124664913
31
0.0
0
LINE
8
0
10
-0.146880946833
20
0.114124664913
30
0.0
11
-0.146459918688
21
0.113655415964
31
0.0
0
LINE
8
0
10
-0.146459918688
20
0.113655415964
30
0.0
11
-0.146075284779
21
0.113242809157
31
0.0
0
LINE
8
0
10
-0.146075284779
20
0.113242809157
30
0.0
11
-0.14572903458
21
0.112885269329
31
0.0
0
LINE
8
0
10
-0.14572903458
20
0.112885269329
30
0.0
11
-0.145423110415
21
0.11258116638
31
0.0
0
LINE
8
0
10
-0.145423110415
20
0.11258116638
30
0.0
11
-0.145159406091
21
0.112328816507
31
0.0
0
LINE
8
0
10
-0.145159406091
20
0.112328816507
30
0.0
11
-0.144939765566
21
0.112126483461
31
0.0
0
LINE
8
0
10
-0.144939765566
20
0.112126483461
30
0.0
11
-0.144765981645
21
0.111972379845
31
0.0
0
LINE
8
0
10
-0.144765981645
20
0.111972379845
30
0.0
11
-0.144639794703
21
0.111864668441
31
0.0
0
LINE
8
0
10
-0.144639794703
20
0.111864668441
30
0.0
11
-0.144562891446
21
0.111801463561
31
0.0
0
LINE
8
0
10
-0.144562891446
20
0.111801463561
30
0.0
11
-0.144536903702
21
0.111780832433
31
0.0
0
LINE
8
0
10
-0.144536903702
20
0.111780832433
30
0.0
11
-0.144537089607
21
0.111780976206
31
0.0
0
LINE
8
0
10
-0.144537089607
20
0.111780976206
30
0.0
11
-0.142566121902
21
0.111100486494
31
0.0
0
LINE
8
0
10
-0.142566121902
20
0.111100486494
30
0.0
11
-0.140642545729
21
0.110387256858
31
0.0
0
LINE
8
0
10
-0.140642545729
20
0.110387256858
30
0.0
11
-0.138766883973
21
0.109642480927
31
0.0
0
LINE
8
0
10
-0.138766883973
20
0.109642480927
30
0.0
11
-0.136939635384
21
0.108867360448
31
0.0
0
LINE
8
0
10
-0.136939635384
20
0.108867360448
30
0.0
11
-0.13516127446
21
0.108063104842
31
0.0
0
LINE
8
0
10
-0.13516127446
20
0.108063104842
30
0.0
11
-0.133432251324
21
0.107230930766
31
0.0
0
LINE
8
0
10
-0.133432251324
20
0.107230930766
30
0.0
11
-0.131752991622
21
0.106372061664
31
0.0
0
LINE
8
0
10
-0.131752991622
20
0.106372061664
30
0.0
11
-0.130123896419
21
0.105487727321
31
0.0
0
LINE
8
0
10
-0.130123896419
20
0.105487727321
30
0.0
11
-0.128545342107
21
0.104579163415
31
0.0
0
LINE
8
0
10
-0.128545342107
20
0.104579163415
30
0.0
11
-0.127017680324
21
0.103647611067
31
0.0
0
LINE
8
0
10
-0.127017680324
20
0.103647611067
30
0.0
11
-0.125541237868
21
0.10269431639
31
0.0
0
LINE
8
0
10
-0.125541237868
20
0.10269431639
30
0.0
11
-0.124116316638
21
0.101720530037
31
0.0
0
LINE
8
0
10
-0.124116316638
20
0.101720530037
30
0.0
11
-0.122743193565
21
0.10072750675
31
0.0
0
LINE
8
0
10
-0.122743193565
20
0.10072750675
30
0.0
11
-0.12142212056
21
0.0997165049013
31
0.0
0
LINE
8
0
10
-0.12142212056
20
0.0997165049013
30
0.0
11
-0.120153324471
21
0.0986887860461
31
0.0
0
LINE
8
0
10
-0.120153324471
20
0.0986887860461
30
0.0
11
-0.11893700704
21
0.0976456144619
31
0.0
0
LINE
8
0
10
-0.11893700704
20
0.0976456144619
30
0.0
11
-0.117773344876
21
0.0965882566958
31
0.0
0
LINE
8
0
10
-0.117773344876
20
0.0965882566958
30
0.0
11
-0.116662489432
21
0.0955179811078
31
0.0
0
LINE
8
0
10
-0.116662489432
20
0.0955179811078
30
0.0
11
-0.115604566989
21
0.0944360574159
31
0.0
0
LINE
8
0
10
-0.115604566989
20
0.0944360574159
30
0.0
11
-0.11459967865
21
0.0933437562392
31
0.0
0
LINE
8
0
10
-0.11459967865
20
0.0933437562392
30
0.0
11
-0.113647900341
21
0.092242348643
31
0.0
0
LINE
8
0
10
-0.113647900341
20
0.092242348643
30
0.0
11
-0.112749282819
21
0.0911331056826
31
0.0
0
LINE
8
0
10
-0.112749282819
20
0.0911331056826
30
0.0
11
-0.111903851691
21
0.0900172979486
31
0.0
0
LINE
8
0
10
-0.111903851691
20
0.0900172979486
30
0.0
11
-0.111111607433
21
0.0888961951118
31
0.0
0
LINE
8
0
10
-0.111111607433
20
0.0888961951118
30
0.0
11
-0.110372525429
21
0.0877710654694
31
0.0
0
LINE
8
0
10
-0.110372525429
20
0.0877710654694
30
0.0
11
-0.109686556007
21
0.0866431754912
31
0.0
0
LINE
8
0
10
-0.109686556007
20
0.0866431754912
30
0.0
11
-0.109053624485
21
0.0855137893678
31
0.0
0
LINE
8
0
10
-0.109053624485
20
0.0855137893678
30
0.0
11
-0.108473631232
21
0.0843841685583
31
0.0
0
LINE
8
0
10
-0.108473631232
20
0.0843841685583
30
0.0
11
-0.107946451726
21
0.0832555713405
31
0.0
0
LINE
8
0
10
-0.107946451726
20
0.0832555713405
30
0.0
11
-0.107471936628
21
0.0821292523617
31
0.0
0
LINE
8
0
10
-0.107471936628
20
0.0821292523617
30
0.0
11
-0.107049911859
21
0.0810064621906
31
0.0
0
LINE
8
0
10
-0.107049911859
20
0.0810064621906
30
0.0
11
-0.106680178687
21
0.0798884468716
31
0.0
0
LINE
8
0
10
-0.106680178687
20
0.0798884468716
30
0.0
11
-0.10636251382
21
0.0787764474796
31
0.0
0
LINE
8
0
10
-0.10636251382
20
0.0787764474796
30
0.0
11
-0.106096669511
21
0.0776716996778
31
0.0
0
LINE
8
0
10
-0.106096669511
20
0.0776716996778
30
0.0
11
-0.105882373662
21
0.0765754332762
31
0.0
0
LINE
8
0
10
-0.105882373662
20
0.0765754332762
30
0.0
11
-0.105719329943
21
0.0754888717933
31
0.0
0
LINE
8
0
10
-0.105719329943
20
0.0754888717933
30
0.0
11
-0.105607217918
21
0.0744132320185
31
0.0
0
LINE
8
0
10
-0.105607217918
20
0.0744132320185
30
0.0
11
-0.105545693173
21
0.0733497235783
31
0.0
0
LINE
8
0
10
-0.105545693173
20
0.0733497235783
30
0.0
11
-0.105534387458
21
0.0722995485035
31
0.0
0
LINE
8
0
10
-0.105534387458
20
0.0722995485035
30
0.0
11
-0.105572908831
21
0.0712639008004
31
0.0
0
LINE
8
0
10
-0.105572908831
20
0.0712639008004
30
0.0
11
-0.105660841816
21
0.0702439660228
31
0.0
0
LINE
8
0
10
-0.105660841816
20
0.0702439660228
30
0.0
11
-0.105797747559
21
0.0692409208485
31
0.0
0
LINE
8
0
10
-0.105797747559
20
0.0692409208485
30
0.0
11
-0.105983163998
21
0.0682559326575
31
0.0
0
LINE
8
0
10
-0.105983163998
20
0.0682559326575
30
0.0
11
-0.106216606041
21
0.067290159114
31
0.0
0
LINE
8
0
10
-0.106216606041
20
0.067290159114
30
0.0
11
-0.106497565746
21
0.0663447477505
31
0.0
0
LINE
8
0
10
-0.106497565746
20
0.0663447477505
30
0.0
11
-0.106825512513
21
0.0654208355564
31
0.0
0
LINE
8
0
10
-0.106825512513
20
0.0654208355564
30
0.0
11
-0.107199893276
21
0.0645195485687
31
0.0
0
LINE
8
0
10
-0.107199893276
20
0.0645195485687
30
0.0
11
-0.107620132716
21
0.0636420014674
31
0.0
0
LINE
8
0
10
-0.107620132716
20
0.0636420014674
30
0.0
11
-0.10808563346
21
0.0627892971732
31
0.0
0
LINE
8
0
10
-0.10808563346
20
0.0627892971732
30
0.0
11
-0.10808563346
21
0.0627892971732
31
0.0
0
LINE
8
0
10
-0.10808563346
20
0.0627892971732
30
0.0
11
-0.109281423646
21
0.0606841861279
31
0.0
0
LINE
8
0
10
-0.109281423646
20
0.0606841861279
30
0.0
11
-0.110436219087
21
0.0585563106222
31
0.0
0
LINE
8
0
10
-0.110436219087
20
0.0585563106222
30
0.0
11
-0.111549586587
21
0.056406468886
31
0.0
0
LINE
8
0
10
-0.111549586587
20
0.056406468886
30
0.0
11
-0.112621108488
21
0.0542354673897
31
0.0
0
LINE
8
0
10
-0.112621108488
20
0.0542354673897
30
0.0
11
-0.112621108488
21
0.0542354673897
31
0.0
0
LINE
8
0
10
-0.112621108488
20
0.0542354673897
30
0.0
11
-0.113650382829
21
0.052044120541
31
0.0
0
LINE
8
0
10
-0.113650382829
20
0.052044120541
30
0.0
11
-0.114637023498
21
0.0498332503799
31
0.0
0
LINE
8
0
10
-0.114637023498
20
0.0498332503799
30
0.0
11
-0.115580660378
21
0.0476036862702
31
0.0
0
LINE
8
0
10
-0.115580660378
20
0.0476036862702
30
0.0
11
-0.116480939482
21
0.0453562645884
31
0.0
0
LINE
8
0
10
-0.116480939482
20
0.0453562645884
30
0.0
11
-0.116480939482
21
0.0453562645884
31
0.0
0
LINE
8
0
10
-0.116480939482
20
0.0453562645884
30
0.0
11
-0.116857375577
21
0.0444606690196
31
0.0
0
LINE
8
0
10
-0.116857375577
20
0.0444606690196
30
0.0
11
-0.117281454524
21
0.0435849709276
31
0.0
0
LINE
8
0
10
-0.117281454524
20
0.0435849709276
30
0.0
11
-0.117752686477
21
0.0427303250147
31
0.0
0
LINE
8
0
10
-0.117752686477
20
0.0427303250147
30
0.0
11
-0.118270558653
21
0.0418978760774
31
0.0
0
LINE
8
0
10
-0.118270558653
20
0.0418978760774
30
0.0
11
-0.11883453551
21
0.0410887585908
31
0.0
0
LINE
8
0
10
-0.11883453551
20
0.0410887585908
30
0.0
11
-0.119444058938
21
0.0403040962968
31
0.0
0
LINE
8
0
10
-0.119444058938
20
0.0403040962968
30
0.0
11
-0.120098548457
21
0.0395450017953
31
0.0
0
LINE
8
0
10
-0.120098548457
20
0.0395450017953
30
0.0
11
-0.120797401418
21
0.0388125761387
31
0.0
0
LINE
8
0
10
-0.120797401418
20
0.0388125761387
30
0.0
11
-0.121539993218
21
0.0381079084304
31
0.0
0
LINE
8
0
10
-0.121539993218
20
0.0381079084304
30
0.0
11
-0.122325677514
21
0.0374320754264
31
0.0
0
LINE
8
0
10
-0.122325677514
20
0.0374320754264
30
0.0
11
-0.123153786447
21
0.0367861411413
31
0.0
0
LINE
8
0
10
-0.123153786447
20
0.0367861411413
30
0.0
11
-0.124023630879
21
0.0361711564573
31
0.0
0
LINE
8
0
10
-0.124023630879
20
0.0361711564573
30
0.0
11
-0.124934500623
21
0.0355881587382
31
0.0
0
LINE
8
0
10
-0.124934500623
20
0.0355881587382
30
0.0
11
-0.125885664694
21
0.0350381714468
31
0.0
0
LINE
8
0
10
-0.125885664694
20
0.0350381714468
30
0.0
11
-0.126876371556
21
0.0345222037669
31
0.0
0
LINE
8
0
10
-0.126876371556
20
0.0345222037669
30
0.0
11
-0.127905849384
21
0.034041250229
31
0.0
0
LINE
8
0
10
-0.127905849384
20
0.034041250229
30
0.0
11
-0.128973306321
21
0.0335962903417
31
0.0
0
LINE
8
0
10
-0.128973306321
20
0.0335962903417
30
0.0
11
-0.130077930758
21
0.0331882882261
31
0.0
0
LINE
8
0
10
-0.130077930758
20
0.0331882882261
30
0.0
11
-0.131218891602
21
0.0328181922558
31
0.0
0
LINE
8
0
10
-0.131218891602
20
0.0328181922558
30
0.0
11
-0.132395338563
21
0.0324869347015
31
0.0
0
LINE
8
0
10
-0.132395338563
20
0.0324869347015
30
0.0
11
-0.133606402445
21
0.0321954313805
31
0.0
0
LINE
8
0
10
-0.133606402445
20
0.0321954313805
30
0.0
11
-0.134851195435
21
0.0319445813108
31
0.0
0
LINE
8
0
10
-0.134851195435
20
0.0319445813108
30
0.0
11
-0.136128811411
21
0.0317352663703
31
0.0
0
LINE
8
0
10
-0.136128811411
20
0.0317352663703
30
0.0
11
-0.137438326244
21
0.0315683509618
31
0.0
0
LINE
8
0
10
-0.137438326244
20
0.0315683509618
30
0.0
11
-0.138778798113
21
0.0314446816826
31
0.0
0
LINE
8
0
10
-0.138778798113
20
0.0314446816826
30
0.0
11
-0.140149267821
21
0.0313650869994
31
0.0
0
LINE
8
0
10
-0.140149267821
20
0.0313650869994
30
0.0
11
-0.141548759122
21
0.031330376929
31
0.0
0
LINE
8
0
10
-0.141548759122
20
0.031330376929
30
0.0
11
-0.142976279051
21
0.0313413427244
31
0.0
0
LINE
8
0
10
-0.142976279051
20
0.0313413427244
30
0.0
11
-0.144430818254
21
0.0313987565668
31
0.0
0
LINE
8
0
10
-0.144430818254
20
0.0313987565668
30
0.0
11
-0.145911351334
21
0.0315033712623
31
0.0
0
LINE
8
0
10
-0.145911351334
20
0.0315033712623
30
0.0
11
-0.147416837192
21
0.031655919946
31
0.0
0
LINE
8
0
10
-0.147416837192
20
0.031655919946
30
0.0
11
-0.148946219382
21
0.0318571157904
31
0.0
0
LINE
8
0
10
-0.148946219382
20
0.0318571157904
30
0.0
11
-0.150498426464
21
0.0321076517208
31
0.0
0
LINE
8
0
10
-0.150498426464
20
0.0321076517208
30
0.0
11
-0.152072372364
21
0.0324082001368
31
0.0
0
LINE
8
0
10
-0.152072372364
20
0.0324082001368
30
0.0
11
-0.153666956743
21
0.0327594126389
31
0.0
0
LINE
8
0
10
-0.153666956743
20
0.0327594126389
30
0.0
11
-0.155281065362
21
0.0331619197625
31
0.0
0
LINE
8
0
10
-0.155281065362
20
0.0331619197625
30
0.0
11
-0.156913570465
21
0.0336163307177
31
0.0
0
LINE
8
0
10
-0.156913570465
20
0.0336163307177
30
0.0
11
-0.158563331148
21
0.0341232331353
31
0.0
0
LINE
8
0
10
-0.158563331148
20
0.0341232331353
30
0.0
11
-0.160229193752
21
0.0346831928197
31
0.0
0
LINE
8
0
10
-0.160229193752
20
0.0346831928197
30
0.0
11
-0.161909992248
21
0.035296753508
31
0.0
0
LINE
8
0
10
-0.161909992248
20
0.035296753508
30
0.0
11
-0.163604548629
21
0.0359644366356
31
0.0
0
LINE
8
0
10
-0.163604548629
20
0.0359644366356
30
0.0
11
-0.165311673304
21
0.0366867411092
31
0.0
0
LINE
8
0
10
-0.165311673304
20
0.0366867411092
30
0.0
11
-0.167030165507
21
0.0374641430854
31
0.0
0
LINE
8
0
10
-0.167030165507
20
0.0374641430854
30
0.0
11
-0.168758813691
21
0.0382970957572
31
0.0
0
LINE
8
0
10
-0.168758813691
20
0.0382970957572
30
0.0
11
-0.170496395944
21
0.0391860291468
31
0.0
0
LINE
8
0
10
-0.170496395944
20
0.0391860291468
30
0.0
11
-0.172241680398
21
0.0401313499052
31
0.0
0
LINE
8
0
10
-0.172241680398
20
0.0401313499052
30
0.0
11
-0.173993425645
21
0.0411334411193
31
0.0
0
LINE
8
0
10
-0.173993425645
20
0.0411334411193
30
0.0
11
-0.175750381154
21
0.0421926621259
31
0.0
0
LINE
8
0
10
-0.175750381154
20
0.0421926621259
30
0.0
11
-0.177511287699
21
0.0433093483324
31
0.0
0
LINE
8
0
10
-0.177511287699
20
0.0433093483324
30
0.0
11
-0.177511059383
21
0.0433092926277
31
0.0
0
LINE
8
0
10
-0.177511059383
20
0.0433092926277
30
0.0
11
-0.177543392542
21
0.0433167473657
31
0.0
0
LINE
8
0
10
-0.177543392542
20
0.0433167473657
30
0.0
11
-0.177640756504
21
0.0433374651551
31
0.0
0
LINE
8
0
10
-0.177640756504
20
0.0433374651551
30
0.0
11
-0.177803644942
21
0.0433689651174
31
0.0
0
LINE
8
0
10
-0.177803644942
20
0.0433689651174
30
0.0
11
-0.178032480502
21
0.0434087528254
31
0.0
0
LINE
8
0
10
-0.178032480502
20
0.0434087528254
30
0.0
11
-0.178327614475
21
0.0434543221111
31
0.0
0
LINE
8
0
10
-0.178327614475
20
0.0434543221111
30
0.0
11
-0.178689326507
21
0.0435031568811
31
0.0
0
LINE
8
0
10
-0.178689326507
20
0.0435031568811
30
0.0
11
-0.179117824364
21
0.043552732938
31
0.0
0
LINE
8
0
10
-0.179117824364
20
0.043552732938
30
0.0
11
-0.179613243725
21
0.0436005198075
31
0.0
0
LINE
8
0
10
-0.179613243725
20
0.0436005198075
30
0.0
11
-0.180175648037
21
0.0436439825699
31
0.0
0
LINE
8
0
10
-0.180175648037
20
0.0436439825699
30
0.0
11
-0.180805028393
21
0.0436805836955
31
0.0
0
LINE
8
0
10
-0.180805028393
20
0.0436805836955
30
0.0
11
-0.181501303472
21
0.0437077848816
31
0.0
0
LINE
8
0
10
-0.181501303472
20
0.0437077848816
30
0.0
11
-0.182264319511
21
0.0437230488917
31
0.0
0
LINE
8
0
10
-0.182264319511
20
0.0437230488917
30
0.0
11
-0.183093850329
21
0.0437238413948
31
0.0
0
LINE
8
0
10
-0.183093850329
20
0.0437238413948
30
0.0
11
-0.183989597384
21
0.0437076328044
31
0.0
0
LINE
8
0
10
-0.183989597384
20
0.0437076328044
30
0.0
11
-0.184951189886
21
0.0436719001157
31
0.0
0
LINE
8
0
10
-0.184951189886
20
0.0436719001157
30
0.0
11
-0.185978184948
21
0.0436141287406
31
0.0
0
LINE
8
0
10
-0.185978184948
20
0.0436141287406
30
0.0
11
-0.187070067778
21
0.0435318143387
31
0.0
0
LINE
8
0
10
-0.187070067778
20
0.0435318143387
30
0.0
11
-0.188226251917
21
0.0434224646444
31
0.0
0
LINE
8
0
10
-0.188226251917
20
0.0434224646444
30
0.0
11
-0.189446079526
21
0.0432836012875
31
0.0
0
LINE
8
0
10
-0.189446079526
20
0.0432836012875
30
0.0
11
-0.190728821705
21
0.0431127616085
31
0.0
0
LINE
8
0
10
-0.190728821705
20
0.0431127616085
30
0.0
11
-0.192073678869
21
0.0429075004655
31
0.0
0
LINE
8
0
10
-0.192073678869
20
0.0429075004655
30
0.0
11
-0.19347978115
21
0.0426653920327
31
0.0
0
LINE
8
0
10
-0.19347978115
20
0.0426653920327
30
0.0
11
-0.19494618886
21
0.0423840315896
31
0.0
0
LINE
8
0
10
-0.19494618886
20
0.0423840315896
30
0.0
11
-0.196471892985
21
0.0420610372999
31
0.0
0
LINE
8
0
10
-0.196471892985
20
0.0420610372999
30
0.0
11
-0.198055815722
21
0.0416940519785
31
0.0
0
LINE
8
0
10
-0.198055815722
20
0.0416940519785
30
0.0
11
-0.199696811065
21
0.0412807448465
31
0.0
0
LINE
8
0
10
-0.199696811065
20
0.0412807448465
30
0.0
11
-0.201393665426
21
0.0408188132724
31
0.0
0
LINE
8
0
10
-0.201393665426
20
0.0408188132724
30
0.0
11
-0.2031450983
21
0.0403059844995
31
0.0
0
LINE
8
0
10
-0.2031450983
20
0.0403059844995
30
0.0
11
-0.204949762972
21
0.0397400173574
31
0.0
0
LINE
8
0
10
-0.204949762972
20
0.0397400173574
30
0.0
11
-0.206806247265
21
0.039118703958
31
0.0
0
LINE
8
0
10
-0.206806247265
20
0.039118703958
30
0.0
11
-0.208713074325
21
0.0384398713735
31
0.0
0
LINE
8
0
10
-0.208713074325
20
0.0384398713735
30
0.0
11
-0.210668703452
21
0.037701383297
31
0.0
0
LINE
8
0
10
-0.210668703452
20
0.037701383297
30
0.0
11
-0.212671530966
21
0.0369011416837
31
0.0
0
LINE
8
0
10
-0.212671530966
20
0.0369011416837
30
0.0
11
-0.214719891114
21
0.0360370883724
31
0.0
0
LINE
8
0
10
-0.214719891114
20
0.0360370883724
30
0.0
11
-0.216812057016
21
0.0351072066859
31
0.0
0
LINE
8
0
10
-0.216812057016
20
0.0351072066859
30
0.0
11
-0.218946241649
21
0.03410952301
31
0.0
0
LINE
8
0
10
-0.218946241649
20
0.03410952301
30
0.0
11
-0.22112059887
21
0.0330421083498
31
0.0
0
LINE
8
0
10
-0.22112059887
20
0.0330421083498
30
0.0
11
-0.223333224474
21
0.0319030798621
31
0.0
0
LINE
8
0
10
-0.223333224474
20
0.0319030798621
30
0.0
11
-0.225582157291
21
0.0306906023646
31
0.0
0
LINE
8
0
10
-0.225582157291
20
0.0306906023646
30
0.0
11
-0.227865380318
21
0.0294028898183
31
0.0
0
LINE
8
0
10
-0.227865380318
20
0.0294028898183
30
0.0
11
-0.230180821891
21
0.0280382067856
31
0.0
0
LINE
8
0
10
-0.230180821891
20
0.0280382067856
30
0.0
11
-0.232526356882
21
0.0265948698601
31
0.0
0
LINE
8
0
10
-0.232526356882
20
0.0265948698601
30
0.0
11
-0.234899807946
21
0.0250712490698
31
0.0
0
LINE
8
0
10
-0.234899807946
20
0.0250712490698
30
0.0
11
-0.237298946783
21
0.0234657692513
31
0.0
0
LINE
8
0
10
-0.237298946783
20
0.0234657692513
30
0.0
11
-0.239721495452
21
0.0217769113952
31
0.0
0
LINE
8
0
10
-0.239721495452
20
0.0217769113952
30
0.0
11
-0.242165127707
21
0.0200032139607
31
0.0
0
LINE
8
0
10
-0.242165127707
20
0.0200032139607
30
0.0
11
-0.244627470362
21
0.0181432741606
31
0.0
0
LINE
8
0
10
-0.244627470362
20
0.0181432741606
30
0.0
11
-0.247106104701
21
0.016195749214
31
0.0
0
LINE
8
0
10
-0.247106104701
20
0.016195749214
30
0.0
11
-0.249598567904
21
0.0141593575669
31
0.0
0
LINE
8
0
10
-0.249598567904
20
0.0141593575669
30
0.0
11
-0.249598702674
21
0.0141593652122
31
0.0
0
LINE
8
0
10
-0.249598702674
20
0.0141593652122
30
0.0
11
-0.249774243824
21
0.0106220112072
31
0.0
0
LINE
8
0
10
-0.249774243824
20
0.0106220112072
30
0.0
11
-0.249899655531
21
0.00708252537513
31
0.0
0
LINE
8
0
10
-0.249899655531
20
0.00708252537513
30
0.0
11
-0.249974912624
21
0.00354161808718
31
0.0
0
LINE
8
0
10
-0.249974912624
20
0.00354161808718
30
0.0
11
-0.25
21
4.16333634234e-17
31
0.0
0
LINE
8
0
10
-0.25
20
4.16333634234e-17
30
0.0
11
-0.25
21
4.16333634234e-17
31
0.0
0
LINE
8
0
10
-0.25
20
4.16333634234e-17
30
0.0
11
-0.249974912624
21
-0.00354161808718
31
0.0
0
LINE
8
0
10
-0.249974912624
20
-0.00354161808718
30
0.0
11
-0.249899655531
21
-0.00708252537513
31
0.0
0
LINE
8
0
10
-0.249899655531
20
-0.00708252537513
30
0.0
11
-0.249774243824
21
-0.0106220112072
31
0.0
0
LINE
8
0
10
-0.249774243824
20
-0.0106220112072
30
0.0
11
-0.249598702674
21
-0.0141593652122
31
0.0
0
LINE
8
0
10
-0.249598702674
20
-0.0141593652122
30
0.0
11
-0.249598567904
21
-0.0141593575669
31
0.0
0
LINE
8
0
10
-0.249598567904
20
-0.0141593575669
30
0.0
11
-0.247106104701
21
-0.016195749214
31
0.0
0
LINE
8
0
10
-0.247106104701
20
-0.016195749214
30
0.0
11
-0.244627470362
21
-0.0181432741606
31
0.0
0
LINE
8
0
10
-0.244627470362
20
-0.0181432741606
30
0.0
11
-0.242165127707
21
-0.0200032139607
31
0.0
0
LINE
8
0
10
-0.242165127707
20
-0.0200032139607
30
0.0
11
-0.239721495452
21
-0.0217769113952
31
0.0
0
LINE
8
0
10
-0.239721495452
20
-0.0217769113952
30
0.0
11
-0.237298946783
21
-0.0234657692513
31
0.0
0
LINE
8
0
10
-0.237298946783
20
-0.0234657692513
30
0.0
11
-0.234899807946
21
-0.0250712490698
31
0.0
0
LINE
8
0
10
-0.234899807946
20
-0.0250712490698
30
0.0
11
-0.232526356882
21
-0.0265948698601
31
0.0
0
LINE
8
0
10
-0.232526356882
20
-0.0265948698601
30
0.0
11
-0.230180821891
21
-0.0280382067856
31
0.0
0
LINE
8
0
10
-0.230180821891
20
-0.0280382067856
30
0.0
11
-0.227865380318
21
-0.0294028898183
31
0.0
0
LINE
8
0
10
-0.227865380318
20
-0.0294028898183
30
0.0
11
-0.225582157291
21
-0.0306906023646
31
0.0
0
LINE
8
0
10
-0.225582157291
20
-0.0306906023646
30
0.0
11
-0.223333224474
21
-0.0319030798621
31
0.0
0
LINE
8
0
10
-0.223333224474
20
-0.0319030798621
30
0.0
11
-0.22112059887
21
-0.0330421083498
31
0.0
0
LINE
8
0
10
-0.22112059887
20
-0.0330421083498
30
0.0
11
-0.218946241649
21
-0.03410952301
31
0.0
0
LINE
8
0
10
-0.218946241649
20
-0.03410952301
30
0.0
11
-0.216812057016
21
-0.0351072066859
31
0.0
0
LINE
8
0
10
-0.216812057016
20
-0.0351072066859
30
0.0
11
-0.214719891114
21
-0.0360370883724
31
0.0
0
LINE
8
0
10
-0.214719891114
20
-0.0360370883724
30
0.0
11
-0.212671530966
21
-0.0369011416837
31
0.0
0
LINE
8
0
10
-0.212671530966
20
-0.0369011416837
30
0.0
11
-0.210668703452
21
-0.037701383297
31
0.0
0
LINE
8
0
10
-0.210668703452
20
-0.037701383297
30
0.0
11
-0.208713074325
21
-0.0384398713735
31
0.0
0
LINE
8
0
10
-0.208713074325
20
-0.0384398713735
30
0.0
11
-0.206806247265
21
-0.039118703958
31
0.0
0
LINE
8
0
10
-0.206806247265
20
-0.039118703958
30
0.0
11
-0.204949762972
21
-0.0397400173574
31
0.0
0
LINE
8
0
10
-0.204949762972
20
-0.0397400173574
30
0.0
11
-0.2031450983
21
-0.0403059844995
31
0.0
0
LINE
8
0
10
-0.2031450983
20
-0.0403059844995
30
0.0
11
-0.201393665426
21
-0.0408188132724
31
0.0
0
LINE
8
0
10
-0.201393665426
20
-0.0408188132724
30
0.0
11
-0.199696811065
21
-0.0412807448465
31
0.0
0
LINE
8
0
10
-0.199696811065
20
-0.0412807448465
30
0.0
11
-0.198055815722
21
-0.0416940519785
31
0.0
0
LINE
8
0
10
-0.198055815722
20
-0.0416940519785
30
0.0
11
-0.196471892985
21
-0.0420610372999
31
0.0
0
LINE
8
0
10
-0.196471892985
20
-0.0420610372999
30
0.0
11
-0.19494618886
21
-0.0423840315896
31
0.0
0
LINE
8
0
10
-0.19494618886
20
-0.0423840315896
30
0.0
11
-0.19347978115
21
-0.0426653920327
31
0.0
0
LINE
8
0
10
-0.19347978115
20
-0.0426653920327
30
0.0
11
-0.192073678869
21
-0.0429075004655
31
0.0
0
LINE
8
0
10
-0.192073678869
20
-0.0429075004655
30
0.0
11
-0.190728821705
21
-0.0431127616085
31
0.0
0
LINE
8
0
10
-0.190728821705
20
-0.0431127616085
30
0.0
11
-0.189446079526
21
-0.0432836012875
31
0.0
0
LINE
8
0
10
-0.189446079526
20
-0.0432836012875
30
0.0
11
-0.188226251917
21
-0.0434224646444
31
0.0
0
LINE
8
0
10
-0.188226251917
20
-0.0434224646444
30
0.0
11
-0.187070067778
21
-0.0435318143387
31
0.0
0
LINE
8
0
10
-0.187070067778
20
-0.0435318143387
30
0.0
11
-0.185978184948
21
-0.0436141287406
31
0.0
0
LINE
8
0
10
-0.185978184948
20
-0.0436141287406
30
0.0
11
-0.184951189886
21
-0.0436719001157
31
0.0
0
LINE
8
0
10
-0.184951189886
20
-0.0436719001157
30
0.0
11
-0.183989597384
21
-0.0437076328044
31
0.0
0
LINE
8
0
10
-0.183989597384
20
-0.0437076328044
30
0.0
11
-0.183093850329
21
-0.0437238413948
31
0.0
0
LINE
8
0
10
-0.183093850329
20
-0.0437238413948
30
0.0
11
-0.182264319511
21
-0.0437230488917
31
0.0
0
LINE
8
0
10
-0.182264319511
20
-0.0437230488917
30
0.0
11
-0.181501303472
21
-0.0437077848816
31
0.0
0
LINE
8
0
10
-0.181501303472
20
-0.0437077848816
30
0.0
11
-0.180805028393
21
-0.0436805836955
31
0.0
0
LINE
8
0
10
-0.180805028393
20
-0.0436805836955
30
0.0
11
-0.180175648037
21
-0.0436439825699
31
0.0
0
LINE
8
0
10
-0.180175648037
20
-0.0436439825699
30
0.0
11
-0.179613243725
21
-0.0436005198075
31
0.0
0
LINE
8
0
10
-0.179613243725
20
-0.0436005198075
30
0.0
11
-0.179117824364
21
-0.043552732938
31
0.0
0
LINE
8
0
10
-0.179117824364
20
-0.043552732938
30
0.0
11
-0.178689326507
21
-0.0435031568811
31
0.0
0
LINE
8
0
10
-0.178689326507
20
-0.0435031568811
30
0.0
11
-0.178327614475
21
-0.0434543221111
31
0.0
0
LINE
8
0
10
-0.178327614475
20
-0.0434543221111
30
0.0
11
-0.178032480502
21
-0.0434087528254
31
0.0
0
LINE
8
0
10
-0.178032480502
20
-0.0434087528254
30
0.0
11
-0.177803644942
21
-0.0433689651174
31
0.0
0
LINE
8
0
10
-0.177803644942
20
-0.0433689651174
30
0.0
11
-0.177640756504
21
-0.0433374651551
31
0.0
0
LINE
8
0
10
-0.177640756504
20
-0.0433374651551
30
0.0
11
-0.177543392542
21
-0.0433167473657
31
0.0
0
LINE
8
0
10
-0.177543392542
20
-0.0433167473657
30
0.0
11
-0.177511059383
21
-0.0433092926277
31
0.0
0
LINE
8
0
10
-0.177511059383
20
-0.0433092926277
30
0.0
11
-0.177511287699
21
-0.0433093483324
31
0.0
0
LINE
8
0
10
-0.177511287699
20
-0.0433093483324
30
0.0
11
-0.175750381154
21
-0.0421926621259
31
0.0
0
LINE
8
0
10
-0.175750381154
20
-0.0421926621259
30
0.0
11
-0.173993425645
21
-0.0411334411193
31
0.0
0
LINE
8
0
10
-0.173993425645
20
-0.0411334411193
30
0.0
11
-0.172241680398
21
-0.0401313499052
31
0.0
0
LINE
8
0
10
-0.172241680398
20
-0.0401313499052
30
0.0
11
-0.170496395944
21
-0.0391860291468
31
0.0
0
LINE
8
0
10
-0.170496395944
20
-0.0391860291468
30
0.0
11
-0.168758813691
21
-0.0382970957572
31
0.0
0
LINE
8
0
10
-0.168758813691
20
-0.0382970957572
30
0.0
11
-0.167030165507
21
-0.0374641430854
31
0.0
0
LINE
8
0
10
-0.167030165507
20
-0.0374641430854
30
0.0
11
-0.165311673304
21
-0.0366867411092
31
0.0
0
LINE
8
0
10
-0.165311673304
20
-0.0366867411092
30
0.0
11
-0.163604548629
21
-0.0359644366356
31
0.0
0
LINE
8
0
10
-0.163604548629
20
-0.0359644366356
30
0.0
11
-0.161909992248
21
-0.035296753508
31
0.0
0
LINE
8
0
10
-0.161909992248
20
-0.035296753508
30
0.0
11
-0.160229193752
21
-0.0346831928197
31
0.0
0
LINE
8
0
10
-0.160229193752
20
-0.0346831928197
30
0.0
11
-0.158563331148
21
-0.0341232331353
31
0.0
0
LINE
8
0
10
-0.158563331148
20
-0.0341232331353
30
0.0
11
-0.156913570465
21
-0.0336163307177
31
0.0
0
LINE
8
0
10
-0.156913570465
20
-0.0336163307177
30
0.0
11
-0.155281065362
21
-0.0331619197625
31
0.0
0
LINE
8
0
10
-0.155281065362
20
-0.0331619197625
30
0.0
11
-0.153666956743
21
-0.0327594126389
31
0.0
0
LINE
8
0
10
-0.153666956743
20
-0.0327594126389
30
0.0
11
-0.152072372364
21
-0.0324082001368
31
0.0
0
LINE
8
0
10
-0.152072372364
20
-0.0324082001368
30
0.0
11
-0.150498426464
21
-0.0321076517208
31
0.0
0
LINE
8
0
10
-0.150498426464
20
-0.0321076517208
30
0.0
11
-0.148946219382
21
-0.0318571157904
31
0.0
0
LINE
8
0
10
-0.148946219382
20
-0.0318571157904
30
0.0
11
-0.147416837192
21
-0.031655919946
31
0.0
0
LINE
8
0
10
-0.147416837192
20
-0.031655919946
30
0.0
11
-0.145911351334
21
-0.0315033712623
31
0.0
0
LINE
8
0
10
-0.145911351334
20
-0.0315033712623
30
0.0
11
-0.144430818254
21
-0.0313987565668
31
0.0
0
LINE
8
0
10
-0.144430818254
20
-0.0313987565668
30
0.0
11
-0.142976279051
21
-0.0313413427244
31
0.0
0
LINE
8
0
10
-0.142976279051
20
-0.0313413427244
30
0.0
11
-0.141548759122
21
-0.031330376929
31
0.0
0
LINE
8
0
10
-0.141548759122
20
-0.031330376929
30
0.0
11
-0.140149267821
21
-0.0313650869994
31
0.0
0
LINE
8
0
10
-0.140149267821
20
-0.0313650869994
30
0.0
11
-0.138778798113
21
-0.0314446816826
31
0.0
0
LINE
8
0
10
-0.138778798113
20
-0.0314446816826
30
0.0
11
-0.137438326244
21
-0.0315683509618
31
0.0
0
LINE
8
0
10
-0.137438326244
20
-0.0315683509618
30
0.0
11
-0.136128811411
21
-0.0317352663703
31
0.0
0
LINE
8
0
10
-0.136128811411
20
-0.0317352663703
30
0.0
11
-0.134851195435
21
-0.0319445813108
31
0.0
0
LINE
8
0
10
-0.134851195435
20
-0.0319445813108
30
0.0
11
-0.133606402445
21
-0.0321954313805
31
0.0
0
LINE
8
0
10
-0.133606402445
20
-0.0321954313805
30
0.0
11
-0.132395338563
21
-0.0324869347015
31
0.0
0
LINE
8
0
10
-0.132395338563
20
-0.0324869347015
30
0.0
11
-0.131218891602
21
-0.0328181922558
31
0.0
0
LINE
8
0
10
-0.131218891602
20
-0.0328181922558
30
0.0
11
-0.130077930758
21
-0.0331882882261
31
0.0
0
LINE
8
0
10
-0.130077930758
20
-0.0331882882261
30
0.0
11
-0.128973306321
21
-0.0335962903417
31
0.0
0
LINE
8
0
10
-0.128973306321
20
-0.0335962903417
30
0.0
11
-0.127905849384
21
-0.034041250229
31
0.0
0
LINE
8
0
10
-0.127905849384
20
-0.034041250229
30
0.0
11
-0.126876371556
21
-0.0345222037669
31
0.0
0
LINE
8
0
10
-0.126876371556
20
-0.0345222037669
30
0.0
11
-0.125885664694
21
-0.0350381714468
31
0.0
0
LINE
8
0
10
-0.125885664694
20
-0.0350381714468
30
0.0
11
-0.124934500623
21
-0.0355881587382
31
0.0
0
LINE
8
0
10
-0.124934500623
20
-0.0355881587382
30
0.0
11
-0.124023630879
21
-0.0361711564573
31
0.0
0
LINE
8
0
10
-0.124023630879
20
-0.0361711564573
30
0.0
11
-0.123153786447
21
-0.0367861411413
31
0.0
0
LINE
8
0
10
-0.123153786447
20
-0.0367861411413
30
0.0
11
-0.122325677514
21
-0.0374320754264
31
0.0
0
LINE
8
0
10
-0.122325677514
20
-0.0374320754264
30
0.0
11
-0.121539993218
21
-0.0381079084304
31
0.0
0
LINE
8
0
10
-0.121539993218
20
-0.0381079084304
30
0.0
11
-0.120797401418
21
-0.0388125761387
31
0.0
0
LINE
8
0
10
-0.120797401418
20
-0.0388125761387
30
0.0
11
-0.120098548457
21
-0.0395450017953
31
0.0
0
LINE
8
0
10
-0.120098548457
20
-0.0395450017953
30
0.0
11
-0.119444058938
21
-0.0403040962968
31
0.0
0
LINE
8
0
10
-0.119444058938
20
-0.0403040962968
30
0.0
11
-0.11883453551
21
-0.0410887585908
31
0.0
0
LINE
8
0
10
-0.11883453551
20
-0.0410887585908
30
0.0
11
-0.118270558653
21
-0.0418978760774
31
0.0
0
LINE
8
0
10
-0.118270558653
20
-0.0418978760774
30
0.0
11
-0.117752686477
21
-0.0427303250147
31
0.0
0
LINE
8
0
10
-0.117752686477
20
-0.0427303250147
30
0.0
11
-0.117281454524
21
-0.0435849709276
31
0.0
0
LINE
8
0
10
-0.117281454524
20
-0.0435849709276
30
0.0
11
-0.116857375577
21
-0.0444606690196
31
0.0
0
LINE
8
0
10
-0.116857375577
20
-0.0444606690196
30
0.0
11
-0.116480939482
21
-0.0453562645884
31
0.0
0
LINE
8
0
10
-0.116480939482
20
-0.0453562645884
30
0.0
11
-0.116480939482
21
-0.0453562645884
31
0.0
0
LINE
8
0
10
-0.116480939482
20
-0.0453562645884
30
0.0
11
-0.115580660378
21
-0.0476036862702
31
0.0
0
LINE
8
0
10
-0.115580660378
20
-0.0476036862702
30
0.0
11
-0.114637023498
21
-0.0498332503799
31
0.0
0
LINE
8
0
10
-0.114637023498
20
-0.0498332503799
30
0.0
11
-0.113650382829
21
-0.052044120541
31
0.0
0
LINE
8
0
10
-0.113650382829
20
-0.052044120541
30
0.0
11
-0.112621108488
21
-0.0542354673897
31
0.0
0
LINE
8
0
10
-0.112621108488
20
-0.0542354673897
30
0.0
11
-0.112621108488
21
-0.0542354673897
31
0.0
0
LINE
8
0
10
-0.112621108488
20
-0.0542354673897
30
0.0
11
-0.111549586587
21
-0.056406468886
31
0.0
0
LINE
8
0
10
-0.111549586587
20
-0.056406468886
30
0.0
11
-0.110436219087
21
-0.0585563106222
31
0.0
0
LINE
8
0
10
-0.110436219087
20
-0.0585563106222
30
0.0
11
-0.109281423646
21
-0.0606841861279
31
0.0
0
LINE
8
0
10
-0.109281423646
20
-0.0606841861279
30
0.0
11
-0.10808563346
21
-0.0627892971732
31
0.0
0
LINE
8
0
10
-0.10808563346
20
-0.0627892971732
30
0.0
11
-0.10808563346
21
-0.0627892971732
31
0.0
0
LINE
8
0
10
-0.10808563346
20
-0.0627892971732
30
0.0
11
-0.107620132716
21
-0.0636420014674
31
0.0
0
LINE
8
0
10
-0.107620132716
20
-0.0636420014674
30
0.0
11
-0.107199893276
21
-0.0645195485687
31
0.0
0
LINE
8
0
10
-0.107199893276
20
-0.0645195485687
30
0.0
11
-0.106825512513
21
-0.0654208355564
31
0.0
0
LINE
8
0
10
-0.106825512513
20
-0.0654208355564
30
0.0
11
-0.106497565746
21
-0.0663447477505
31
0.0
0
LINE
8
0
10
-0.106497565746
20
-0.0663447477505
30
0.0
11
-0.106216606041
21
-0.067290159114
31
0.0
0
LINE
8
0
10
-0.106216606041
20
-0.067290159114
30
0.0
11
-0.105983163998
21
-0.0682559326575
31
0.0
0
LINE
8
0
10
-0.105983163998
20
-0.0682559326575
30
0.0
11
-0.105797747559
21
-0.0692409208485
31
0.0
0
LINE
8
0
10
-0.105797747559
20
-0.0692409208485
30
0.0
11
-0.105660841816
21
-0.0702439660228
31
0.0
0
LINE
8
0
10
-0.105660841816
20
-0.0702439660228
30
0.0
11
-0.105572908831
21
-0.0712639008004
31
0.0
0
LINE
8
0
10
-0.105572908831
20
-0.0712639008004
30
0.0
11
-0.105534387458
21
-0.0722995485035
31
0.0
0
LINE
8
0
10
-0.105534387458
20
-0.0722995485035
30
0.0
11
-0.105545693173
21
-0.0733497235783
31
0.0
0
LINE
8
0
10
-0.105545693173
20
-0.0733497235783
30
0.0
11
-0.105607217918
21
-0.0744132320185
31
0.0
0
LINE
8
0
10
-0.105607217918
20
-0.0744132320185
30
0.0
11
-0.105719329943
21
-0.0754888717933
31
0.0
0
LINE
8
0
10
-0.105719329943
20
-0.0754888717933
30
0.0
11
-0.105882373662
21
-0.0765754332762
31
0.0
0
LINE
8
0
10
-0.105882373662
20
-0.0765754332762
30
0.0
11
-0.106096669511
21
-0.0776716996778
31
0.0
0
LINE
8
0
10
-0.106096669511
20
-0.0776716996778
30
0.0
11
-0.10636251382
21
-0.0787764474796
31
0.0
0
LINE
8
0
10
-0.10636251382
20
-0.0787764474796
30
0.0
11
-0.106680178687
21
-0.0798884468716
31
0.0
0
LINE
8
0
10
-0.106680178687
20
-0.0798884468716
30
0.0
11
-0.107049911859
21
-0.0810064621906
31
0.0
0
LINE
8
0
10
-0.107049911859
20
-0.0810064621906
30
0.0
11
-0.107471936628
21
-0.0821292523617
31
0.0
0
LINE
8
0
10
-0.107471936628
20
-0.0821292523617
30
0.0
11
-0.107946451726
21
-0.0832555713405
31
0.0
0
LINE
8
0
10
-0.107946451726
20
-0.0832555713405
30
0.0
11
-0.108473631232
21
-0.0843841685583
31
0.0
0
LINE
8
0
10
-0.108473631232
20
-0.0843841685583
30
0.0
11
-0.109053624485
21
-0.0855137893678
31
0.0
0
LINE
8
0
10
-0.109053624485
20
-0.0855137893678
30
0.0
11
-0.109686556007
21
-0.0866431754912
31
0.0
0
LINE
8
0
10
-0.109686556007
20
-0.0866431754912
30
0.0
11
-0.110372525429
21
-0.0877710654694
31
0.0
0
LINE
8
0
10
-0.110372525429
20
-0.0877710654694
30
0.0
11
-0.111111607433
21
-0.0888961951118
31
0.0
0
LINE
8
0
10
-0.111111607433
20
-0.0888961951118
30
0.0
11
-0.111903851691
21
-0.0900172979486
31
0.0
0
LINE
8
0
10
-0.111903851691
20
-0.0900172979486
30
0.0
11
-0.112749282819
21
-0.0911331056826
31
0.0
0
LINE
8
0
10
-0.112749282819
20
-0.0911331056826
30
0.0
11
-0.113647900341
21
-0.092242348643
31
0.0
0
LINE
8
0
10
-0.113647900341
20
-0.092242348643
30
0.0
11
-0.11459967865
21
-0.0933437562392
31
0.0
0
LINE
8
0
10
-0.11459967865
20
-0.0933437562392
30
0.0
11
-0.115604566989
21
-0.0944360574159
31
0.0
0
LINE
8
0
10
-0.115604566989
20
-0.0944360574159
30
0.0
11
-0.116662489432
21
-0.0955179811078
31
0.0
0
LINE
8
0
10
-0.116662489432
20
-0.0955179811078
30
0.0
11
-0.117773344876
21
-0.0965882566958
31
0.0
0
LINE
8
0
10
-0.117773344876
20
-0.0965882566958
30
0.0
11
-0.11893700704
21
-0.0976456144619
31
0.0
0
LINE
8
0
10
-0.11893700704
20
-0.0976456144619
30
0.0
11
-0.120153324471
21
-0.0986887860461
31
0.0
0
LINE
8
0
10
-0.120153324471
20
-0.0986887860461
30
0.0
11
-0.12142212056
21
-0.0997165049013
31
0.0
0
LINE
8
0
10
-0.12142212056
20
-0.0997165049013
30
0.0
11
-0.122743193565
21
-0.10072750675
31
0.0
0
LINE
8
0
10
-0.122743193565
20
-0.10072750675
30
0.0
11
-0.124116316638
21
-0.101720530037
31
0.0
0
LINE
8
0
10
-0.124116316638
20
-0.101720530037
30
0.0
11
-0.125541237868
21
-0.10269431639
31
0.0
0
LINE
8
0
10
-0.125541237868
20
-0.10269431639
30
0.0
11
-0.127017680324
21
-0.103647611067
31
0.0
0
LINE
8
0
10
-0.127017680324
20
-0.103647611067
30
0.0
11
-0.128545342107
21
-0.104579163415
31
0.0
0
LINE
8
0
10
-0.128545342107
20
-0.104579163415
30
0.0
11
-0.130123896419
21
-0.105487727321
31
0.0
0
LINE
8
0
10
-0.130123896419
20
-0.105487727321
30
0.0
11
-0.131752991622
21
-0.106372061664
31
0.0
0
LINE
8
0
10
-0.131752991622
20
-0.106372061664
30
0.0
11
-0.133432251324
21
-0.107230930766
31
0.0
0
LINE
8
0
10
-0.133432251324
20
-0.107230930766
30
0.0
11
-0.13516127446
21
-0.108063104842
31
0.0
0
LINE
8
0
10
-0.13516127446
20
-0.108063104842
30
0.0
11
-0.136939635384
21
-0.108867360448
31
0.0
0
LINE
8
0
10
-0.136939635384
20
-0.108867360448
30
0.0
11
-0.138766883973
21
-0.109642480927
31
0.0
0
LINE
8
0
10
-0.138766883973
20
-0.109642480927
30
0.0
11
-0.140642545729
21
-0.110387256858
31
0.0
0
LINE
8
0
10
-0.140642545729
20
-0.110387256858
30
0.0
11
-0.142566121902
21
-0.111100486494
31
0.0
0
LINE
8
0
10
-0.142566121902
20
-0.111100486494
30
0.0
11
-0.144537089607
21
-0.111780976206
31
0.0
0
LINE
8
0
10
-0.144537089607
20
-0.111780976206
30
0.0
11
-0.144536903702
21
-0.111780832433
31
0.0
0
LINE
8
0
10
-0.144536903702
20
-0.111780832433
30
0.0
11
-0.144562891446
21
-0.111801463561
31
0.0
0
LINE
8
0
10
-0.144562891446
20
-0.111801463561
30
0.0
11
-0.144639794703
21
-0.111864668441
31
0.0
0
LINE
8
0
10
-0.144639794703
20
-0.111864668441
30
0.0
11
-0.144765981645
21
-0.111972379845
31
0.0
0
LINE
8
0
10
-0.144765981645
20
-0.111972379845
30
0.0
11
-0.144939765566
21
-0.112126483461
31
0.0
0
LINE
8
0
10
-0.144939765566
20
-0.112126483461
30
0.0
11
-0.145159406091
21
-0.112328816507
31
0.0
0
LINE
8
0
10
-0.145159406091
20
-0.112328816507
30
0.0
11
-0.145423110415
21
-0.11258116638
31
0.0
0
LINE
8
0
10
-0.145423110415
20
-0.11258116638
30
0.0
11
-0.14572903458
21
-0.112885269329
31
0.0
0
LINE
8
0
10
-0.14572903458
20
-0.112885269329
30
0.0
11
-0.146075284779
21
-0.113242809157
31
0.0
0
LINE
8
0
10
-0.146075284779
20
-0.113242809157
30
0.0
11
-0.146459918688
21
-0.113655415964
31
0.0
0
LINE
8
0
10
-0.146459918688
20
-0.113655415964
30
0.0
11
-0.146880946833
21
-0.114124664913
31
0.0
0
LINE
8
0
10
-0.146880946833
20
-0.114124664913
30
0.0
11
-0.147336333988
21
-0.114652075028
31
0.0
0
LINE
8
0
10
-0.147336333988
20
-0.114652075028
30
0.0
11
-0.147824000591
21
-0.115239108034
31
0.0
0
LINE
8
0
10
-0.147824000591
20
-0.115239108034
30
0.0
11
-0.1483418242
21
-0.115887167226
31
0.0
0
LINE
8
0
10
-0.1483418242
20
-0.115887167226
30
0.0
11
-0.148887640968
21
-0.116597596364
31
0.0
0
LINE
8
0
10
-0.148887640968
20
-0.116597596364
30
0.0
11
-0.149459247146
21
-0.117371678623
31
0.0
0
LINE
8
0
10
-0.149459247146
20
-0.117371678623
30
0.0
11
-0.150054400613
21
-0.118210635558
31
0.0
0
LINE
8
0
10
-0.150054400613
20
-0.118210635558
30
0.0
11
-0.150670822431
21
-0.119115626119
31
0.0
0
LINE
8
0
10
-0.150670822431
20
-0.119115626119
30
0.0
11
-0.151306198418
21
-0.120087745698
31
0.0
0
LINE
8
0
10
-0.151306198418
20
-0.120087745698
30
0.0
11
-0.151958180748
21
-0.121128025213
31
0.0
0
LINE
8
0
10
-0.151958180748
20
-0.121128025213
30
0.0
11
-0.152624389576
21
-0.12223743023
31
0.0
0
LINE
8
0
10
-0.152624389576
20
-0.12223743023
30
0.0
11
-0.153302414678
21
-0.123416860129
31
0.0
0
LINE
8
0
10
-0.153302414678
20
-0.123416860129
30
0.0
11
-0.153989817116
21
-0.124667147299
31
0.0
0
LINE
8
0
10
-0.153989817116
20
-0.124667147299
30
0.0
11
-0.154684130916
21
-0.12598905638
31
0.0
0
LINE
8
0
10
-0.154684130916
20
-0.12598905638
30
0.0
11
-0.155382864774
21
-0.127383283543
31
0.0
0
LINE
8
0
10
-0.155382864774
20
-0.127383283543
30
0.0
11
-0.15608350377
21
-0.12885045581
31
0.0
0
LINE
8
0
10
-0.15608350377
20
-0.12885045581
30
0.0
11
-0.156783511103
21
-0.130391130414
31
0.0
0
LINE
8
0
10
-0.156783511103
20
-0.130391130414
30
0.0
11
-0.157480329845
21
-0.1320057942
31
0.0
0
LINE
8
0
10
-0.157480329845
20
-0.1320057942
30
0.0
11
-0.158171384701
21
-0.133694863071
31
0.0
0
LINE
8
0
10
-0.158171384701
20
-0.133694863071
30
0.0
11
-0.15885408379
21
-0.135458681468
31
0.0
0
LINE
8
0
10
-0.15885408379
20
-0.135458681468
30
0.0
11
-0.159525820438
21
-0.137297521903
31
0.0
0
LINE
8
0
10
-0.159525820438
20
-0.137297521903
30
0.0
11
-0.160183974978
21
-0.139211584524
31
0.0
0
LINE
8
0
10
-0.160183974978
20
-0.139211584524
30
0.0
11
-0.160825916567
21
-0.141200996728
31
0.0
0
LINE
8
0
10
-0.160825916567
20
-0.141200996728
30
0.0
11
-0.16144900501
21
-0.143265812817
31
0.0
0
LINE
8
0
10
-0.16144900501
20
-0.143265812817
30
0.0
11
-0.162050592592
21
-0.145406013696
31
0.0
0
LINE
8
0
10
-0.162050592592
20
-0.145406013696
30
0.0
11
-0.162628025918
21
-0.147621506613
31
0.0
0
LINE
8
0
10
-0.162628025918
20
-0.147621506613
30
0.0
11
-0.163178647765
21
-0.149912124947
31
0.0
0
LINE
8
0
10
-0.163178647765
20
-0.149912124947
30
0.0
11
-0.163699798932
21
-0.152277628031
31
0.0
0
LINE
8
0
10
-0.163699798932
20
-0.152277628031
30
0.0
11
-0.1641888201
21
-0.154717701033
31
0.0
0
LINE
8
0
10
-0.1641888201
20
-0.154717701033
30
0.0
11
-0.164643053696
21
-0.157231954866
31
0.0
0
LINE
8
0
10
-0.164643053696
20
-0.157231954866
30
0.0
11
-0.16505984576
21
-0.15981992615
31
0.0
0
LINE
8
0
10
-0.16505984576
20
-0.15981992615
30
0.0
11
-0.165436547809
21
-0.162481077221
31
0.0
0
LINE
8
0
10
-0.165436547809
20
-0.162481077221
30
0.0
11
-0.165770518708
21
-0.165214796175
31
0.0
0
LINE
8
0
10
-0.165770518708
20
-0.165214796175
30
0.0
11
-0.16605912654
21
-0.168020396963
31
0.0
0
LINE
8
0
10
-0.16605912654
20
-0.168020396963
30
0.0
11
-0.166299750472
21
-0.17089711953
31
0.0
0
LINE
8
0
10
-0.166299750472
20
-0.17089711953
30
0.0
11
-0.16648978262
21
-0.173844129998
31
0.0
0
LINE
8
0
10
-0.16648978262
20
-0.173844129998
30
0.0
11
-0.166626629916
21
-0.176860520888
31
0.0
0
LINE
8
0
10
-0.166626629916
20
-0.176860520888
30
0.0
11
-0.166707715959
21
-0.179945311394
31
0.0
0
LINE
8
0
10
-0.166707715959
20
-0.179945311394
30
0.0
11
-0.166730482876
21
-0.183097447697
31
0.0
0
LINE
8
0
10
-0.166730482876
20
-0.183097447697
30
0.0
11
-0.166692393164
21
-0.186315803323
31
0.0
0
LINE
8
0
10
-0.166692393164
20
-0.186315803323
30
0.0
11
-0.166692483169
21
-0.186315903923
31
0.0
0
LINE
8
0
10
-0.166692483169
20
-0.186315903923
30
0.0
11
-0.16403631656
21
-0.188658651668
31
0.0
0
LINE
8
0
10
-0.16403631656
20
-0.188658651668
30
0.0
11
-0.161347228025
21
-0.190963535809
31
0.0
0
LINE
8
0
10
-0.161347228025
20
-0.190963535809
30
0.0
11
-0.158625757261
21
-0.193230093757
31
0.0
0
LINE
8
0
10
-0.158625757261
20
-0.193230093757
30
0.0
11
-0.155872450465
21
-0.195457870617
31
0.0
0
LINE
8
0
10
-0.155872450465
20
-0.195457870617
30
0.0
11
-0.155872450465
21
-0.195457870617
31
0.0
0
LINE
8
0
10
-0.155872450465
20
-0.195457870617
30
0.0
11
-0.153087860222
21
-0.197646419276
31
0.0
0
LINE
8
0
10
-0.153087860222
20
-0.197646419276
30
0.0
11
-0.150272545398
21
-0.199795300495
31
0.0
0
LINE
8
0
10
-0.150272545398
20
-0.199795300495
30
0.0
11
-0.147427071022
21
-0.201904082994
31
0.0
0
LINE
8
0
10
-0.147427071022
20
-0.201904082994
30
0.0
11
-0.14455200818
21
-0.203972343545
31
0.0
0
LINE
8
0
10
-0.14455200818
20
-0.203972343545
30
0.0
11
-0.14455193013
21
-0.20397223341
31
0.0
0
LINE
8
0
10
-0.14455193013
20
-0.20397223341
30
0.0
11
-0.141405789641
21
-0.203293216634
31
0.0
0
LINE
8
0
10
-0.141405789641
20
-0.203293216634
30
0.0
11
-0.138337750092
21
-0.202569604217
31
0.0
0
LINE
8
0
10
-0.138337750092
20
-0.202569604217
30
0.0
11
-0.135348345066
21
-0.201804120706
31
0.0
0
LINE
8
0
10
-0.135348345066
20
-0.201804120706
30
0.0
11
-0.132438032781
21
-0.20099949434
31
0.0
0
LINE
8
0
10
-0.132438032781
20
-0.20099949434
30
0.0
11
-0.12960719615
21
-0.200158455172
31
0.0
0
LINE
8
0
10
-0.12960719615
20
-0.200158455172
30
0.0
11
-0.126856142885
21
-0.199283733192
31
0.0
0
LINE
8
0
10
-0.126856142885
20
-0.199283733192
30
0.0
11
-0.124185105651
21
-0.198378056454
31
0.0
0
LINE
8
0
10
-0.124185105651
20
-0.198378056454
30
0.0
11
-0.121594242255
21
-0.197444149208
31
0.0
0
LINE
8
0
10
-0.121594242255
20
-0.197444149208
30
0.0
11
-0.119083635889
21
-0.196484730044
31
0.0
0
LINE
8
0
10
-0.119083635889
20
-0.196484730044
30
0.0
11
-0.116653295407
21
-0.19550251004
31
0.0
0
LINE
8
0
10
-0.116653295407
20
-0.19550251004
30
0.0
11
-0.114303155652
21
-0.194500190917
31
0.0
0
LINE
8
0
10
-0.114303155652
20
-0.194500190917
30
0.0
11
-0.112033077822
21
-0.193480463207
31
0.0
0
LINE
8
0
10
-0.112033077822
20
-0.193480463207
30
0.0
11
-0.109842849883
21
-0.192446004433
31
0.0
0
LINE
8
0
10
-0.109842849883
20
-0.192446004433
30
0.0
11
-0.107732187021
21
-0.191399477294
31
0.0
0
LINE
8
0
10
-0.107732187021
20
-0.191399477294
30
0.0
11
-0.10570073214
21
-0.190343527874
31
0.0
0
LINE
8
0
10
-0.10570073214
20
-0.190343527874
30
0.0
11
-0.103748056396
21
-0.189280783851
31
0.0
0
LINE
8
0
10
-0.103748056396
20
-0.189280783851
30
0.0
11
-0.101873659779
21
-0.188213852731
31
0.0
0
LINE
8
0
10
-0.101873659779
20
-0.188213852731
30
0.0
11
-0.100076971734
21
-0.187145320096
31
0.0
0
LINE
8
0
10
-0.100076971734
20
-0.187145320096
30
0.0
11
-0.0983573518224
21
-0.186077747862
31
0.0
0
LINE
8
0
10
-0.0983573518224
20
-0.186077747862
30
0.0
11
-0.0967140904225
21
-0.185013672564
31
0.0
0
LINE
8
0
10
-0.0967140904225
20
-0.185013672564
30
0.0
11
-0.0951464094739
21
-0.183955603649
31
0.0
0
LINE
8
0
10
-0.0951464094739
20
-0.183955603649
30
0.0
11
-0.0936534632586
21
-0.182906021799
31
0.0
0
LINE
8
0
10
-0.0936534632586
20
-0.182906021799
30
0.0
11
-0.092234339222
21
-0.181867377264
31
0.0
0
LINE
8
0
10
-0.092234339222
20
-0.181867377264
30
0.0
11
-0.0908880588329
21
-0.180842088224
31
0.0
0
LINE
8
0
10
-0.0908880588329
20
-0.180842088224
30
0.0
11
-0.0896135784815
21
-0.179832539168
31
0.0
0
LINE
8
0
10
-0.0896135784815
20
-0.179832539168
30
0.0
11
-0.0884097904149
21
-0.178841079296
31
0.0
0
LINE
8
0
10
-0.0884097904149
20
-0.178841079296
30
0.0
11
-0.0872755237098
21
-0.177870020949
31
0.0
0
LINE
8
0
10
-0.0872755237098
20
-0.177870020949
30
0.0
11
-0.0862095452821
21
-0.176921638056
31
0.0
0
LINE
8
0
10
-0.0862095452821
20
-0.176921638056
30
0.0
11
-0.0852105609322
21
-0.175998164616
31
0.0
0
LINE
8
0
10
-0.0852105609322
20
-0.175998164616
30
0.0
11
-0.0842772164252
21
-0.175101793194
31
0.0
0
LINE
8
0
10
-0.0842772164252
20
-0.175101793194
30
0.0
11
-0.083408098607
21
-0.174234673453
31
0.0
0
LINE
8
0
10
-0.083408098607
20
-0.174234673453
30
0.0
11
-0.0826017365534
21
-0.173398910713
31
0.0
0
LINE
8
0
10
-0.0826017365534
20
-0.173398910713
30
0.0
11
-0.0818566027538
21
-0.172596564532
31
0.0
0
LINE
8
0
10
-0.0818566027538
20
-0.172596564532
30
0.0
11
-0.0811711143262
21
-0.171829647323
31
0.0
0
LINE
8
0
10
-0.0811711143262
20
-0.171829647323
30
0.0
11
-0.0805436342663
21
-0.171100122998
31
0.0
0
LINE
8
0
10
-0.0805436342663
20
-0.171100122998
30
0.0
11
-0.0799724727261
21
-0.170409905641
31
0.0
0
LINE
8
0
10
-0.0799724727261
20
-0.170409905641
30
0.0
11
-0.079455888325
21
-0.169760858215
31
0.0
0
LINE
8
0
10
-0.079455888325
20
-0.169760858215
30
0.0
11
-0.0789920894892
21
-0.169154791299
31
0.0
0
LINE
8
0
10
-0.0789920894892
20
-0.169154791299
30
0.0
11
-0.0785792358219
21
-0.168593461859
31
0.0
0
LINE
8
0
10
-0.0785792358219
20
-0.168593461859
30
0.0
11
-0.0782154395007
21
-0.168078572054
31
0.0
0
LINE
8
0
10
-0.0782154395007
20
-0.168078572054
30
0.0
11
-0.0778987667041
21
-0.167611768068
31
0.0
0
LINE
8
0
10
-0.0778987667041
20
-0.167611768068
30
0.0
11
-0.0776272390633
21
-0.167194638989
31
0.0
0
LINE
8
0
10
-0.0776272390633
20
-0.167194638989
30
0.0
11
-0.0773988351418
21
-0.166828715708
31
0.0
0
LINE
8
0
10
-0.0773988351418
20
-0.166828715708
30
0.0
11
-0.077211491939
21
-0.166515469873
31
0.0
0
LINE
8
0
10
-0.077211491939
20
-0.166515469873
30
0.0
11
-0.0770631064192
21
-0.166256312857
31
0.0
0
LINE
8
0
10
-0.0770631064192
20
-0.166256312857
30
0.0
11
-0.0769515370637
21
-0.166052594781
31
0.0
0
LINE
8
0
10
-0.0769515370637
20
-0.166052594781
30
0.0
11
-0.0768746054459
21
-0.165905603567
31
0.0
0
LINE
8
0
10
-0.0768746054459
20
-0.165905603567
30
0.0
11
-0.0768300978288
21
-0.165816564026
31
0.0
0
LINE
8
0
10
-0.0768300978288
20
-0.165816564026
30
0.0
11
-0.0768157667827
21
-0.165786636991
31
0.0
0
LINE
8
0
10
-0.0768157667827
20
-0.165786636991
30
0.0
11
-0.0768158655838
21
-0.165786850227
31
0.0
0
LINE
8
0
10
-0.0768158655838
20
-0.165786850227
30
0.0
11
-0.0765910187434
21
-0.163713875591
31
0.0
0
LINE
8
0
10
-0.0765910187434
20
-0.163713875591
30
0.0
11
-0.0763237072305
21
-0.161679818965
31
0.0
0
LINE
8
0
10
-0.0763237072305
20
-0.161679818965
30
0.0
11
-0.0760149783932
21
-0.159685455729
31
0.0
0
LINE
8
0
10
-0.0760149783932
20
-0.159685455729
30
0.0
11
-0.0756658928646
21
-0.157731539544
31
0.0
0
LINE
8
0
10
-0.0756658928646
20
-0.157731539544
30
0.0
11
-0.0752775241597
21
-0.155818802133
31
0.0
0
LINE
8
0
10
-0.0752775241597
20
-0.155818802133
30
0.0
11
-0.0748509582683
21
-0.153947953064
31
0.0
0
LINE
8
0
10
-0.0748509582683
20
-0.153947953064
30
0.0
11
-0.0743872932451
21
-0.152119679554
31
0.0
0
LINE
8
0
10
-0.0743872932451
20
-0.152119679554
30
0.0
11
-0.0738876387967
21
-0.150334646265
31
0.0
0
LINE
8
0
10
-0.0738876387967
20
-0.150334646265
30
0.0
11
-0.0733531158644
21
-0.148593495117
31
0.0
0
LINE
8
0
10
-0.0733531158644
20
-0.148593495117
30
0.0
11
-0.0727848562056
21
-0.146896845105
31
0.0
0
LINE
8
0
10
-0.0727848562056
20
-0.146896845105
30
0.0
11
-0.0721840019705
21
-0.145245292123
31
0.0
0
LINE
8
0
10
-0.0721840019705
20
-0.145245292123
30
0.0
11
-0.0715517052777
21
-0.143639408794
31
0.0
0
LINE
8
0
10
-0.0715517052777
20
-0.143639408794
30
0.0
11
-0.0708891277858
21
-0.142079744314
31
0.0
0
LINE
8
0
10
-0.0708891277858
20
-0.142079744314
30
0.0
11
-0.0701974402635
21
-0.140566824292
31
0.0
0
LINE
8
0
10
-0.0701974402635
20
-0.140566824292
30
0.0
11
-0.0694778221565
21
-0.13910115061
31
0.0
0
LINE
8
0
10
-0.0694778221565
20
-0.13910115061
30
0.0
11
-0.0687314611527
21
-0.137683201281
31
0.0
0
LINE
8
0
10
-0.0687314611527
20
-0.137683201281
30
0.0
11
-0.0679595527448
21
-0.13631343032
31
0.0
0
LINE
8
0
10
-0.0679595527448
20
-0.13631343032
30
0.0
11
-0.0671632997913
21
-0.134992267617
31
0.0
0
LINE
8
0
10
-0.0671632997913
20
-0.134992267617
30
0.0
11
-0.0663439120752
21
-0.133720118828
31
0.0
0
LINE
8
0
10
-0.0663439120752
20
-0.133720118828
30
0.0
11
-0.0655026058613
21
-0.13249736526
31
0.0
0
LINE
8
0
10
-0.0655026058613
20
-0.13249736526
30
0.0
11
-0.0646406034512
21
-0.131324363773
31
0.0
0
LINE
8
0
10
-0.0646406034512
20
-0.131324363773
30
0.0
11
-0.063759132738
21
-0.13020144669
31
0.0
0
LINE
8
0
10
-0.063759132738
20
-0.13020144669
30
0.0
11
-0.0628594267578
21
-0.129128921706
31
0.0
0
LINE
8
0
10
-0.0628594267578
20
-0.129128921706
30
0.0
11
-0.0619427232419
21
-0.128107071815
31
0.0
0
LINE
8
0
10
-0.0619427232419
20
-0.128107071815
30
0.0
11
-0.0610102641663
21
-0.127136155242
31
0.0
0
LINE
8
0
10
-0.0610102641663
20
-0.127136155242
30
0.0
11
-0.0600632953013
21
-0.126216405373
31
0.0
0
LINE
8
0
10
-0.0600632953013
20
-0.126216405373
30
0.0
11
-0.0591030657593
21
-0.125348030712
31
0.0
0
LINE
8
0
10
-0.0591030657593
20
-0.125348030712
30
0.0
11
-0.0581308275423
21
-0.124531214823
31
0.0
0
LINE
8
0
10
-0.0581308275423
20
-0.124531214823
30
0.0
11
-0.0571478350891
21
-0.123766116301
31
0.0
0
LINE
8
0
10
-0.0571478350891
20
-0.123766116301
30
0.0
11
-0.0561553448215
21
-0.123052868736
31
0.0
0
LINE
8
0
10
-0.0561553448215
20
-0.123052868736
30
0.0
11
-0.05515461469
21
-0.122391580691
31
0.0
0
LINE
8
0
10
-0.05515461469
20
-0.122391580691
30
0.0
11
-0.05414690372
21
-0.121782335688
31
0.0
0
LINE
8
0
10
-0.05414690372
20
-0.121782335688
30
0.0
11
-0.0531334715571
21
-0.1212251922
31
0.0
0
LINE
8
0
10
-0.0531334715571
20
-0.1212251922
30
0.0
11
-0.0521155780131
21
-0.12072018365
31
0.0
0
LINE
8
0
10
-0.0521155780131
20
-0.12072018365
30
0.0
11
-0.0510944826116
21
-0.120267318422
31
0.0
0
LINE
8
0
10
-0.0510944826116
20
-0.120267318422
30
0.0
11
-0.0500714441342
21
-0.119866579874
31
0.0
0
LINE
8
0
10
-0.0500714441342
20
-0.119866579874
30
0.0
11
-0.0490477201669
21
-0.119517926364
31
0.0
0
LINE
8
0
10
-0.0490477201669
20
-0.119517926364
30
0.0
11
-0.0480245666474
21
-0.119221291281
31
0.0
0
LINE
8
0
10
-0.0480245666474
20
-0.119221291281
30
0.0
11
-0.0470032374127
21
-0.118976583085
31
0.0
0
LINE
8
0
10
-0.0470032374127
20
-0.118976583085
30
0.0
11
-0.0459849837476
21
-0.118783685353
31
0.0
0
LINE
8
0
10
-0.0459849837476
20
-0.118783685353
30
0.0
11
-0.0449710539344
21
-0.118642456835
31
0.0
0
LINE
8
0
10
-0.0449710539344
20
-0.118642456835
30
0.0
11
-0.0439626928031
21
-0.118552731516
31
0.0
0
LINE
8
0
10
-0.0439626928031
20
-0.118552731516
30
0.0
11
-0.0429611412834
21
-0.118514318686
31
0.0
0
LINE
8
0
10
-0.0429611412834
20
-0.118514318686
30
0.0
11
-0.0419676359575
21
-0.118527003019
31
0.0
0
LINE
8
0
10
-0.0419676359575
20
-0.118527003019
30
0.0
11
-0.0409834086147
21
-0.118590544658
31
0.0
0
LINE
8
0
10
-0.0409834086147
20
-0.118590544658
30
0.0
11
-0.0400096858075
21
-0.11870467931
31
0.0
0
LINE
8
0
10
-0.0400096858075
20
-0.11870467931
30
0.0
11
-0.0390476884092
21
-0.118869118344
31
0.0
0
LINE
8
0
10
-0.0390476884092
20
-0.118869118344
30
0.0
11
-0.0380986311733
21
-0.119083548903
31
0.0
0
LINE
8
0
10
-0.0380986311733
20
-0.119083548903
30
0.0
11
-0.0371637222956
21
-0.119347634016
31
0.0
0
LINE
8
0
10
-0.0371637222956
20
-0.119347634016
30
0.0
11
-0.0371637222956
21
-0.119347634016
31
0.0
0
LINE
8
0
10
-0.0371637222956
20
-0.119347634016
30
0.0
11
-0.0348453024304
21
-0.120045011969
31
0.0
0
LINE
8
0
10
-0.0348453024304
20
-0.120045011969
30
0.0
11
-0.032513811046
21
-0.120697357433
31
0.0
0
LINE
8
0
10
-0.032513811046
20
-0.120697357433
30
0.0
11
-0.0301701227548
21
-0.121304425694
31
0.0
0
LINE
8
0
10
-0.0301701227548
20
-0.121304425694
30
0.0
11
-0.0278151167445
21
-0.121865989023
31
0.0
0
LINE
8
0
10
-0.0278151167445
20
-0.121865989023
30
0.0
11
-0.0278151167445
21
-0.121865989023
31
0.0
0
LINE
8
0
10
-0.0278151167445
20
-0.121865989023
30
0.0
11
-0.0254496764488
21
-0.12238183676
31
0.0
0
LINE
8
0
10
-0.0254496764488
20
-0.12238183676
30
0.0
11
-0.0230746892153
21
-0.122851775395
31
0.0
0
LINE
8
0
10
-0.0230746892153
20
-0.122851775395
30
0.0
11
-0.0206910459729
21
-0.12327562864
31
0.0
0
LINE
8
0
10
-0.0206910459729
20
-0.12327562864
30
0.0
11
-0.0182996408979
21
-0.123653237495
31
0.0
0
LINE
8
0
10
-0.0182996408979
20
-0.123653237495
30
0.0
11
-0.0182996408979
21
-0.123653237495
31
0.0
0
LINE
8
0
10
-0.0182996408979
20
-0.123653237495
30
0.0
11
-0.0173427348684
21
-0.123820946789
31
0.0
0
LINE
8
0
10
-0.0173427348684
20
-0.123820946789
30
0.0
11
-0.0163946259125
21
-0.124039532034
31
0.0
0
LINE
8
0
10
-0.0163946259125
20
-0.124039532034
30
0.0
11
-0.0154565487826
21
-0.124308772612
31
0.0
0
LINE
8
0
10
-0.0154565487826
20
-0.124308772612
30
0.0
11
-0.0145297336779
21
-0.124628423336
31
0.0
0
LINE
8
0
10
-0.0145297336779
20
-0.124628423336
30
0.0
11
-0.013615405799
21
-0.124998214537
31
0.0
0
LINE
8
0
10
-0.013615405799
20
-0.124998214537
30
0.0
11
-0.0127147849045
21
-0.125417852153
31
0.0
0
LINE
8
0
10
-0.0127147849045
20
-0.125417852153
30
0.0
11
-0.0118290848681
21
-0.125887017836
31
0.0
0
LINE
8
0
10
-0.0118290848681
20
-0.125887017836
30
0.0
11
-0.0109595132382
21
-0.126405369053
31
0.0
0
LINE
8
0
10
-0.0109595132382
20
-0.126405369053
30
0.0
11
-0.0101072707997
21
-0.12697253921
31
0.0
0
LINE
8
0
10
-0.0101072707997
20
-0.12697253921
30
0.0
11
-0.00927355113697
21
-0.127588137768
31
0.0
0
LINE
8
0
10
-0.00927355113697
20
-0.127588137768
30
0.0
11
-0.0084595401996
21
-0.128251750382
31
0.0
0
LINE
8
0
10
-0.0084595401996
20
-0.128251750382
30
0.0
11
-0.00766641587028
21
-0.128962939031
31
0.0
0
LINE
8
0
10
-0.00766641587028
20
-0.128962939031
30
0.0
11
-0.00689534753501
21
-0.129721242172
31
0.0
0
LINE
8
0
10
-0.00689534753501
20
-0.129721242172
30
0.0
11
-0.00614749565591
21
-0.130526174888
31
0.0
0
LINE
8
0
10
-0.00614749565591
20
-0.130526174888
30
0.0
11
-0.00542401134663
21
-0.131377229051
31
0.0
0
LINE
8
0
10
-0.00542401134663
20
-0.131377229051
30
0.0
11
-0.00472603595055
21
-0.132273873489
31
0.0
0
LINE
8
0
10
-0.00472603595055
20
-0.132273873489
30
0.0
11
-0.0040547006219
21
-0.133215554163
31
0.0
0
LINE
8
0
10
-0.0040547006219
20
-0.133215554163
30
0.0
11
-0.00341112590982
21
-0.134201694347
31
0.0
0
LINE
8
0
10
-0.00341112590982
20
-0.134201694347
30
0.0
11
-0.00279642134562
21
-0.135231694819
31
0.0
0
LINE
8
0
10
-0.00279642134562
20
-0.135231694819
30
0.0
11
-0.00221168503324
21
-0.136304934059
31
0.0
0
LINE
8
0
10
-0.00221168503324
20
-0.136304934059
30
0.0
11
-0.00165800324311
21
-0.137420768449
31
0.0
0
LINE
8
0
10
-0.00165800324311
20
-0.137420768449
30
0.0
11
-0.00113645000946
21
-0.138578532489
31
0.0
0
LINE
8
0
10
-0.00113645000946
20
-0.138578532489
30
0.0
11
-0.000648086731294
21
-0.139777539009
31
0.0
0
LINE
8
0
10
-0.000648086731294
20
-0.139777539009
30
0.0
11
-0.000193961776958
21
-0.141017079399
31
0.0
0
LINE
8
0
10
-0.000193961776958
20
-0.141017079399
30
0.0
11
0.000224889907324
21
-0.142296423835
31
0.0
0
LINE
8
0
10
0.000224889907324
20
-0.142296423835
30
0.0
11
0.000607447185069
21
-0.143614821523
31
0.0
0
LINE
8
0
10
0.000607447185069
20
-0.143614821523
30
0.0
11
0.000952703113061
21
-0.144971500939
31
0.0
0
LINE
8
0
10
0.000952703113061
20
-0.144971500939
30
0.0
11
0.00125966532072
21
-0.146365670081
31
0.0
0
LINE
8
0
10
0.00125966532072
20
-0.146365670081
30
0.0
11
0.00152735638521
21
-0.147796516731
31
0.0
0
LINE
8
0
10
0.00152735638521
20
-0.147796516731
30
0.0
11
0.00175481420212
21
-0.149263208715
31
0.0
0
LINE
8
0
10
0.00175481420212
20
-0.149263208715
30
0.0
11
0.00194109235172
21
-0.150764894176
31
0.0
0
LINE
8
0
10
0.00194109235172
20
-0.150764894176
30
0.0
11
0.00208526046058
21
-0.152300701849
31
0.0
0
LINE
8
0
10
0.00208526046058
20
-0.152300701849
30
0.0
11
0.00218640455847
21
-0.153869741347
31
0.0
0
LINE
8
0
10
0.00218640455847
20
-0.153869741347
30
0.0
11
0.00224362743048
21
-0.155471103452
31
0.0
0
LINE
8
0
10
0.00224362743048
20
-0.155471103452
30
0.0
11
0.00225604896426
21
-0.157103860405
31
0.0
0
LINE
8
0
10
0.00225604896426
20
-0.157103860405
30
0.0
11
0.00222280649215
21
-0.158767066213
31
0.0
0
LINE
8
0
10
0.00222280649215
20
-0.158767066213
30
0.0
11
0.00214305512834
21
-0.160459756953
31
0.0
0
LINE
8
0
10
0.00214305512834
20
-0.160459756953
30
0.0
11
0.00201596810067
21
-0.162180951091
31
0.0
0
LINE
8
0
10
0.00201596810067
20
-0.162180951091
30
0.0
11
0.00184073707726
21
-0.163929649794
31
0.0
0
LINE
8
0
10
0.00184073707726
20
-0.163929649794
30
0.0
11
0.00161657248763
21
-0.16570483726
31
0.0
0
LINE
8
0
10
0.00161657248763
20
-0.16570483726
30
0.0
11
0.00134270383837
21
-0.167505481047
31
0.0
0
LINE
8
0
10
0.00134270383837
20
-0.167505481047
30
0.0
11
0.00101838002322
21
-0.169330532409
31
0.0
0
LINE
8
0
10
0.00101838002322
20
-0.169330532409
30
0.0
11
0.000642869627468
21
-0.171178926638
31
0.0
0
LINE
8
0
10
0.000642869627468
20
-0.171178926638
30
0.0
11
0.000215461226542
21
-0.173049583409
31
0.0
0
LINE
8
0
10
0.000215461226542
20
-0.173049583409
30
0.0
11
-0.000264536321221
21
-0.174941407136
31
0.0
0
LINE
8
0
10
-0.000264536321221
20
-0.174941407136
30
0.0
11
-0.000797793587781
21
-0.176853287323
31
0.0
0
LINE
8
0
10
-0.000797793587781
20
-0.176853287323
30
0.0
11
-0.00138496029463
21
-0.178784098932
31
0.0
0
LINE
8
0
10
-0.00138496029463
20
-0.178784098932
30
0.0
11
-0.00202666503813
21
-0.180732702746
31
0.0
0
LINE
8
0
10
-0.00202666503813
20
-0.180732702746
30
0.0
11
-0.0027235150211
21
-0.182697945745
31
0.0
0
LINE
8
0
10
-0.0027235150211
20
-0.182697945745
30
0.0
11
-0.0027235115181
21
-0.182697710758
31
0.0
0
LINE
8
0
10
-0.0027235115181
20
-0.182697710758
30
0.0
11
-0.00272358454547
21
-0.182730892093
31
0.0
0
LINE
8
0
10
-0.00272358454547
20
-0.182730892093
30
0.0
11
-0.00272211737702
21
-0.182830425078
31
0.0
0
LINE
8
0
10
-0.00272211737702
20
-0.182830425078
30
0.0
11
-0.00271658148213
21
-0.182996238964
31
0.0
0
LINE
8
0
10
-0.00271658148213
20
-0.182996238964
30
0.0
11
-0.00270445092655
21
-0.183228190737
31
0.0
0
LINE
8
0
10
-0.00270445092655
20
-0.183228190737
30
0.0
11
-0.00268320420794
21
-0.183526065205
31
0.0
0
LINE
8
0
10
-0.00268320420794
20
-0.183526065205
30
0.0
11
-0.00265032608904
21
-0.18388957512
31
0.0
0
LINE
8
0
10
-0.00265032608904
20
-0.18388957512
30
0.0
11
-0.00260330942747
21
-0.184318361351
31
0.0
0
LINE
8
0
10
-0.00260330942747
20
-0.184318361351
30
0.0
11
-0.00253965700124
21
-0.184811993094
31
0.0
0
LINE
8
0
10
-0.00253965700124
20
-0.184811993094
30
0.0
11
-0.00245688332889
21
-0.185369968129
31
0.0
0
LINE
8
0
10
-0.00245688332889
20
-0.185369968129
30
0.0
11
-0.00235251648324
21
-0.185991713123
31
0.0
0
LINE
8
0
10
-0.00235251648324
20
-0.185991713123
30
0.0
11
-0.00222409989796
21
-0.186676583965
31
0.0
0
LINE
8
0
10
-0.00222409989796
20
-0.186676583965
30
0.0
11
-0.00206919416566
21
-0.187423866161
31
0.0
0
LINE
8
0
10
-0.00206919416566
20
-0.187423866161
30
0.0
11
-0.0018853788268
21
-0.188232775258
31
0.0
0
LINE
8
0
10
-0.0018853788268
20
-0.188232775258
30
0.0
11
-0.00167025414831
21
-0.189102457313
31
0.0
0
LINE
8
0
10
-0.00167025414831
20
-0.189102457313
30
0.0
11
-0.00142144289096
21
-0.190031989413
31
0.0
0
LINE
8
0
10
-0.00142144289096
20
-0.190031989413
30
0.0
11
-0.00113659206448
21
-0.191020380224
31
0.0
0
LINE
8
0
10
-0.00113659206448
20
-0.191020380224
30
0.0
11
-0.000813374669595
21
-0.192066570594
31
0.0
0
LINE
8
0
10
-0.000813374669595
20
-0.192066570594
30
0.0
11
-0.000449491425879
21
-0.193169434187
31
0.0
0
LINE
8
0
10
-0.000449491425879
20
-0.193169434187
30
0.0
11
-4.26724845209e-05
21
-0.194327778166
31
0.0
0
LINE
8
0
10
-4.26724845209e-05
20
-0.194327778166
30
0.0
11
0.00040932087488
21
-0.195540343917
31
0.0
0
LINE
8
0
10
0.00040932087488
20
-0.195540343917
30
0.0
11
0.000908694564491
21
-0.196805807802
31
0.0
0
LINE
8
0
10
0.000908694564491
20
-0.196805807802
30
0.0
11
0.00145762002629
21
-0.198122781968
31
0.0
0
LINE
8
0
10
0.00145762002629
20
-0.198122781968
30
0.0
11
0.00205823258891
21
-0.199489815187
31
0.0
0
LINE
8
0
10
0.00205823258891
20
-0.199489815187
30
0.0
11
0.00271262984415
21
-0.200905393733
31
0.0
0
LINE
8
0
10
0.00271262984415
20
-0.200905393733
30
0.0
11
0.00342287004411
21
-0.202367942304
31
0.0
0
LINE
8
0
10
0.00342287004411
20
-0.202367942304
30
0.0
11
0.00419097051978
21
-0.203875824979
31
0.0
0
LINE
8
0
10
0.00419097051978
20
-0.203875824979
30
0.0
11
0.00501890612204
21
-0.205427346213
31
0.0
0
LINE
8
0
10
0.00501890612204
20
-0.205427346213
30
0.0
11
0.0059086076858
21
-0.20702075187
31
0.0
0
LINE
8
0
10
0.0059086076858
20
-0.20702075187
30
0.0
11
0.0068619605183
21
-0.208654230294
31
0.0
0
LINE
8
0
10
0.0068619605183
20
-0.208654230294
30
0.0
11
0.00788080291226
21
-0.210325913412
31
0.0
0
LINE
8
0
10
0.00788080291226
20
-0.210325913412
30
0.0
11
0.00896692468488
21
-0.212033877876
31
0.0
0
LINE
8
0
10
0.00896692468488
20
-0.212033877876
30
0.0
11
0.0101220657433
21
-0.213776146241
31
0.0
0
LINE
8
0
10
0.0101220657433
20
-0.213776146241
30
0.0
11
0.0113479146776
21
-0.215550688177
31
0.0
0
LINE
8
0
10
0.0113479146776
20
-0.215550688177
30
0.0
11
0.0126461073816
21
-0.217355421709
31
0.0
0
LINE
8
0
10
0.0126461073816
20
-0.217355421709
30
0.0
11
0.0140182257034
21
-0.219188214503
31
0.0
0
LINE
8
0
10
0.0140182257034
20
-0.219188214503
30
0.0
11
0.0154657961244
21
-0.221046885168
31
0.0
0
LINE
8
0
10
0.0154657961244
20
-0.221046885168
30
0.0
11
0.0169902884701
21
-0.222929204607
31
0.0
0
LINE
8
0
10
0.0169902884701
20
-0.222929204607
30
0.0
11
0.0185931146513
21
-0.224832897384
31
0.0
0
LINE
8
0
10
0.0185931146513
20
-0.224832897384
30
0.0
11
0.0202756274373
21
-0.226755643135
31
0.0
0
LINE
8
0
10
0.0202756274373
20
-0.226755643135
30
0.0
11
0.022039119262
21
-0.228695077995
31
0.0
0
LINE
8
0
10
0.022039119262
20
-0.228695077995
30
0.0
11
0.0238848210631
21
-0.23064879607
31
0.0
0
LINE
8
0
10
0.0238848210631
20
-0.23064879607
30
0.0
11
0.0258139011555
21
-0.232614350922
31
0.0
0
LINE
8
0
10
0.0258139011555
20
-0.232614350922
30
0.0
11
0.0278274641388
21
-0.234589257091
31
0.0
0
LINE
8
0
10
0.0278274641388
20
-0.234589257091
30
0.0
11
0.029926549841
21
-0.23657099164
31
0.0
0
LINE
8
0
10
0.029926549841
20
-0.23657099164
30
0.0
11
0.0321121322972
21
-0.238556995729
31
0.0
0
LINE
8
0
10
0.0321121322972
20
-0.238556995729
30
0.0
11
0.0343851187653
21
-0.240544676211
31
0.0
0
LINE
8
0
10
0.0343851187653
20
-0.240544676211
30
0.0
11
0.0367463487788
21
-0.242531407254
31
0.0
0
LINE
8
0
10
0.0367463487788
20
-0.242531407254
30
0.0
11
0.039196593237
21
-0.244514531985
31
0.0
0
LINE
8
0
10
0.039196593237
20
-0.244514531985
30
0.0
11
0.0417365535337
21
-0.246491364161
31
0.0
0
LINE
8
0
10
0.0417365535337
20
-0.246491364161
30
0.0
11
0.0417365760692
21
-0.246491497253
31
0.0
0
LINE
8
0
10
0.0417365760692
20
-0.246491497253
30
0.0
11
0.0452243028045
21
-0.245875501903
31
0.0
0
LINE
8
0
10
0.0452243028045
20
-0.245875501903
30
0.0
11
0.0487029530671
21
-0.245210159583
31
0.0
0
LINE
8
0
10
0.0487029530671
20
-0.245210159583
30
0.0
11
0.0521718286952
21
-0.244495603827
31
0.0
0
LINE
8
0
10
0.0521718286952
20
-0.244495603827
30
0.0
11
0.0556302334891
21
-0.243731978045
31
0.0
0
LINE
8
0
10
0.0556302334891
20
-0.243731978045
30
0.0
11
0.0556302334891
21
-0.243731978045
31
0.0
0
LINE
8
0
10
0.0556302334891
20
-0.243731978045
30
0.0
11
0.0590774733502
21
-0.242919435498
31
0.0
0
LINE
8
0
10
0.0590774733502
20
-0.242919435498
30
0.0
11
0.062512856421
21
-0.24205813926
31
0.0
0
LINE
8
0
10
0.062512856421
20
-0.24205813926
30
0.0
11
0.0659356932234
21
-0.241148262194
31
0.0
0
LINE
8
0
10
0.0659356932234
20
-0.241148262194
30
0.0
11
0.0693452967976
21
-0.24018998691
31
0.0
0
LINE
8
0
10
0.0693452967976
20
-0.24018998691
30
0.0
11
0.0693452593548
21
-0.240189857221
31
0.0
0
LINE
8
0
10
0.0693452593548
20
-0.240189857221
30
0.0
11
0.0707759691719
21
-0.237306745503
31
0.0
0
LINE
8
0
10
0.0707759691719
20
-0.237306745503
30
0.0
11
0.0721231175739
21
-0.234456890631
31
0.0
0
LINE
8
0
10
0.0721231175739
20
-0.234456890631
30
0.0
11
0.0733885020125
21
-0.231642408506
31
0.0
0
LINE
8
0
10
0.0733885020125
20
-0.231642408506
30
0.0
11
0.0745739698177
21
-0.228865358404
31
0.0
0
LINE
8
0
10
0.0745739698177
20
-0.228865358404
30
0.0
11
0.0756814166889
21
-0.22612774186
31
0.0
0
LINE
8
0
10
0.0756814166889
20
-0.22612774186
30
0.0
11
0.0767127851616
21
-0.223431501574
31
0.0
0
LINE
8
0
10
0.0767127851616
20
-0.223431501574
30
0.0
11
0.0776700630503
21
-0.220778520363
31
0.0
0
LINE
8
0
10
0.0776700630503
20
-0.220778520363
30
0.0
11
0.0785552818687
21
-0.21817062015
31
0.0
0
LINE
8
0
10
0.0785552818687
20
-0.21817062015
30
0.0
11
0.0793705152273
21
-0.215609560989
31
0.0
0
LINE
8
0
10
0.0793705152273
20
-0.215609560989
30
0.0
11
0.0801178772111
21
-0.213097040131
31
0.0
0
LINE
8
0
10
0.0801178772111
20
-0.213097040131
30
0.0
11
0.0807995207356
21
-0.21063469113
31
0.0
0
LINE
8
0
10
0.0807995207356
20
-0.21063469113
30
0.0
11
0.0814176358851
21
-0.208224082987
31
0.0
0
LINE
8
0
10
0.0814176358851
20
-0.208224082987
30
0.0
11
0.0819744482317
21
-0.205866719334
31
0.0
0
LINE
8
0
10
0.0819744482317
20
-0.205866719334
30
0.0
11
0.0824722171371
21
-0.203564037662
31
0.0
0
LINE
8
0
10
0.0824722171371
20
-0.203564037662
30
0.0
11
0.0829132340377
21
-0.201317408586
31
0.0
0
LINE
8
0
10
0.0829132340377
20
-0.201317408586
30
0.0
11
0.0832998207153
21
-0.199128135154
31
0.0
0
LINE
8
0
10
0.0832998207153
20
-0.199128135154
30
0.0
11
0.0836343275516
21
-0.196997452196
31
0.0
0
LINE
8
0
10
0.0836343275516
20
-0.196997452196
30
0.0
11
0.0839191317704
21
-0.194926525717
31
0.0
0
LINE
8
0
10
0.0839191317704
20
-0.194926525717
30
0.0
11
0.0841566356664
21
-0.192916452332
31
0.0
0
LINE
8
0
10
0.0841566356664
20
-0.192916452332
30
0.0
11
0.084349264823
21
-0.190968258739
31
0.0
0
LINE
8
0
10
0.084349264823
20
-0.190968258739
30
0.0
11
0.0844994663188
21
-0.189082901241
31
0.0
0
LINE
8
0
10
0.0844994663188
20
-0.189082901241
30
0.0
11
0.0846097069248
21
-0.187261265308
31
0.0
0
LINE
8
0
10
0.0846097069248
20
-0.187261265308
30
0.0
11
0.0846824712928
21
-0.185504165183
31
0.0
0
LINE
8
0
10
0.0846824712928
20
-0.185504165183
30
0.0
11
0.0847202601357
21
-0.18381234353
31
0.0
0
LINE
8
0
10
0.0847202601357
20
-0.18381234353
30
0.0
11
0.0847255884021
21
-0.182186471127
31
0.0
0
LINE
8
0
10
0.0847255884021
20
-0.182186471127
30
0.0
11
0.0847009834438
21
-0.180627146599
31
0.0
0
LINE
8
0
10
0.0847009834438
20
-0.180627146599
30
0.0
11
0.0846489831799
21
-0.179134896203
31
0.0
0
LINE
8
0
10
0.0846489831799
20
-0.179134896203
30
0.0
11
0.0845721342561
21
-0.177710173647
31
0.0
0
LINE
8
0
10
0.0845721342561
20
-0.177710173647
30
0.0
11
0.0844729902017
21
-0.17635335996
31
0.0
0
LINE
8
0
10
0.0844729902017
20
-0.17635335996
30
0.0
11
0.0843541095853
21
-0.175064763399
31
0.0
0
LINE
8
0
10
0.0843541095853
20
-0.175064763399
30
0.0
11
0.0842180541692
21
-0.173844619412
31
0.0
0
LINE
8
0
10
0.0842180541692
20
-0.173844619412
30
0.0
11
0.0840673870639
21
-0.172693090627
31
0.0
0
LINE
8
0
10
0.0840673870639
20
-0.172693090627
30
0.0
11
0.0839046708849
21
-0.171610266902
31
0.0
0
LINE
8
0
10
0.0839046708849
20
-0.171610266902
30
0.0
11
0.0837324659107
21
-0.17059616541
31
0.0
0
LINE
8
0
10
0.0837324659107
20
-0.17059616541
30
0.0
11
0.0835533282445
21
-0.169650730768
31
0.0
0
LINE
8
0
10
0.0835533282445
20
-0.169650730768
30
0.0
11
0.0833698079804
21
-0.168773835211
31
0.0
0
LINE
8
0
10
0.0833698079804
20
-0.168773835211
30
0.0
11
0.0831844473748
21
-0.167965278812
31
0.0
0
LINE
8
0
10
0.0831844473748
20
-0.167965278812
30
0.0
11
0.0829997790236
21
-0.167224789739
31
0.0
0
LINE
8
0
10
0.0829997790236
20
-0.167224789739
30
0.0
11
0.0828183240471
21
-0.166552024563
31
0.0
0
LINE
8
0
10
0.0828183240471
20
-0.166552024563
30
0.0
11
0.0826425902835
21
-0.165946568603
31
0.0
0
LINE
8
0
10
0.0826425902835
20
-0.165946568603
30
0.0
11
0.0824750704906
21
-0.165407936317
31
0.0
0
LINE
8
0
10
0.0824750704906
20
-0.165407936317
30
0.0
11
0.0823182405587
21
-0.164935571732
31
0.0
0
LINE
8
0
10
0.0823182405587
20
-0.164935571732
30
0.0
11
0.0821745577338
21
-0.164528848922
31
0.0
0
LINE
8
0
10
0.0821745577338
20
-0.164528848922
30
0.0
11
0.0820464588542
21
-0.164187072524
31
0.0
0
LINE
8
0
10
0.0820464588542
20
-0.164187072524
30
0.0
11
0.0819363585984
21
-0.163909478296
31
0.0
0
LINE
8
0
10
0.0819363585984
20
-0.163909478296
30
0.0
11
0.0818466477487
21
-0.163695233719
31
0.0
0
LINE
8
0
10
0.0818466477487
20
-0.163695233719
30
0.0
11
0.0817796914689
21
-0.163543438635
31
0.0
0
LINE
8
0
10
0.0817796914689
20
-0.163543438635
30
0.0
11
0.081737827598
21
-0.163453125933
31
0.0
0
LINE
8
0
10
0.081737827598
20
-0.163453125933
30
0.0
11
0.0817233649611
21
-0.163423262269
31
0.0
0
LINE
8
0
10
0.0817233649611
20
-0.163423262269
30
0.0
11
0.0817234700743
21
-0.163423472465
31
0.0
0
LINE
8
0
10
0.0817234700743
20
-0.163423472465
30
0.0
11
0.0802429429535
21
-0.161955201582
31
0.0
0
LINE
8
0
10
0.0802429429535
20
-0.161955201582
30
0.0
11
0.078819319448
21
-0.160477995462
31
0.0
0
LINE
8
0
10
0.078819319448
20
-0.160477995462
30
0.0
11
0.0774525527644
21
-0.158993156399
31
0.0
0
LINE
8
0
10
0.0774525527644
20
-0.158993156399
30
0.0
11
0.0761425708443
21
-0.157501983528
31
0.0
0
LINE
8
0
10
0.0761425708443
20
-0.157501983528
30
0.0
11
0.074889276445
21
-0.156005772378
31
0.0
0
LINE
8
0
10
0.074889276445
20
-0.156005772378
30
0.0
11
0.0736925472273
21
-0.154505814419
31
0.0
0
LINE
8
0
10
0.0736925472273
20
-0.154505814419
30
0.0
11
0.0725522358519
21
-0.153003396618
31
0.0
0
LINE
8
0
10
0.0725522358519
20
-0.153003396618
30
0.0
11
0.0714681700823
21
-0.151499800989
31
0.0
0
LINE
8
0
10
0.0714681700823
20
-0.151499800989
30
0.0
11
0.0704401528963
21
-0.149996304148
31
0.0
0
LINE
8
0
10
0.0704401528963
20
-0.149996304148
30
0.0
11
0.0694679626044
21
-0.148494176877
31
0.0
0
LINE
8
0
10
0.0694679626044
20
-0.148494176877
30
0.0
11
0.0685513529757
21
-0.146994683678
31
0.0
0
LINE
8
0
10
0.0685513529757
20
-0.146994683678
30
0.0
11
0.067690053372
21
-0.145499082338
31
0.0
0
LINE
8
0
10
0.067690053372
20
-0.145499082338
30
0.0
11
0.0668837688882
21
-0.144008623498
31
0.0
0
LINE
8
0
10
0.0668837688882
20
-0.144008623498
30
0.0
11
0.066132180501
21
-0.142524550212
31
0.0
0
LINE
8
0
10
0.066132180501
20
-0.142524550212
30
0.0
11
0.0654349452244
21
-0.141048097527
31
0.0
0
LINE
8
0
10
0.0654349452244
20
-0.141048097527
30
0.0
11
0.064791696273
21
-0.139580492051
31
0.0
0
LINE
8
0
10
0.064791696273
20
-0.139580492051
30
0.0
11
0.0642020432318
21
-0.138122951531
31
0.0
0
LINE
8
0
10
0.0642020432318
20
-0.138122951531
30
0.0
11
0.063665572234
21
-0.136676684432
31
0.0
0
LINE
8
0
10
0.063665572234
20
-0.136676684432
30
0.0
11
0.0631818461451
21
-0.135242889523
31
0.0
0
LINE
8
0
10
0.0631818461451
20
-0.135242889523
30
0.0
11
0.0627504047547
21
-0.133822755459
31
0.0
0
LINE
8
0
10
0.0627504047547
20
-0.133822755459
30
0.0
11
0.0623707649754
21
-0.132417460372
31
0.0
0
LINE
8
0
10
0.0623707649754
20
-0.132417460372
30
0.0
11
0.0620424210475
21
-0.131028171468
31
0.0
0
LINE
8
0
10
0.0620424210475
20
-0.131028171468
30
0.0
11
0.0617648447525
21
-0.129656044618
31
0.0
0
LINE
8
0
10
0.0617648447525
20
-0.129656044618
30
0.0
11
0.0615374856315
21
-0.128302223963
31
0.0
0
LINE
8
0
10
0.0615374856315
20
-0.128302223963
30
0.0
11
0.0613597712115
21
-0.12696784152
31
0.0
0
LINE
8
0
10
0.0613597712115
20
-0.12696784152
30
0.0
11
0.0612311072385
21
-0.125654016785
31
0.0
0
LINE
8
0
10
0.0612311072385
20
-0.125654016785
30
0.0
11
0.0611508779162
21
-0.124361856353
31
0.0
0
LINE
8
0
10
0.0611508779162
20
-0.124361856353
30
0.0
11
0.0611184461521
21
-0.12309245353
31
0.0
0
LINE
8
0
10
0.0611184461521
20
-0.12309245353
30
0.0
11
0.0611331538102
21
-0.121846887957
31
0.0
0
LINE
8
0
10
0.0611331538102
20
-0.121846887957
30
0.0
11
0.0611943219694
21
-0.120626225236
31
0.0
0
LINE
8
0
10
0.0611943219694
20
-0.120626225236
30
0.0
11
0.0613012511885
21
-0.119431516562
31
0.0
0
LINE
8
0
10
0.0613012511885
20
-0.119431516562
30
0.0
11
0.061453221778
21
-0.118263798355
31
0.0
0
LINE
8
0
10
0.061453221778
20
-0.118263798355
30
0.0
11
0.0616494940772
21
-0.117124091901
31
0.0
0
LINE
8
0
10
0.0616494940772
20
-0.117124091901
30
0.0
11
0.061889308738
21
-0.116013403002
31
0.0
0
LINE
8
0
10
0.061889308738
20
-0.116013403002
30
0.0
11
0.0621718870147
21
-0.114932721619
31
0.0
0
LINE
8
0
10
0.0621718870147
20
-0.114932721619
30
0.0
11
0.062496431059
21
-0.113883021532
31
0.0
0
LINE
8
0
10
0.062496431059
20
-0.113883021532
30
0.0
11
0.0628621242219
21
-0.112865259997
31
0.0
0
LINE
8
0
10
0.0628621242219
20
-0.112865259997
30
0.0
11
0.0632681313606
21
-0.111880377415
31
0.0
0
LINE
8
0
10
0.0632681313606
20
-0.111880377415
30
0.0
11
0.0637135991513
21
-0.110929297001
31
0.0
0
LINE
8
0
10
0.0637135991513
20
-0.110929297001
30
0.0
11
0.0641976564076
21
-0.11001292446
31
0.0
0
LINE
8
0
10
0.0641976564076
20
-0.11001292446
30
0.0
11
0.0647194144044
21
-0.10913214767
31
0.0
0
LINE
8
0
10
0.0647194144044
20
-0.10913214767
30
0.0
11
0.0652779672069
21
-0.10828783637
31
0.0
0
LINE
8
0
10
0.0652779672069
20
-0.10828783637
30
0.0
11
0.0658723920055
21
-0.107480841853
31
0.0
0
LINE
8
0
10
0.0658723920055
20
-0.107480841853
30
0.0
11
0.0665017494551
21
-0.106711996663
31
0.0
0
LINE
8
0
10
0.0665017494551
20
-0.106711996663
30
0.0
11
0.0671650840201
21
-0.105982114305
31
0.0
0
LINE
8
0
10
0.0671650840201
20
-0.105982114305
30
0.0
11
0.0678614243242
21
-0.105291988951
31
0.0
0
LINE
8
0
10
0.0678614243242
20
-0.105291988951
30
0.0
11
0.0685897835054
21
-0.104642395159
31
0.0
0
LINE
8
0
10
0.0685897835054
20
-0.104642395159
30
0.0
11
0.0693491595747
21
-0.1040340876
31
0.0
0
LINE
8
0
10
0.0693491595747
20
-0.1040340876
30
0.0
11
0.0701385357811
21
-0.103467800781
31
0.0
0
LINE
8
0
10
0.0701385357811
20
-0.103467800781
30
0.0
11
0.0701385357811
21
-0.103467800781
31
0.0
0
LINE
8
0
10
0.0701385357811
20
-0.103467800781
30
0.0
11
0.0721292789622
21
-0.102089995183
31
0.0
0
LINE
8
0
10
0.0721292789622
20
-0.102089995183
30
0.0
11
0.0740929642849
21
-0.100673892561
31
0.0
0
LINE
8
0
10
0.0740929642849
20
-0.100673892561
30
0.0
11
0.0760288551119
21
-0.0992200241402
31
0.0
0
LINE
8
0
10
0.0760288551119
20
-0.0992200241402
30
0.0
11
0.0779362252323
21
-0.0977289353085
31
0.0
0
LINE
8
0
10
0.0779362252323
20
-0.0977289353085
30
0.0
11
0.0779362252323
21
-0.0977289353085
31
0.0
0
LINE
8
0
10
0.0779362252323
20
-0.0977289353085
30
0.0
11
0.0798143591345
21
-0.0962011854186
31
0.0
0
LINE
8
0
10
0.0798143591345
20
-0.0962011854186
30
0.0
11
0.0816625522739
21
-0.0946373475755
31
0.0
0
LINE
8
0
10
0.0816625522739
20
-0.0946373475755
30
0.0
11
0.0834801113378
21
-0.0930380084215
31
0.0
0
LINE
8
0
10
0.0834801113378
20
-0.0930380084215
30
0.0
11
0.0852663545052
21
-0.0914037679168
31
0.0
0
LINE
8
0
10
0.0852663545052
20
-0.0914037679168
30
0.0
11
0.0852663545052
21
-0.0914037679168
31
0.0
0
LINE
8
0
10
0.0852663545052
20
-0.0914037679168
30
0.0
11
0.0859940960621
21
-0.0907601936918
31
0.0
0
LINE
8
0
10
0.0859940960621
20
-0.0907601936918
30
0.0
11
0.0867561291529
21
-0.0901552179322
31
0.0
0
LINE
8
0
10
0.0867561291529
20
-0.0901552179322
30
0.0
11
0.0875515114369
21
-0.0895896684535
31
0.0
0
LINE
8
0
10
0.0875515114369
20
-0.0895896684535
30
0.0
11
0.0883792842026
21
-0.089064354193
31
0.0
0
LINE
8
0
10
0.0883792842026
20
-0.089064354193
30
0.0
11
0.0892384727133
21
-0.0885800649145
31
0.0
0
LINE
8
0
10
0.0892384727133
20
-0.0885800649145
30
0.0
11
0.0901280865563
21
-0.0881375709199
31
0.0
0
LINE
8
0
10
0.0901280865563
20
-0.0881375709199
30
0.0
11
0.0910471199976
21
-0.0877376227658
31
0.0
0
LINE
8
0
10
0.0910471199976
20
-0.0877376227658
30
0.0
11
0.0919945523415
21
-0.0873809509871
31
0.0
0
LINE
8
0
10
0.0919945523415
20
-0.0873809509871
30
0.0
11
0.0929693482949
21
-0.0870682658265
31
0.0
0
LINE
8
0
10
0.0929693482949
20
-0.0870682658265
30
0.0
11
0.0939704583358
21
-0.0868002569699
31
0.0
0
LINE
8
0
10
0.0939704583358
20
-0.0868002569699
30
0.0
11
0.0949968190872
21
-0.0865775932888
31
0.0
0
LINE
8
0
10
0.0949968190872
20
-0.0865775932888
30
0.0
11
0.0960473536942
21
-0.0864009225887
31
0.0
0
LINE
8
0
10
0.0960473536942
20
-0.0864009225887
30
0.0
11
0.0971209722066
21
-0.0862708713642
31
0.0
0
LINE
8
0
10
0.0971209722066
20
-0.0862708713642
30
0.0
11
0.0982165719652
21
-0.0861880445605
31
0.0
0
LINE
8
0
10
0.0982165719652
20
-0.0861880445605
30
0.0
11
0.0993330379918
21
-0.0861530253419
31
0.0
0
LINE
8
0
10
0.0993330379918
20
-0.0861530253419
30
0.0
11
0.100469243384
21
-0.0861663748664
31
0.0
0
LINE
8
0
10
0.100469243384
20
-0.0861663748664
30
0.0
11
0.101624049712
21
-0.0862286320679
31
0.0
0
LINE
8
0
10
0.101624049712
20
-0.0862286320679
30
0.0
11
0.102796307423
21
-0.0863403134445
31
0.0
0
LINE
8
0
10
0.102796307423
20
-0.0863403134445
30
0.0
11
0.103984856247
21
-0.0865019128542
31
0.0
0
LINE
8
0
10
0.103984856247
20
-0.0865019128542
30
0.0
11
0.1051885256
21
-0.0867139013171
31
0.0
0
LINE
8
0
10
0.1051885256
20
-0.0867139013171
30
0.0
11
0.106406135005
21
-0.0869767268253
31
0.0
0
LINE
8
0
10
0.106406135005
20
-0.0869767268253
30
0.0
11
0.107636494503
21
-0.0872908141591
31
0.0
0
LINE
8
0
10
0.107636494503
20
-0.0872908141591
30
0.0
11
0.108878405072
21
-0.087656564711
31
0.0
0
LINE
8
0
10
0.108878405072
20
-0.087656564711
30
0.0
11
0.11013065905
21
-0.0880743563166
31
0.0
0
LINE
8
0
10
0.11013065905
20
-0.0880743563166
30
0.0
11
0.111392040561
21
-0.0885445430926
31
0.0
0
LINE
8
0
10
0.111392040561
20
-0.0885445430926
30
0.0
11
0.112661325941
21
-0.0890674552822
31
0.0
0
LINE
8
0
10
0.112661325941
20
-0.0890674552822
30
0.0
11
0.11393728417
21
-0.0896433991082
31
0.0
0
LINE
8
0
10
0.11393728417
20
-0.0896433991082
30
0.0
11
0.115218677303
21
-0.0902726566328
31
0.0
0
LINE
8
0
10
0.115218677303
20
-0.0902726566328
30
0.0
11
0.11650426091
21
-0.0909554856254
31
0.0
0
LINE
8
0
10
0.11650426091
20
-0.0909554856254
30
0.0
11
0.117792784507
21
-0.0916921194377
31
0.0
0
LINE
8
0
10
0.117792784507
20
-0.0916921194377
30
0.0
11
0.119082992003
21
-0.0924827668859
31
0.0
0
LINE
8
0
10
0.119082992003
20
-0.0924827668859
30
0.0
11
0.120373622139
21
-0.0933276121413
31
0.0
0
LINE
8
0
10
0.120373622139
20
-0.0933276121413
30
0.0
11
0.121663408929
21
-0.0942268146275
31
0.0
0
LINE
8
0
10
0.121663408929
20
-0.0942268146275
30
0.0
11
0.122951082115
21
-0.0951805089259
31
0.0
0
LINE
8
0
10
0.122951082115
20
-0.0951805089259
30
0.0
11
0.124235367603
21
-0.0961888046888
31
0.0
0
LINE
8
0
10
0.124235367603
20
-0.0961888046888
30
0.0
11
0.125514987923
21
-0.0972517865595
31
0.0
0
LINE
8
0
10
0.125514987923
20
-0.0972517865595
30
0.0
11
0.126788662673
21
-0.0983695141012
31
0.0
0
LINE
8
0
10
0.126788662673
20
-0.0983695141012
30
0.0
11
0.128055108971
21
-0.0995420217324
31
0.0
0
LINE
8
0
10
0.128055108971
20
-0.0995420217324
30
0.0
11
0.129313041915
21
-0.100769318671
31
0.0
0
LINE
8
0
10
0.129313041915
20
-0.100769318671
30
0.0
11
0.130561175027
21
-0.102051388886
31
0.0
0
LINE
8
0
10
0.130561175027
20
-0.102051388886
30
0.0
11
0.131798220719
21
-0.103388191056
31
0.0
0
LINE
8
0
10
0.131798220719
20
-0.103388191056
30
0.0
11
0.13302289074
21
-0.104779658537
31
0.0
0
LINE
8
0
10
0.13302289074
20
-0.104779658537
30
0.0
11
0.134233896637
21
-0.106225699338
31
0.0
0
LINE
8
0
10
0.134233896637
20
-0.106225699338
30
0.0
11
0.135429950215
21
-0.107726196101
31
0.0
0
LINE
8
0
10
0.135429950215
20
-0.107726196101
30
0.0
11
0.136609763987
21
-0.109281006096
31
0.0
0
LINE
8
0
10
0.136609763987
20
-0.109281006096
30
0.0
11
0.137772051641
21
-0.110889961214
31
0.0
0
LINE
8
0
10
0.137772051641
20
-0.110889961214
30
0.0
11
0.13891552849
21
-0.112552867979
31
0.0
0
LINE
8
0
10
0.13891552849
20
-0.112552867979
30
0.0
11
0.140038911936
21
-0.114269507556
31
0.0
0
LINE
8
0
10
0.140038911936
20
-0.114269507556
30
0.0
11
0.141140921925
21
-0.116039635779
31
0.0
0
LINE
8
0
10
0.141140921925
20
-0.116039635779
30
0.0
11
0.141140740389
21
-0.116039486528
31
0.0
0
LINE
8
0
10
0.141140740389
20
-0.116039486528
30
0.0
11
0.141166637069
21
-0.116060231847
31
0.0
0
LINE
8
0
10
0.141166637069
20
-0.116060231847
30
0.0
11
0.141245369855
21
-0.11612114257
31
0.0
0
LINE
8
0
10
0.141245369855
20
-0.11612114257
30
0.0
11
0.141378459945
21
-0.1162201977
31
0.0
0
LINE
8
0
10
0.141378459945
20
-0.1162201977
30
0.0
11
0.141567370422
21
-0.116355333215
31
0.0
0
LINE
8
0
10
0.141567370422
20
-0.116355333215
30
0.0
11
0.141813505171
21
-0.116524443554
31
0.0
0
LINE
8
0
10
0.141813505171
20
-0.116524443554
30
0.0
11
0.142118207838
21
-0.116725383131
31
0.0
0
LINE
8
0
10
0.142118207838
20
-0.116725383131
30
0.0
11
0.142482760822
21
-0.116955967867
31
0.0
0
LINE
8
0
10
0.142482760822
20
-0.116955967867
30
0.0
11
0.142908384298
21
-0.117213976753
31
0.0
0
LINE
8
0
10
0.142908384298
20
-0.117213976753
30
0.0
11
0.143396235288
21
-0.117497153435
31
0.0
0
LINE
8
0
10
0.143396235288
20
-0.117497153435
30
0.0
11
0.143947406761
21
-0.117803207812
31
0.0
0
LINE
8
0
10
0.143947406761
20
-0.117803207812
30
0.0
11
0.144562926779
21
-0.118129817668
31
0.0
0
LINE
8
0
10
0.144562926779
20
-0.118129817668
30
0.0
11
0.14524375767
21
-0.118474630319
31
0.0
0
LINE
8
0
10
0.14524375767
20
-0.118474630319
30
0.0
11
0.145990795258
21
-0.118835264272
31
0.0
0
LINE
8
0
10
0.145990795258
20
-0.118835264272
30
0.0
11
0.146804868112
21
-0.119209310918
31
0.0
0
LINE
8
0
10
0.146804868112
20
-0.119209310918
30
0.0
11
0.147686736853
21
-0.119594336229
31
0.0
0
LINE
8
0
10
0.147686736853
20
-0.119594336229
30
0.0
11
0.148637093491
21
-0.119987882476
31
0.0
0
LINE
8
0
10
0.148637093491
20
-0.119987882476
30
0.0
11
0.149656560808
21
-0.120387469967
31
0.0
0
LINE
8
0
10
0.149656560808
20
-0.120387469967
30
0.0
11
0.150745691778
21
-0.120790598794
31
0.0
0
LINE
8
0
10
0.150745691778
20
-0.120790598794
30
0.0
11
0.15190496903
21
-0.121194750596
31
0.0
0
LINE
8
0
10
0.15190496903
20
-0.121194750596
30
0.0
11
0.153134804358
21
-0.121597390338
31
0.0
0
LINE
8
0
10
0.153134804358
20
-0.121597390338
30
0.0
11
0.154435538266
21
-0.121995968093
31
0.0
0
LINE
8
0
10
0.154435538266
20
-0.121995968093
30
0.0
11
0.155807439558
21
-0.122387920847
31
0.0
0
LINE
8
0
10
0.155807439558
20
-0.122387920847
30
0.0
11
0.157250704974
21
-0.122770674308
31
0.0
0
LINE
8
0
10
0.157250704974
20
-0.122770674308
30
0.0
11
0.158765458862
21
-0.123141644719
31
0.0
0
LINE
8
0
10
0.158765458862
20
-0.123141644719
30
0.0
11
0.160351752901
21
-0.123498240689
31
0.0
0
LINE
8
0
10
0.160351752901
20
-0.123498240689
30
0.0
11
0.162009565861
21
-0.123837865025
31
0.0
0
LINE
8
0
10
0.162009565861
20
-0.123837865025
30
0.0
11
0.163738803412
21
-0.124157916573
31
0.0
0
LINE
8
0
10
0.163738803412
20
-0.124157916573
30
0.0
11
0.165539297972
21
-0.124455792058
31
0.0
0
LINE
8
0
10
0.165539297972
20
-0.124455792058
30
0.0
11
0.167410808598
21
-0.124728887938
31
0.0
0
LINE
8
0
10
0.167410808598
20
-0.124728887938
30
0.0
11
0.16935302093
21
-0.124974602255
31
0.0
0
LINE
8
0
10
0.16935302093
20
-0.124974602255
30
0.0
11
0.171365547168
21
-0.125190336484
31
0.0
0
LINE
8
0
10
0.171365547168
20
-0.125190336484
30
0.0
11
0.173447926097
21
-0.125373497396
31
0.0
0
LINE
8
0
10
0.173447926097
20
-0.125373497396
30
0.0
11
0.175599623158
21
-0.125521498906
31
0.0
0
LINE
8
0
10
0.175599623158
20
-0.125521498906
30
0.0
11
0.177820030563
21
-0.125631763933
31
0.0
0
LINE
8
0
10
0.177820030563
20
-0.125631763933
30
0.0
11
0.180108467451
21
-0.125701726247
31
0.0
0
LINE
8
0
10
0.180108467451
20
-0.125701726247
30
0.0
11
0.182464180087
21
-0.125728832324
31
0.0
0
LINE
8
0
10
0.182464180087
20
-0.125728832324
30
0.0
11
0.184886342115
21
-0.125710543187
31
0.0
0
LINE
8
0
10
0.184886342115
20
-0.125710543187
30
0.0
11
0.187374054839
21
-0.12564433625
31
0.0
0
LINE
8
0
10
0.187374054839
20
-0.12564433625
30
0.0
11
0.189926347563
21
-0.125527707151
31
0.0
0
LINE
8
0
10
0.189926347563
20
-0.125527707151
30
0.0
11
0.192542177964
21
-0.12535817158
31
0.0
0
LINE
8
0
10
0.192542177964
20
-0.12535817158
30
0.0
11
0.195220432513
21
-0.125133267101
31
0.0
0
LINE
8
0
10
0.195220432513
20
-0.125133267101
30
0.0
11
0.197959926941
21
-0.124850554957
31
0.0
0
LINE
8
0
10
0.197959926941
20
-0.124850554957
30
0.0
11
0.200759406744
21
-0.124507621881
31
0.0
0
LINE
8
0
10
0.200759406744
20
-0.124507621881
30
0.0
11
0.203617547733
21
-0.124102081876
31
0.0
0
LINE
8
0
10
0.203617547733
20
-0.124102081876
30
0.0
11
0.206532956627
21
-0.123631578
31
0.0
0
LINE
8
0
10
0.206532956627
20
-0.123631578
30
0.0
11
0.209504171688
21
-0.12309378413
31
0.0
0
LINE
8
0
10
0.209504171688
20
-0.12309378413
30
0.0
11
0.212529663397
21
-0.122486406712
31
0.0
0
LINE
8
0
10
0.212529663397
20
-0.122486406712
30
0.0
11
0.215607835178
21
-0.121807186501
31
0.0
0
LINE
8
0
10
0.215607835178
20
-0.121807186501
30
0.0
11
0.21873702415
21
-0.121053900278
31
0.0
0
LINE
8
0
10
0.21873702415
20
-0.121053900278
30
0.0
11
0.218737142257
21
-0.121053965641
31
0.0
0
LINE
8
0
10
0.218737142257
20
-0.121053965641
30
0.0
11
0.22043009975
21
-0.117943084258
31
0.0
0
LINE
8
0
10
0.22043009975
20
-0.117943084258
30
0.0
11
0.22207881714
21
-0.114808531815
31
0.0
0
LINE
8
0
10
0.22207881714
20
-0.114808531815
30
0.0
11
0.223682963533
21
-0.111650937413
31
0.0
0
LINE
8
0
10
0.223682963533
20
-0.111650937413
30
0.0
11
0.225242216976
21
-0.108470934779
31
0.0
0
LINE
8
0
10
0.225242216976
20
-0.108470934779
30
0.0
11
0.225242216976
21
-0.108470934779
31
0.0
0
LINE
8
0
10
0.225242216976
20
-0.108470934779
30
0.0
11
0.226756264529
21
-0.105269162136
31
0.0
0
LINE
8
0
10
0.226756264529
20
-0.105269162136
30
0.0
11
0.228224802325
21
-0.102046262077
31
0.0
0
LINE
8
0
10
0.228224802325
20
-0.102046262077
30
0.0
11
0.229647535629
21
-0.0988028814334
31
0.0
0
LINE
8
0
10
0.229647535629
20
-0.0988028814334
30
0.0
11
0.2310241789
21
-0.0955396711498
31
0.0
0
LINE
8
0
10
0.2310241789
20
-0.0955396711498
30
0.0
11
0.231024054159
21
-0.0955396195634
31
0.0
0
LINE
8
0
10
0.231024054159
20
-0.0955396195634
30
0.0
11
0.229661979631
21
-0.0926234548324
31
0.0
0
LINE
8
0
10
0.229661979631
20
-0.0926234548324
30
0.0
11
0.228273806663
21
-0.0897933563511
31
0.0
0
LINE
8
0
10
0.228273806663
20
-0.0897933563511
30
0.0
11
0.226862310223
21
-0.0870492380567
31
0.0
0
LINE
8
0
10
0.226862310223
20
-0.0870492380567
30
0.0
11
0.225430252112
21
-0.0843909395876
31
0.0
0
LINE
8
0
10
0.225430252112
20
-0.0843909395876
30
0.0
11
0.223980379141
21
-0.0818182267619
31
0.0
0
LINE
8
0
10
0.223980379141
20
-0.0818182267619
30
0.0
11
0.222515421326
21
-0.0793307920981
31
0.0
0
LINE
8
0
10
0.222515421326
20
-0.0793307920981
30
0.0
11
0.221038090094
21
-0.0769282553776
31
0.0
0
LINE
8
0
10
0.221038090094
20
-0.0769282553776
30
0.0
11
0.21955107651
21
-0.0746101642494
31
0.0
0
LINE
8
0
10
0.21955107651
20
-0.0746101642494
30
0.0
11
0.218057049514
21
-0.0723759948751
31
0.0
0
LINE
8
0
10
0.218057049514
20
-0.0723759948751
30
0.0
11
0.216558654183
21
-0.0702251526158
31
0.0
0
LINE
8
0
10
0.216558654183
20
-0.0702251526158
30
0.0
11
0.215058509999
21
-0.068156972758
31
0.0
0
LINE
8
0
10
0.215058509999
20
-0.068156972758
30
0.0
11
0.213559209153
21
-0.0661707212808
31
0.0
0
LINE
8
0
10
0.213559209153
20
-0.0661707212808
30
0.0
11
0.212063314853
21
-0.0642655956616
31
0.0
0
LINE
8
0
10
0.212063314853
20
-0.0642655956616
30
0.0
11
0.210573359664
21
-0.0624407257209
31
0.0
0
LINE
8
0
10
0.210573359664
20
-0.0624407257209
30
0.0
11
0.209091843863
21
-0.0606951745061
31
0.0
0
LINE
8
0
10
0.209091843863
20
-0.0606951745061
30
0.0
11
0.207621233821
21
-0.0590279392122
31
0.0
0
LINE
8
0
10
0.207621233821
20
-0.0590279392122
30
0.0
11
0.206163960406
21
-0.0574379521412
31
0.0
0
LINE
8
0
10
0.206163960406
20
-0.0574379521412
30
0.0
11
0.204722417413
21
-0.055924081697
31
0.0
0
LINE
8
0
10
0.204722417413
20
-0.055924081697
30
0.0
11
0.203298960016
21
-0.0544851334172
31
0.0
0
LINE
8
0
10
0.203298960016
20
-0.0544851334172
30
0.0
11
0.201895903245
21
-0.0531198510406
31
0.0
0
LINE
8
0
10
0.201895903245
20
-0.0531198510406
30
0.0
11
0.200515520499
21
-0.0518269176095
31
0.0
0
LINE
8
0
10
0.200515520499
20
-0.0518269176095
30
0.0
11
0.19916004207
21
-0.0506049566064
31
0.0
0
LINE
8
0
10
0.19916004207
20
-0.0506049566064
30
0.0
11
0.197831653716
21
-0.0494525331242
31
0.0
0
LINE
8
0
10
0.197831653716
20
-0.0494525331242
30
0.0
11
0.196532495244
21
-0.04836815507
31
0.0
0
LINE
8
0
10
0.196532495244
20
-0.04836815507
30
0.0
11
0.195264659132
21
-0.0473502744008
31
0.0
0
LINE
8
0
10
0.195264659132
20
-0.0473502744008
30
0.0
11
0.194030189184
21
-0.046397288391
31
0.0
0
LINE
8
0
10
0.194030189184
20
-0.046397288391
30
0.0
11
0.192831079211
21
-0.0455075409306
31
0.0
0
LINE
8
0
10
0.192831079211
20
-0.0455075409306
30
0.0
11
0.191669271742
21
-0.0446793238547
31
0.0
0
LINE
8
0
10
0.191669271742
20
-0.0446793238547
30
0.0
11
0.190546656779
21
-0.0439108783005
31
0.0
0
LINE
8
0
10
0.190546656779
20
-0.0439108783005
30
0.0
11
0.189465070568
21
-0.043200396095
31
0.0
0
LINE
8
0
10
0.189465070568
20
-0.043200396095
30
0.0
11
0.188426294421
21
-0.0425460211696
31
0.0
0
LINE
8
0
10
0.188426294421
20
-0.0425460211696
30
0.0
11
0.18743205356
21
-0.0419458510018
31
0.0
0
LINE
8
0
10
0.18743205356
20
-0.0419458510018
30
0.0
11
0.186484016004
21
-0.0413979380838
31
0.0
0
LINE
8
0
10
0.186484016004
20
-0.0413979380838
30
0.0
11
0.185583791486
21
-0.0409002914158
31
0.0
0
LINE
8
0
10
0.185583791486
20
-0.0409002914158
30
0.0
11
0.18473293041
21
-0.0404508780251
31
0.0
0
LINE
8
0
10
0.18473293041
20
-0.0404508780251
30
0.0
11
0.183932922844
21
-0.0400476245082
31
0.0
0
LINE
8
0
10
0.183932922844
20
-0.0400476245082
30
0.0
11
0.183185197548
21
-0.0396884185961
31
0.0
0
LINE
8
0
10
0.183185197548
20
-0.0396884185961
30
0.0
11
0.182491121045
21
-0.0393711107416
31
0.0
0
LINE
8
0
10
0.182491121045
20
-0.0393711107416
30
0.0
11
0.181851996723
21
-0.0390935157288
31
0.0
0
LINE
8
0
10
0.181851996723
20
-0.0390935157288
30
0.0
11
0.181269063983
21
-0.0388534143013
31
0.0
0
LINE
8
0
10
0.181269063983
20
-0.0388534143013
30
0.0
11
0.180743497421
21
-0.0386485548117
31
0.0
0
LINE
8
0
10
0.180743497421
20
-0.0386485548117
30
0.0
11
0.180276406054
21
-0.0384766548882
31
0.0
0
LINE
8
0
10
0.180276406054
20
-0.0384766548882
30
0.0
11
0.17986883258
21
-0.03833540312
31
0.0
0
LINE
8
0
10
0.17986883258
20
-0.03833540312
30
0.0
11
0.179521752687
21
-0.0382224607583
31
0.0
0
LINE
8
0
10
0.179521752687
20
-0.0382224607583
30
0.0
11
0.179236074394
21
-0.0381354634345
31
0.0
0
LINE
8
0
10
0.179236074394
20
-0.0381354634345
30
0.0
11
0.179012637439
21
-0.0380720228921
31
0.0
0
LINE
8
0
10
0.179012637439
20
-0.0380720228921
30
0.0
11
0.178852212706
21
-0.0380297287329
31
0.0
0
LINE
8
0
10
0.178852212706
20
-0.0380297287329
30
0.0
11
0.178755501696
21
-0.0380061501765
31
0.0
0
LINE
8
0
10
0.178755501696
20
-0.0380061501765
30
0.0
11
0.178723136036
21
-0.0379988378314
31
0.0
0
LINE
8
0
10
0.178723136036
20
-0.0379988378314
30
0.0
11
0.178723365911
21
-0.0379988867058
31
0.0
0
LINE
8
0
10
0.178723365911
20
-0.0379988867058
30
0.0
11
0.176652331949
21
-0.0382409574973
31
0.0
0
LINE
8
0
10
0.176652331949
20
-0.0382409574973
30
0.0
11
0.174609790961
21
-0.0384329682223
31
0.0
0
LINE
8
0
10
0.174609790961
20
-0.0384329682223
30
0.0
11
0.172596731946
21
-0.0385757674314
31
0.0
0
LINE
8
0
10
0.172596731946
20
-0.0385757674314
30
0.0
11
0.170614125682
21
-0.0386702214601
31
0.0
0
LINE
8
0
10
0.170614125682
20
-0.0386702214601
30
0.0
11
0.168662924424
21
-0.0387172140847
31
0.0
0
LINE
8
0
10
0.168662924424
20
-0.0387172140847
30
0.0
11
0.166744061607
21
-0.0387176461728
31
0.0
0
LINE
8
0
10
0.166744061607
20
-0.0387176461728
30
0.0
11
0.164858451557
21
-0.0386724353289
31
0.0
0
LINE
8
0
10
0.164858451557
20
-0.0386724353289
30
0.0
11
0.163006989204
21
-0.0385825155353
31
0.0
0
LINE
8
0
10
0.163006989204
20
-0.0385825155353
30
0.0
11
0.161190549809
21
-0.0384488367885
31
0.0
0
LINE
8
0
10
0.161190549809
20
-0.0384488367885
30
0.0
11
0.159409988685
21
-0.038272364731
31
0.0
0
LINE
8
0
10
0.159409988685
20
-0.038272364731
30
0.0
11
0.157666140939
21
-0.0380540802782
31
0.0
0
LINE
8
0
10
0.157666140939
20
-0.0380540802782
30
0.0
11
0.155959821207
21
-0.0377949792417
31
0.0
0
LINE
8
0
10
0.155959821207
20
-0.0377949792417
30
0.0
11
0.154291823409
21
-0.0374960719477
31
0.0
0
LINE
8
0
10
0.154291823409
20
-0.0374960719477
30
0.0
11
0.152662920498
21
-0.0371583828519
31
0.0
0
LINE
8
0
10
0.152662920498
20
-0.0371583828519
30
0.0
11
0.151073864222
21
-0.0367829501499
31
0.0
0
LINE
8
0
10
0.151073864222
20
-0.0367829501499
30
0.0
11
0.149525384895
21
-0.0363708253836
31
0.0
0
LINE
8
0
10
0.149525384895
20
-0.0363708253836
30
0.0
11
0.148018191172
21
-0.0359230730447
31
0.0
0
LINE
8
0
10
0.148018191172
20
-0.0359230730447
30
0.0
11
0.146552969826
21
-0.0354407701736
31
0.0
0
LINE
8
0
10
0.146552969826
20
-0.0354407701736
30
0.0
11
0.145130385543
21
-0.034925005955
31
0.0
0
LINE
8
0
10
0.145130385543
20
-0.034925005955
30
0.0
11
0.143751080715
21
-0.0343768813104
31
0.0
0
LINE
8
0
10
0.143751080715
20
-0.0343768813104
30
0.0
11
0.142415675244
21
-0.0337975084868
31
0.0
0
LINE
8
0
10
0.142415675244
20
-0.0337975084868
30
0.0
11
0.141124766349
21
-0.0331880106429
31
0.0
0
LINE
8
0
10
0.141124766349
20
-0.0331880106429
30
0.0
11
0.139878928391
21
-0.0325495214312
31
0.0
0
LINE
8
0
10
0.139878928391
20
-0.0325495214312
30
0.0
11
0.138678712688
21
-0.0318831845783
31
0.0
0
LINE
8
0
10
0.138678712688
20
-0.0318831845783
30
0.0
11
0.137524647356
21
-0.0311901534613
31
0.0
0
LINE
8
0
10
0.137524647356
20
-0.0311901534613
30
0.0
11
0.136417237141
21
-0.0304715906826
31
0.0
0
LINE
8
0
10
0.136417237141
20
-0.0304715906826
30
0.0
11
0.13535696327
21
-0.0297286676407
31
0.0
0
LINE
8
0
10
0.13535696327
20
-0.0297286676407
30
0.0
11
0.134344283305
21
-0.0289625641002
31
0.0
0
LINE
8
0
10
0.134344283305
20
-0.0289625641002
30
0.0
11
0.133379631001
21
-0.0281744677578
31
0.0
0
LINE
8
0
10
0.133379631001
20
-0.0281744677578
30
0.0
11
0.132463416181
21
-0.0273655738076
31
0.0
0
LINE
8
0
10
0.132463416181
20
-0.0273655738076
30
0.0
11
0.131596024604
21
-0.0265370845032
31
0.0
0
LINE
8
0
10
0.131596024604
20
-0.0265370845032
30
0.0
11
0.13077781786
21
-0.0256902087181
31
0.0
0
LINE
8
0
10
0.13077781786
20
-0.0256902087181
30
0.0
11
0.130009133251
21
-0.0248261615047
31
0.0
0
LINE
8
0
10
0.130009133251
20
-0.0248261615047
30
0.0
11
0.129290283698
21
-0.0239461636512
31
0.0
0
LINE
8
0
10
0.129290283698
20
-0.0239461636512
30
0.0
11
0.128621557644
21
-0.0230514412369
31
0.0
0
LINE
8
0
10
0.128621557644
20
-0.0230514412369
30
0.0
11
0.12800321897
21
-0.022143225186
31
0.0
0
LINE
8
0
10
0.12800321897
20
-0.022143225186
30
0.0
11
0.127435506918
21
-0.0212227508206
31
0.0
0
LINE
8
0
10
0.127435506918
20
-0.0212227508206
30
0.0
11
0.126918636019
21
-0.0202912574116
31
0.0
0
LINE
8
0
10
0.126918636019
20
-0.0202912574116
30
0.0
11
0.126452796034
21
-0.0193499877295
31
0.0
0
LINE
8
0
10
0.126452796034
20
-0.0193499877295
30
0.0
11
0.126038151894
21
-0.0184001875931
31
0.0
0
LINE
8
0
10
0.126038151894
20
-0.0184001875931
30
0.0
11
0.125674843661
21
-0.017443105419
31
0.0
0
LINE
8
0
10
0.125674843661
20
-0.017443105419
30
0.0
11
0.125362986482
21
-0.0164799917684
31
0.0
0
LINE
8
0
10
0.125362986482
20
-0.0164799917684
30
0.0
11
0.125102670562
21
-0.0155120988952
31
0.0
0
LINE
8
0
10
0.125102670562
20
-0.0155120988952
30
0.0
11
0.124893961139
21
-0.0145406802924
31
0.0
0
LINE
8
0
10
0.124893961139
20
-0.0145406802924
30
0.0
11
0.12473689847
21
-0.0135669902391
31
0.0
0
LINE
8
0
10
0.12473689847
20
-0.0135669902391
30
0.0
11
0.124631497819
21
-0.0125922833463
31
0.0
0
LINE
8
0
10
0.124631497819
20
-0.0125922833463
30
0.0
11
0.124577749464
21
-0.0116178141038
31
0.0
0
LINE
8
0
10
0.124577749464
20
-0.0116178141038
30
0.0
11
0.124575618698
21
-0.0106448364262
31
0.0
0
LINE
8
0
10
0.124575618698
20
-0.0106448364262
30
0.0
11
0.124625045849
21
-0.00967460319986
31
0.0
0
LINE
8
0
10
0.124625045849
20
-0.00967460319986
30
0.0
11
0.124625045849
21
-0.00967460319986
31
0.0
0
LINE
8
0
10
0.124625045849
20
-0.00967460319986
30
0.0
11
0.124789042127
21
-0.00725912976778
31
0.0
0
LINE
8
0
10
0.124789042127
20
-0.00725912976778
30
0.0
11
0.124906226288
21
-0.00484093321814
31
0.0
0
LINE
8
0
10
0.124906226288
20
-0.00484093321814
30
0.0
11
0.124976554373
21
-0.00242092068909
31
0.0
0
LINE
8
0
10
0.124976554373
20
-0.00242092068909
30
0.0
11
0.125
21
-2.77555756156e-17
31
0.0
0
ENDSEC
0
EOF
